<svg width="69" height="69" viewBox="0 0 69 69" fill="none" xmlns="http://www.w3.org/2000/svg">
<path d="M67.625 3.56231C67.3125 2.62481 66.375 1.68731 65.4375 1.37481C52.3125 -2.06269 38.875 1.99981 29.8125 12.6248L26.375 16.6873L17.9375 14.8123C13.875 13.2498 9.5 15.1248 7.625 18.8748L0.75 31.0623C0.125 31.9998 0.125 32.9373 0.75 33.8748C1.0625 34.8123 2 35.4373 2.9375 35.7498L12.625 37.9373C11.6875 40.4373 11.375 42.9373 10.75 45.4373C10.75 46.3748 11.0625 47.3123 11.6875 47.9373L21.375 57.6248C22 58.2498 22.625 58.5623 23.5625 58.5623H23.875C26.6875 58.2498 29.1875 57.9373 31.6875 56.9998L33.5625 66.3748C33.875 67.3123 34.5 68.2498 35.4375 68.5623C35.75 68.8748 36.375 68.8748 36.6875 68.8748C37.3125 68.8748 37.625 68.8748 38.25 68.5623L50.4375 61.6873C53.875 59.8123 55.75 55.4373 54.8125 51.3748L52.625 42.6248L56.375 39.1873C66.6875 30.4373 71.0625 16.3748 67.625 3.56231ZM19.8125 24.4998C17.9375 26.9998 16.0625 29.4998 14.8125 31.9998L8.25 30.4373L12.9375 21.9998C13.5625 20.7498 14.8125 20.4373 16.375 20.7498L21.6875 21.9998L19.8125 24.4998ZM47 56.0623L38.5625 60.7498L37.3125 54.4998C40.125 53.2498 42.625 51.3748 44.8125 49.4998L47 47.3123L48.25 52.6248C48.875 54.1873 47.9375 55.7498 47 56.0623ZM49.1875 24.4998C46.6875 24.4998 44.5 22.3123 44.5 19.8123C44.5 17.3123 46.6875 15.1248 49.1875 15.1248C51.6875 15.1248 53.875 17.3123 53.875 19.8123C53.875 22.3123 52 24.4998 49.1875 24.4998Z" fill="#FF540E"/>
</svg>
