<svg width="31" height="31" viewBox="0 0 31 31" fill="none" xmlns="http://www.w3.org/2000/svg">
<mask id="path-1-inside-1_22_304" fill="white">
<path d="M19.0761 13.4617L18.8154 16.0299C18.3247 16.0299 17.8638 16.0299 17.403 16.0292C17.3508 16.0292 17.2989 16.0155 17.2466 16.0119C16.8891 15.9875 16.8588 16.0208 16.8593 16.3761C16.8622 18.6861 16.8637 20.9964 16.8639 23.307C16.8639 23.367 16.857 23.4256 16.8524 23.5H13.9403C13.9343 23.4004 13.9253 23.3164 13.9253 23.2324C13.9245 21.0884 13.9248 18.9444 13.9262 16.8003C13.9262 16.6353 13.9482 16.469 13.9562 16.3032C13.9655 16.1015 13.8899 16.0022 13.6641 16.0118C13.2812 16.028 12.897 16.0163 12.5 16.0163V13.4852C12.8912 13.4852 13.2486 13.478 13.6058 13.4878C13.8458 13.4943 13.937 13.4182 13.9358 13.1564C13.9346 12.4574 13.908 11.7499 14.0039 11.0614C14.2005 9.64944 14.8098 8.8048 16.3739 8.63845C17.2481 8.545 18.1324 8.545 19.0479 8.5V11.0969C18.7662 11.0969 18.5139 11.0872 18.2626 11.0993C17.9409 11.1143 17.6176 11.1307 17.2998 11.1796C17.0831 11.2129 16.9371 11.3734 16.9268 11.5979C16.9004 12.1652 16.8908 12.7333 16.8774 13.3012C16.8725 13.512 17.0355 13.4737 17.1588 13.4735C17.6925 13.4728 18.2263 13.466 18.76 13.4617C18.8541 13.4609 18.948 13.4617 19.0761 13.4617Z"/>
</mask>
<path d="M19.0761 13.4617L18.8154 16.0299C18.3247 16.0299 17.8638 16.0299 17.403 16.0292C17.3508 16.0292 17.2989 16.0155 17.2466 16.0119C16.8891 15.9875 16.8588 16.0208 16.8593 16.3761C16.8622 18.6861 16.8637 20.9964 16.8639 23.307C16.8639 23.367 16.857 23.4256 16.8524 23.5H13.9403C13.9343 23.4004 13.9253 23.3164 13.9253 23.2324C13.9245 21.0884 13.9248 18.9444 13.9262 16.8003C13.9262 16.6353 13.9482 16.469 13.9562 16.3032C13.9655 16.1015 13.8899 16.0022 13.6641 16.0118C13.2812 16.028 12.897 16.0163 12.5 16.0163V13.4852C12.8912 13.4852 13.2486 13.478 13.6058 13.4878C13.8458 13.4943 13.937 13.4182 13.9358 13.1564C13.9346 12.4574 13.908 11.7499 14.0039 11.0614C14.2005 9.64944 14.8098 8.8048 16.3739 8.63845C17.2481 8.545 18.1324 8.545 19.0479 8.5V11.0969C18.7662 11.0969 18.5139 11.0872 18.2626 11.0993C17.9409 11.1143 17.6176 11.1307 17.2998 11.1796C17.0831 11.2129 16.9371 11.3734 16.9268 11.5979C16.9004 12.1652 16.8908 12.7333 16.8774 13.3012C16.8725 13.512 17.0355 13.4737 17.1588 13.4735C17.6925 13.4728 18.2263 13.466 18.76 13.4617C18.8541 13.4609 18.948 13.4617 19.0761 13.4617Z" fill="#FF540E"/>
<path d="M19.0761 13.4617L20.071 13.5626L20.1827 12.4617H19.0761V13.4617ZM18.8154 16.0299V17.0299H19.719L19.8103 16.1309L18.8154 16.0299ZM17.403 16.0292L17.4046 15.0292H17.403V16.0292ZM17.2466 16.0119L17.3152 15.0143L17.3148 15.0143L17.2466 16.0119ZM16.8593 16.3761L17.8593 16.3749V16.3749L16.8593 16.3761ZM16.8639 23.307H17.8639V23.3069L16.8639 23.307ZM16.8524 23.5V24.5H17.7918L17.8504 23.5624L16.8524 23.5ZM13.9403 23.5L12.9421 23.5601L12.9987 24.5H13.9403V23.5ZM13.9253 23.2324H14.9253L14.9253 23.232L13.9253 23.2324ZM13.9262 16.8003L14.9262 16.801V16.8003H13.9262ZM13.9562 16.3032L14.955 16.3511L14.9551 16.3493L13.9562 16.3032ZM13.6641 16.0118L13.7064 17.0109L13.7066 17.0109L13.6641 16.0118ZM12.5 16.0163H11.5V17.0163H12.5V16.0163ZM12.5 13.4852V12.4852H11.5V13.4852H12.5ZM13.6058 13.4878L13.6333 12.4881L13.6331 12.4881L13.6058 13.4878ZM13.9358 13.1564L12.9358 13.1581L12.9358 13.161L13.9358 13.1564ZM14.0039 11.0614L13.0134 10.9234L13.0134 10.9235L14.0039 11.0614ZM16.3739 8.63845L16.4796 9.63284L16.4802 9.63278L16.3739 8.63845ZM19.0479 8.5H20.0479V7.44964L18.9988 7.50121L19.0479 8.5ZM19.0479 11.0969V12.0969H20.0479V11.0969H19.0479ZM18.2626 11.0993L18.3092 12.0982L18.3109 12.0982L18.2626 11.0993ZM17.2998 11.1796L17.4517 12.168L17.4519 12.1679L17.2998 11.1796ZM16.9268 11.5979L17.9257 11.6444L17.9257 11.644L16.9268 11.5979ZM16.8774 13.3012L15.8777 13.2777L15.8777 13.2777L16.8774 13.3012ZM17.1588 13.4735L17.16 14.4735L17.1602 14.4735L17.1588 13.4735ZM18.76 13.4617L18.7521 12.4617L18.7519 12.4617L18.76 13.4617ZM18.0812 13.3607L17.8205 15.9289L19.8103 16.1309L20.071 13.5626L18.0812 13.3607ZM18.8154 15.0299C18.3246 15.0299 17.8645 15.0299 17.4046 15.0292L17.4014 17.0292C17.8631 17.0299 18.3249 17.0299 18.8154 17.0299V15.0299ZM17.403 15.0292C17.4329 15.0292 17.4553 15.0311 17.4659 15.0322C17.4758 15.0332 17.4805 15.0341 17.4715 15.0327C17.4649 15.0317 17.4646 15.0317 17.4534 15.03C17.4454 15.0288 17.4341 15.0271 17.4214 15.0254C17.3965 15.022 17.3591 15.0173 17.3152 15.0143L17.1779 17.0096C17.1602 17.0083 17.1489 17.0067 17.1501 17.0069C17.156 17.0077 17.1538 17.0075 17.1781 17.0111C17.2076 17.0154 17.297 17.0292 17.403 17.0292V15.0292ZM17.3148 15.0143C17.2284 15.0083 17.083 14.999 16.937 15.0134C16.7875 15.0281 16.4889 15.0801 16.2292 15.3273C15.9714 15.5727 15.9044 15.8658 15.8817 16.0092C15.8592 16.1506 15.8592 16.2938 15.8593 16.3774L17.8593 16.3749C17.8591 16.2808 17.8627 16.2866 17.857 16.3226C17.8509 16.3605 17.8138 16.5802 17.6082 16.7759C17.4006 16.9734 17.1767 16.9994 17.1333 17.0037C17.0935 17.0076 17.086 17.0033 17.1783 17.0096L17.3148 15.0143ZM15.8593 16.3774C15.8622 18.687 15.8637 20.9969 15.8639 23.307L17.8639 23.3069C17.8637 20.9959 17.8622 18.6852 17.8593 16.3749L15.8593 16.3774ZM15.8639 23.307C15.8639 23.3001 15.8643 23.3009 15.8626 23.325C15.8616 23.3385 15.8607 23.3487 15.8591 23.3701C15.8576 23.3889 15.8559 23.412 15.8543 23.4376L17.8504 23.5624C17.8505 23.5606 17.8639 23.4061 17.8639 23.307H15.8639ZM16.8524 22.5H13.9403V24.5H16.8524V22.5ZM14.9385 23.4399C14.9287 23.2776 14.9253 23.2777 14.9253 23.2324H12.9253C12.9253 23.3551 12.9399 23.5232 12.9421 23.5601L14.9385 23.4399ZM14.9253 23.232C14.9245 21.0884 14.9248 18.9447 14.9262 16.801L12.9262 16.7997C12.9248 18.9441 12.9245 21.0885 12.9253 23.2328L14.9253 23.232ZM14.9262 16.8003C14.9262 16.759 14.929 16.7087 14.9351 16.6303C14.9404 16.5632 14.9501 16.4541 14.955 16.3511L12.9573 16.2553C12.9543 16.3181 12.949 16.375 12.9413 16.4738C12.9344 16.5613 12.9262 16.6766 12.9262 16.8003H14.9262ZM14.9551 16.3493C14.9639 16.1599 14.9538 15.7407 14.6266 15.393C14.2868 15.0318 13.8501 15.003 13.6217 15.0127L13.7066 17.0109C13.7039 17.011 13.4179 17.027 13.17 16.7635C13.0526 16.6387 12.9988 16.5052 12.9756 16.4119C12.9542 16.3257 12.9568 16.2665 12.9572 16.2572L14.9551 16.3493ZM13.6219 15.0127C13.2664 15.0277 12.9383 15.0163 12.5 15.0163V17.0163C12.8558 17.0163 13.296 17.0282 13.7064 17.0109L13.6219 15.0127ZM13.5 16.0163V13.4852H11.5V16.0163H13.5ZM12.5 14.4852C12.9184 14.4852 13.239 14.4781 13.5785 14.4874L13.6331 12.4881C13.2582 12.4779 12.864 12.4852 12.5 12.4852V14.4852ZM13.5783 14.4874C13.7477 14.492 14.1955 14.4907 14.5566 14.1414C14.9186 13.7911 14.9366 13.341 14.9358 13.1518L12.9358 13.161C12.9361 13.2336 12.9091 12.9525 13.1659 12.7041C13.4216 12.4566 13.7039 12.4901 13.6333 12.4881L13.5783 14.4874ZM14.9358 13.1547C14.9345 12.4037 14.911 11.7977 14.9943 11.1993L13.0134 10.9235C12.9051 11.702 12.9347 12.5111 12.9358 13.1581L14.9358 13.1547ZM14.9943 11.1993C15.0792 10.5901 15.235 10.254 15.4151 10.0566C15.5778 9.87814 15.865 9.69821 16.4796 9.63284L16.2681 7.64406C15.3186 7.74504 14.5193 8.07061 13.9371 8.70906C13.3724 9.32851 13.1252 10.1207 13.0134 10.9234L14.9943 11.1993ZM16.4802 9.63278C17.3187 9.54314 18.1137 9.54713 19.097 9.49879L18.9988 7.50121C18.1512 7.54287 17.1774 7.54686 16.2676 7.64411L16.4802 9.63278ZM18.0479 8.5V11.0969H20.0479V8.5H18.0479ZM19.0479 10.0969C18.8187 10.0969 18.4964 10.0869 18.2143 10.1005L18.3109 12.0982C18.5314 12.0875 18.7137 12.0969 19.0479 12.0969V10.0969ZM18.2161 10.1004C17.8995 10.1152 17.5255 10.1331 17.1477 10.1912L17.4519 12.1679C17.7098 12.1283 17.9823 12.1135 18.3092 12.0982L18.2161 10.1004ZM17.1479 10.1912C16.4583 10.2971 15.96 10.8538 15.9278 11.5519L17.9257 11.644C17.9212 11.7417 17.8825 11.8707 17.7804 11.9846C17.6785 12.0983 17.5531 12.1524 17.4517 12.168L17.1479 10.1912ZM15.9278 11.5514C15.9007 12.1337 15.8908 12.7189 15.8777 13.2777L17.8771 13.3247C17.8907 12.7476 17.9 12.1967 17.9257 11.6444L15.9278 11.5514ZM15.8777 13.2777C15.8737 13.447 15.8987 13.7023 16.0573 13.9525C16.2299 14.2247 16.478 14.3626 16.6814 14.4239C16.8582 14.4772 17.0134 14.4768 17.0721 14.4762C17.1065 14.4759 17.1393 14.4745 17.1512 14.474C17.1697 14.4732 17.1669 14.4735 17.16 14.4735L17.1576 12.4735C17.1198 12.4735 17.0851 12.475 17.071 12.4756C17.0504 12.4764 17.0503 12.4764 17.0521 12.4763C17.0553 12.4763 17.0764 12.4761 17.1075 12.479C17.1383 12.4819 17.1921 12.489 17.2586 12.509C17.4065 12.5536 17.607 12.6615 17.7466 12.8817C17.8721 13.0798 17.8786 13.2607 17.8771 13.3246L15.8777 13.2777ZM17.1602 14.4735C17.6983 14.4727 18.2405 14.4659 18.7682 14.4616L18.7519 12.4617C18.2121 12.4661 17.6867 12.4728 17.1574 12.4735L17.1602 14.4735ZM18.768 14.4616C18.8573 14.4609 18.9372 14.4617 19.0761 14.4617V12.4617C18.9587 12.4617 18.8509 12.4609 18.7521 12.4617L18.768 14.4616Z" fill="#FF540E" mask="url(#path-1-inside-1_22_304)"/>
<rect x="1" y="1" width="29" height="29" stroke="#FF540E"/>
</svg>
