<svg width="31" height="31" viewBox="0 0 31 31" fill="none" xmlns="http://www.w3.org/2000/svg">
<rect x="1" y="1" width="29" height="29" stroke="#FF540E"/>
<path d="M19.7448 8.02285L19.7447 8.02285C19.7016 8.0181 19.6447 8.0075 19.607 8H12.3807C12.2979 8.01416 12.2263 8.02486 12.1611 8.03459C12.0266 8.05468 11.9196 8.07066 11.7988 8.10444L11.7983 8.10459C11.0335 8.3176 10.4403 8.66396 9.99773 9.12984C9.55531 9.59559 9.2406 10.2049 9.06994 10.9793L19.7448 8.02285ZM19.7448 8.02285C20.1196 8.06409 20.4625 8.14415 20.7674 8.28898L20.7681 8.28931M19.7448 8.02285L20.7681 8.28931M20.7681 8.28931C21.5087 8.63975 22.0516 9.09549 22.4137 9.64503C22.775 10.1935 22.9754 10.8645 22.9858 11.6776L22.9858 11.6776M20.7681 8.28931L22.9858 11.6776M22.9858 11.6776C23.0059 13.2381 23.0012 14.7967 22.9964 16.36C22.9945 17.0114 22.9925 17.6636 22.9923 18.317V18.3172M22.9858 11.6776L22.9923 18.3172M22.9923 18.3172C22.9923 18.842 22.908 19.3296 22.7014 19.7684L22.7014 19.7685M22.9923 18.3172L22.7014 19.7685M22.7014 19.7685C22.3539 20.5067 21.9002 21.0488 21.3527 21.4106C20.8062 21.7717 20.1374 21.9725 19.3279 21.9836L19.3278 21.9836M22.7014 19.7685L19.3278 21.9836M19.3278 21.9836C17.7029 22.0062 16.0786 22.0006 14.4494 21.995M19.3278 21.9836L14.4494 21.995M9.0038 18.2719L9.0038 18.272C9.00674 19.5756 9.52711 20.5932 10.586 21.3484L9.0038 18.2719ZM9.0038 18.2719C8.99819 16.0867 8.99879 13.9016 9.0056 11.7165L9.0056 11.7163M9.0038 18.2719L9.0056 11.7163M9.0056 11.7163C9.00632 11.4481 9.02102 11.2015 9.06993 10.9794L9.0056 11.7163ZM15.9979 21.6622H15.9972C14.9098 21.6606 13.8224 21.6608 12.735 21.6628L15.9979 21.6622ZM15.9979 21.6622H16.0043H16.0106H16.0169H16.0233H16.0296H16.036H16.0423H16.0487H16.055H16.0614H16.0677H16.0741H16.0804H16.0868H16.0931H16.0994H16.1058H16.1121H16.1185H16.1248H16.1312H16.1375H16.1439H16.1502H16.1566H16.1629H16.1693H16.1756H16.1819H16.1883H16.1946H16.201H16.2073H16.2137H16.22H16.2264H16.2327H16.2391H16.2454H16.2517H16.2581H16.2644H16.2708H16.2771H16.2835H16.2898H16.2962H16.3025H16.3089H16.3152H16.3216H16.3279H16.3342H16.3406H16.3469H16.3533H16.3596H16.366H16.3723H16.3787H16.385H16.3914H16.3977H16.4041H16.4104H16.4167H16.4231H16.4294H16.4358H16.4421H16.4485H16.4548H16.4612H16.4675H16.4739H16.4802H16.4866H16.4929H16.4992H16.5056H16.5119H16.5183H16.5246H16.531H16.5373H16.5437H16.55H16.5564H16.5627H16.5691H16.5754H16.5817H16.5881H16.5944H16.6008H16.6071H16.6135H16.6198H16.6262H16.6325H16.6389H16.6452H16.6516H16.6579H16.6642H16.6706H16.6769H16.6833H16.6896H16.696H16.7023H16.7087H16.715H16.7214H16.7277H16.734H16.7404H16.7467H16.7531H16.7594H16.7658H16.7721H16.7785H16.7848H16.7912H16.7975H16.8039H16.8102H16.8165H16.8229H16.8292H16.8356H16.8419H16.8483H16.8546H16.861H16.8673H16.8737H16.88H16.8864H16.8927H16.899H16.9054H16.9117H16.9181H16.9244H16.9308H16.9371H16.9435H16.9498H16.9562H16.9625H16.9689H16.9752H16.9815H16.9879H16.9942H17.0006H17.0069H17.0133H17.0196H17.026H17.0323H17.0387H17.045H17.0514H17.0577H17.064H17.0704H17.0767H17.0831H17.0894H17.0958H17.1021H17.1085H17.1148H17.1212H17.1275H17.1339H17.1402H17.1465H17.1529H17.1592H17.1656H17.1719H17.1783H17.1846H17.191H17.1973H17.2037H17.21H17.2164H17.2227H17.229H17.2354H17.2417H17.2481H17.2544H17.2608H17.2671H17.2735H17.2798H17.2862H17.2925H17.2989H17.3052H17.3116H17.3179H17.3242H17.3306H17.3369H17.3433H17.3496H17.356H17.3623H17.3687H17.375H17.3814H17.3877H17.3941H17.4004H17.4067H17.4131H17.4194H17.4258H17.4321H17.4385H17.4448H17.4512H17.4575H17.4639H17.4702H17.4766H17.4829H17.4892H17.4956H17.5019H17.5083H17.5146H17.521H17.5273H17.5337H17.54H17.5464H17.5527H17.5591H17.5654H17.5717H17.5781H17.5844H17.5908H17.5971H17.6035H17.6098H17.6162H17.6225H17.6289H17.6352H17.6416H17.6479H17.6542H17.6606H17.6669H17.6733H17.6796H17.686H17.6923H17.6987H17.705H17.7114H17.7177H17.7241H17.7304H17.7367H17.7431H17.7494H17.7558H17.7621H17.7685H17.7748H17.7812H17.7875H17.7939H17.8002H17.8066H17.8129H17.8193H17.8256H17.8319H17.8383H17.8446H17.851H17.8573H17.8637H17.87H17.8764H17.8827H17.8891H17.8954H17.9018H17.9081H17.9144H17.9208H17.9271H17.9335H17.9398H17.9462H17.9525H17.9589H17.9652H17.9716H17.9779H17.9843H17.9906H17.9969H18.0033H18.0096H18.016H18.0223H18.0287H18.035H18.0414H18.0477H18.0541H18.0604H18.0668H18.0731H18.0794H18.0858H18.0921H18.0985H18.1048H18.1112H18.1175H18.1239H18.1302H18.1366H18.1429H18.1493H18.1556H18.162H18.1683H18.1746H18.181H18.1873H18.1937H18.2H18.2064H18.2127H18.2191H18.2254H18.2318H18.2381H18.2445H18.2508H18.2571H18.2635H18.2698H18.2762H18.2825H18.2889H18.2952H18.3016H18.3079H18.3143H18.3206H18.327H18.3333H18.3397H18.346H18.3523H18.3587H18.365H18.3714H18.3777H18.3841H18.3904H18.3968H18.4031H18.4095H18.4158H18.4222H18.4285H18.4348H18.4412H18.4475H18.4539H18.4602H18.4666H18.4729H18.4793H18.4856H18.492H18.4983H18.5047H18.511H18.5174H18.5237H18.53H18.5364H18.5427H18.5491H18.5554H18.5618H18.5681H18.5745H18.5808H18.5872H18.5935H18.5999H18.6062H18.6125H18.6189H18.6252H18.6316H18.6379H18.6443H18.6506H18.657H18.6633H18.6697H18.676H18.6824H18.6887H18.6951H18.7014H18.7077H18.7141H18.7204H18.7268H18.7331H18.7395H18.7458H18.7522H18.7585H18.7649H18.7712H18.7776H18.7839H18.7902H18.7966H18.8029H18.8093H18.8156H18.822H18.8283H18.8347H18.841H18.8474H18.8537H18.8601H18.8664H18.8728H18.8791H18.8854H18.8918H18.8981H18.9045H18.9108H18.9172H18.9235H18.9299H18.9362H18.9426H18.9489H18.9553H18.9616H18.9679H18.9743H18.9806H18.987H18.9933H18.9997H19.006H19.0124H19.0187H19.0251H19.0314H19.0378H19.0441H19.0505H19.0568H19.0631H19.0695H19.0758H19.0822H19.0885H19.0949H19.1012H19.1076H19.1139H19.1203H19.1266H19.133H19.1393H19.1457H19.152H19.1583H19.1647H19.171H19.1774H19.1837H19.1901H19.1964H19.2028H19.2091H19.2155H19.2218H19.2282H19.2345H19.2408H19.2472C19.6219 21.6622 20.023 21.6245 20.4219 21.4822C21.8114 20.9867 22.6596 19.7741 22.6624 18.2787C22.6665 16.0932 22.6698 13.9056 22.6569 11.7177V11.7176M15.9979 21.6622L22.6569 11.7176M22.6569 11.7176C22.6547 11.35 22.6035 10.9543 22.4794 10.5856L22.4794 10.5855M22.6569 11.7176L22.4794 10.5855M22.4794 10.5855C22.0032 9.17156 20.7652 8.3321 19.2683 8.33019L19.2683 8.33019M22.4794 10.5855L19.2683 8.33019M19.2683 8.33019C19.0909 8.32997 18.9135 8.32974 18.736 8.32951C16.7329 8.32691 14.7277 8.32431 12.7224 8.33606L12.7223 8.33606M19.2683 8.33019L12.7223 8.33606M12.7223 8.33606C12.356 8.33825 11.9601 8.388 11.5905 8.51226C10.1908 8.98079 9.33882 10.2035 9.33324 11.6901L9.33324 11.6901M12.7223 8.33606L9.33324 11.6901M9.33324 11.6901C9.32502 13.8915 9.32467 16.0929 9.33219 18.2944M9.33324 11.6901L9.33219 18.2944M14.4494 21.995C13.8538 21.9929 13.2576 21.9909 12.6604 21.9902L14.4494 21.995ZM9.33219 18.2944C9.33438 19.4263 9.79806 20.3672 10.7209 21.0426C11.3321 21.49 12.0229 21.6642 12.735 21.6628L9.33219 18.2944ZM12.6604 21.9902C11.8924 21.9892 11.1969 21.7839 10.5861 21.3484L12.6604 21.9902Z" fill="#FF540E" stroke="#FF540E"/>
<path d="M15.9924 11.9657C17.6631 11.9607 19.0223 13.3199 19.0273 14.9918C19.0324 16.6623 17.6733 18.0218 16.0012 18.0267C14.3304 18.0315 12.9714 16.6725 12.9665 15.0006L15.9924 11.9657ZM15.9924 11.9657C14.3206 11.9708 12.9615 13.3298 12.9665 15.0006L15.9998 17.5267C17.3974 17.5226 18.5315 16.386 18.5273 14.9933C18.5231 13.5958 17.3866 12.4615 15.9939 12.4657L15.9924 11.9657ZM15.9989 18.3596C14.1556 18.3627 12.6329 16.8405 12.6338 14.9956C12.6347 13.1501 14.1593 11.6277 16.0005 11.6328C17.8442 11.6379 19.3532 13.1447 19.3602 14.9917C19.3673 16.8316 17.8482 18.3564 15.9989 18.3596Z" fill="#FF540E" stroke="#FF540E"/>
<path d="M20.0222 10.5107C19.8967 10.5114 19.7766 10.5612 19.6875 10.6495C19.5985 10.7378 19.5477 10.8574 19.5459 10.9827C19.5437 11.2309 19.7615 11.4549 20.0227 11.4544L20.0222 10.5107ZM20.0222 10.5107C20.2847 10.5102 20.5004 10.7332 20.4972 10.981C20.4938 11.2418 20.2771 11.4539 20.0227 11.4544L20.0222 10.5107Z" fill="#FF540E" stroke="#FF540E"/>
</svg>
