<svg width="31" height="31" viewBox="0 0 31 31" fill="none" xmlns="http://www.w3.org/2000/svg">
<rect x="1" y="1" width="29" height="29" fill="#FF540E" stroke="#FF540E"/>
<path d="M19.8313 22.4977C19.8313 20.6866 19.8387 18.907 19.8253 17.1276C19.8225 16.7595 19.7818 16.3821 19.6911 16.0261C19.3035 14.5047 17.6072 14.6017 16.9172 15.2933C16.4899 15.7215 16.2955 16.2221 16.2996 16.8288C16.3112 18.5854 16.3018 20.3423 16.3007 22.0989C16.3007 22.2247 16.3007 22.3504 16.3007 22.5006H12.9316V12.4133H16.2776V13.7906C16.481 13.5507 16.634 13.3725 16.7848 13.1921C18.1435 11.5656 22.0645 11.6104 22.9495 14.8266C23.1138 15.4319 23.2024 16.0553 23.2131 16.6825C23.2467 18.5554 23.2253 20.4292 23.2245 22.3028C23.2245 22.359 23.2145 22.4155 23.2066 22.498L19.8313 22.4977Z" fill="white"/>
<path d="M7.69995 22.496V12.4072H11.0376V22.496H7.69995Z" fill="white"/>
<path d="M7.5 9.25676C7.50094 8.21254 8.28851 7.49035 9.41603 7.5001C10.5005 7.50953 11.2924 8.26267 11.2902 9.28285C11.288 10.2765 10.476 11.0117 9.36966 11.0219C8.28395 11.0318 7.49921 10.2908 7.5 9.25676Z" fill="white"/>
</svg>
