<svg width="31" height="31" viewBox="0 0 31 31" fill="none" xmlns="http://www.w3.org/2000/svg">
<path d="M22.9999 6.10001C21.0108 4.11089 18.313 2.99341 15.4999 2.99341C12.6869 2.99341 9.98904 4.11089 7.99991 6.10001C6.01079 8.08913 4.89331 10.787 4.89331 13.6C4.89331 16.4131 6.01079 19.1109 7.99991 21.1L14.5874 27.7C14.7036 27.8172 14.8419 27.9102 14.9942 27.9736C15.1465 28.0371 15.3099 28.0698 15.4749 28.0698C15.6399 28.0698 15.8033 28.0371 15.9556 27.9736C16.108 27.9102 16.2462 27.8172 16.3624 27.7L22.9999 21.0375C24.9807 19.0567 26.0935 16.3701 26.0935 13.5688C26.0935 10.7674 24.9807 8.08086 22.9999 6.10001ZM21.2124 19.25L15.4999 24.9875L9.78741 19.25C8.65884 18.1204 7.89051 16.6816 7.57953 15.1154C7.26855 13.5492 7.4289 11.9259 8.04029 10.4509C8.65169 8.97578 9.68668 7.71507 11.0145 6.82811C12.3422 5.94114 13.9031 5.46774 15.4999 5.46774C17.0967 5.46774 18.6576 5.94114 19.9854 6.82811C21.3131 7.71507 22.3481 8.97578 22.9595 10.4509C23.5709 11.9259 23.7313 13.5492 23.4203 15.1154C23.1093 16.6816 22.341 18.1204 21.2124 19.25ZM11.7499 9.76251C10.7408 10.7747 10.1742 12.1457 10.1742 13.575C10.1742 15.0043 10.7408 16.3753 11.7499 17.3875C12.4996 18.1385 13.4544 18.6514 14.4945 18.8618C15.5346 19.0722 16.6136 18.9707 17.5963 18.5702C18.5789 18.1697 19.4214 17.4879 20.018 16.6103C20.6146 15.7328 20.9388 14.6986 20.9499 13.6375C20.9555 12.929 20.8191 12.2266 20.5485 11.5717C20.278 10.9169 19.8789 10.323 19.3749 9.82501C18.8795 9.31823 18.2888 8.91443 17.6367 8.63684C16.9846 8.35925 16.2841 8.21335 15.5754 8.20755C14.8667 8.20174 14.1639 8.33613 13.5074 8.60299C12.8508 8.86986 12.2536 9.26392 11.7499 9.76251ZM17.6124 15.6125C17.1387 16.0934 16.5127 16.3949 15.8413 16.4653C15.17 16.5358 14.495 16.3708 13.9318 15.9987C13.3686 15.6265 12.9522 15.0703 12.7537 14.4251C12.5552 13.7799 12.587 13.0858 12.8436 12.4615C13.1002 11.8371 13.5658 11.3213 14.1606 11.0022C14.7555 10.6831 15.4427 10.5805 16.1048 10.712C16.7669 10.8435 17.3628 11.201 17.7905 11.7232C18.2183 12.2454 18.4514 12.9 18.4499 13.575C18.4317 14.3466 18.108 15.0794 17.5499 15.6125H17.6124Z" fill="#FF540E"/>
</svg>
