<svg width="31" height="30" viewBox="0 0 31 30" fill="none" xmlns="http://www.w3.org/2000/svg">
<path d="M28 21.1501V24.9001C28.0015 25.2482 27.9301 25.5928 27.7907 25.9118C27.6512 26.2308 27.4467 26.5171 27.1901 26.7525C26.9336 26.9878 26.6308 27.167 26.301 27.2785C25.9712 27.39 25.6218 27.4315 25.275 27.4001C21.4286 26.9822 17.7338 25.6678 14.4875 23.5626C11.4673 21.6435 8.90671 19.0828 6.98754 16.0626C4.87501 12.8016 3.56034 9.08886 3.15004 5.22512C3.1188 4.87945 3.15988 4.53107 3.27066 4.20215C3.38145 3.87323 3.5595 3.57098 3.7935 3.31465C4.02749 3.05831 4.31229 2.85351 4.62978 2.71327C4.94726 2.57304 5.29046 2.50045 5.63754 2.50012H9.38754C9.99417 2.49415 10.5823 2.70897 11.0422 3.10454C11.5022 3.5001 11.8026 4.04943 11.8875 4.65012C12.0458 5.8502 12.3394 7.02853 12.7625 8.16262C12.9307 8.61003 12.9671 9.09626 12.8674 9.56372C12.7677 10.0312 12.5361 10.4603 12.2 10.8001L10.6125 12.3876C12.392 15.5171 14.9831 18.1082 18.1125 19.8876L19.7 18.3001C20.0399 17.964 20.469 17.7324 20.9364 17.6327C21.4039 17.533 21.8901 17.5694 22.3375 17.7376C23.4716 18.1608 24.65 18.4543 25.85 18.6126C26.4572 18.6983 27.0118 19.0041 27.4082 19.472C27.8046 19.9398 28.0152 20.5371 28 21.1501Z" stroke="#FF540E" stroke-width="2" stroke-linecap="round" stroke-linejoin="round"/>
</svg>
