<svg width="31" height="31" viewBox="0 0 31 31" fill="none" xmlns="http://www.w3.org/2000/svg">
<path d="M13.3388 18.8694L12.337 19.648C11.5081 20.2923 10.5618 20.769 9.55085 21.0518C9.19043 21.153 8.82836 21.2271 8.46351 21.276C8.76576 21.3964 9.07405 21.502 9.38734 21.5924C10.8169 22.0034 12.2706 22.097 13.7524 21.9029C15.3237 21.6962 16.7708 21.199 18.0297 20.2923L18.0299 20.2922C21.0687 18.1056 22.5325 15.1258 22.5366 11.3796L22.5366 11.379C22.5369 11.235 22.5832 11.1113 22.6262 11.0269C22.6709 10.9392 22.7343 10.8502 22.8148 10.7768M13.3388 18.8694L9.24917 22.0729C10.7483 22.504 12.2713 22.6011 13.8173 22.3987C15.453 22.1835 16.9828 21.6625 18.3219 20.6981C21.4965 18.4138 23.0324 15.2803 23.0366 11.3801C23.0368 11.3008 23.0914 11.201 23.1522 11.1458C23.261 11.0458 23.3746 10.9506 23.4881 10.8554C23.6603 10.7111 23.8323 10.5669 23.9876 10.4059M13.3388 18.8694L12.0752 18.7553C11.2885 18.6842 10.6628 18.4535 10.1661 18.0801C9.85113 17.8433 9.5755 17.5397 9.34065 17.1609M13.3388 18.8694L9.34065 17.1609M22.8148 10.7768C22.8151 10.7765 22.8155 10.7762 22.8158 10.7759L23.1522 11.1458L22.8138 10.7777C22.8141 10.7774 22.8145 10.7771 22.8148 10.7768ZM22.8148 10.7768C22.9327 10.6685 23.0572 10.5642 23.1712 10.4686C23.1994 10.445 23.2269 10.4219 23.2536 10.3994C23.312 10.3501 23.3676 10.3026 23.4205 10.2557M23.4205 10.2557C23.5342 10.2349 23.6466 10.2113 23.758 10.185L23.9876 10.4059M23.4205 10.2557C23.2469 10.2874 23.0706 10.3123 22.8913 10.3294L21.0028 10.51L22.557 9.42209C22.7891 9.25963 22.997 9.08379 23.1799 8.89035M23.4205 10.2557C23.4946 10.1899 23.5635 10.1253 23.6277 10.0588L23.1799 8.89035M23.9876 10.4059C24.1061 10.2828 24.2199 10.1551 24.3314 10.0253C24.1436 10.0854 23.9528 10.1391 23.7585 10.1849L23.9876 10.4059ZM9.34065 17.1609C9.65638 17.1544 9.97757 17.1156 10.308 17.024L12.1191 16.522L10.2979 16.0577C8.7494 15.6629 7.99622 14.5019 7.77919 13.56C8.11709 13.6632 8.47856 13.7276 8.8765 13.7372L10.4787 13.7761L9.1828 12.8331C8.33809 12.2184 7.87515 11.4541 7.7517 10.4925L9.34065 17.1609ZM7.88204 9.10193C7.73367 9.55159 7.69063 10.0135 7.75168 10.4924L7.88204 9.10193ZM7.88204 9.10193C9.92853 11.2474 12.4629 12.4458 15.4762 12.6478L16.0289 12.6848L16.0093 12.1313C16.0044 11.99 15.9976 11.8611 15.9912 11.7394C15.9787 11.5008 15.9677 11.2896 15.9741 11.0662L15.9741 11.0661C16.0119 9.74689 17.0501 8.45402 18.333 8.12712L18.3331 8.12708C19.5713 7.81117 20.6285 8.08236 21.5652 8.95747L21.566 8.9582C21.6692 9.05422 21.79 9.10451 21.8816 9.12988C21.9734 9.15532 22.1013 9.17383 22.2371 9.14608L7.88204 9.10193ZM23.1799 8.89035C22.8718 8.99534 22.557 9.08082 22.2371 9.14607L23.1799 8.89035Z" fill="#FF540E" stroke="#FF540E"/>
<rect x="1" y="1" width="29" height="29" stroke="#FF540E"/>
</svg>
