<svg width="382" height="272" viewBox="0 0 382 272" fill="none" xmlns="http://www.w3.org/2000/svg">
<rect width="382" height="272" fill="white"/>
<path d="M324 236.922H58V237.067H324V236.922Z" fill="#EBEBEB"/>
<path d="M275.944 246.354H267.135V246.5H275.944V246.354Z" fill="#EBEBEB"/>
<path d="M253.244 244.243H233.129V244.388H253.244V244.243Z" fill="#EBEBEB"/>
<path d="M235.731 240.882H198.98V241.027H235.731V240.882Z" fill="#EBEBEB"/>
<path d="M92.66 241.859H85.9089V242.004H92.66V241.859Z" fill="#EBEBEB"/>
<path d="M116.993 241.859H97.3999V242.004H116.993V241.859Z" fill="#EBEBEB"/>
<path d="M170.71 244.313H139.04V244.459H170.71V244.313Z" fill="#EBEBEB"/>
<path d="M184.084 210.987H81.3603C80.5555 210.985 79.7843 210.635 79.2157 210.012C78.6472 209.39 78.3279 208.546 78.3279 207.667V49.826C78.3349 48.9515 78.6573 48.1152 79.2251 47.4989C79.7928 46.8827 80.5601 46.5362 81.3603 46.5347H184.084C184.89 46.5347 185.662 46.8845 186.232 47.5072C186.802 48.1299 187.122 48.9745 187.122 49.8551V207.667C187.122 208.547 186.802 209.392 186.232 210.014C185.662 210.637 184.89 210.987 184.084 210.987ZM81.3603 46.651C80.5908 46.6525 79.8534 46.9877 79.3098 47.583C78.7662 48.1783 78.4609 48.985 78.4609 49.826V207.667C78.4609 208.508 78.7662 209.314 79.3098 209.91C79.8534 210.505 80.5908 210.84 81.3603 210.842H184.084C184.854 210.84 185.592 210.505 186.137 209.91C186.681 209.315 186.987 208.508 186.989 207.667V49.826C186.987 48.9844 186.681 48.1777 186.137 47.5826C185.592 46.9875 184.854 46.6525 184.084 46.651H81.3603Z" fill="#EBEBEB"/>
<path d="M299.161 210.987H196.432C195.626 210.985 194.854 210.635 194.285 210.013C193.716 209.39 193.395 208.547 193.394 207.667V49.826C193.402 48.9509 193.726 48.1147 194.294 47.4986C194.863 46.8825 195.631 46.5361 196.432 46.5347H299.161C299.96 46.5377 300.726 46.8849 301.293 47.501C301.859 48.1171 302.181 48.9525 302.188 49.826V207.667C302.188 208.545 301.869 209.388 301.302 210.01C300.734 210.633 299.965 210.984 299.161 210.987ZM196.432 46.651C195.662 46.6525 194.924 46.9875 194.379 47.5826C193.835 48.1777 193.528 48.9844 193.527 49.826V207.667C193.528 208.508 193.835 209.315 194.379 209.91C194.924 210.505 195.662 210.84 196.432 210.842H299.161C299.931 210.84 300.669 210.505 301.213 209.91C301.758 209.315 302.064 208.508 302.065 207.667V49.826C302.064 48.9844 301.758 48.1777 301.213 47.5826C300.669 46.9875 299.931 46.6525 299.161 46.651H196.432Z" fill="#EBEBEB"/>
<path d="M193.905 14.5508H182.435V236.922H193.905V14.5508Z" fill="#F5F5F5"/>
<path d="M193.905 236.922H195.517L195.517 14.5507H193.905L193.905 236.922Z" fill="#E0E0E0"/>
<path d="M132.038 214.522H71.5659C71.5659 213.555 71.7403 212.597 72.0791 211.703C72.4179 210.81 72.9145 209.998 73.5405 209.314C74.1664 208.631 74.9095 208.089 75.7273 207.719C76.5451 207.349 77.4214 207.159 78.3064 207.16H132.038V214.522Z" fill="#E6E6E6"/>
<path d="M136.47 214.522H110.045C110.045 213.555 110.22 212.597 110.559 211.703C110.897 210.81 111.394 209.998 112.02 209.314C112.646 208.631 113.389 208.089 114.207 207.719C115.025 207.349 115.901 207.159 116.786 207.16H136.47V214.522Z" fill="#E0E0E0"/>
<path d="M174.29 214.522H113.817C113.817 213.555 113.992 212.597 114.331 211.703C114.669 210.81 115.166 209.998 115.792 209.314C116.418 208.631 117.161 208.089 117.979 207.719C118.797 207.349 119.673 207.159 120.558 207.16H174.29V214.522Z" fill="#E6E6E6"/>
<path d="M178.722 214.522H152.297C152.297 213.555 152.472 212.597 152.81 211.703C153.149 210.81 153.646 209.998 154.272 209.314C154.898 208.631 155.641 208.089 156.459 207.719C157.276 207.349 158.153 207.159 159.038 207.16H178.722V214.522Z" fill="#E0E0E0"/>
<path d="M260.16 214.522H199.666C199.666 213.553 199.841 212.593 200.181 211.698C200.522 210.803 201.02 209.99 201.648 209.306C202.277 208.622 203.022 208.081 203.842 207.712C204.663 207.344 205.541 207.156 206.428 207.16H260.16V214.522Z" fill="#E6E6E6"/>
<path d="M264.57 214.522H238.146C238.146 213.555 238.32 212.597 238.659 211.703C238.998 210.81 239.494 209.998 240.12 209.314C240.746 208.631 241.489 208.089 242.307 207.719C243.125 207.349 244.001 207.159 244.886 207.16H264.57V214.522Z" fill="#E0E0E0"/>
<path d="M285.919 191.523H259.138L262.91 236.922H282.147L285.919 191.523Z" fill="#EBEBEB"/>
<path d="M272.263 199.094C271.774 180.311 275.79 141.426 282.977 125.608L283.451 125.864C276.535 141.053 272.279 180.137 272.811 199.077L272.263 199.094Z" fill="#EBEBEB"/>
<path d="M274.923 162.117C274.923 162.117 273.162 143.933 266.661 138.356C263.176 149.835 270.316 153.789 274.923 162.117Z" fill="#EBEBEB"/>
<path d="M274.923 162.408C274.877 162.407 274.832 162.394 274.792 162.37C274.752 162.346 274.719 162.311 274.694 162.268C273.519 160.231 272.218 158.284 270.8 156.441C267.039 151.318 263.788 146.887 266.406 138.269C266.419 138.225 266.442 138.185 266.473 138.153C266.503 138.12 266.541 138.096 266.581 138.083C266.622 138.069 266.665 138.066 266.706 138.074C266.748 138.082 266.787 138.101 266.821 138.129C273.338 143.724 275.109 161.343 275.179 162.094C275.186 162.158 275.173 162.224 275.141 162.28C275.109 162.335 275.06 162.376 275.003 162.396L274.923 162.408ZM266.794 138.85C264.491 146.904 267.613 151.161 271.22 156.075C272.322 157.575 273.455 159.116 274.503 160.855C273.992 156.691 271.917 143.648 266.794 138.85Z" fill="#EBEBEB"/>
<path d="M275.886 155.225C275.886 155.225 282.802 138.414 290.59 135.454C290.484 147.532 282.711 148.98 275.886 155.225Z" fill="#EBEBEB"/>
<path d="M275.886 155.516C275.842 155.517 275.798 155.505 275.759 155.482C275.72 155.459 275.687 155.426 275.663 155.385C275.639 155.344 275.625 155.298 275.622 155.249C275.619 155.201 275.628 155.153 275.647 155.109C275.928 154.417 282.68 138.146 290.5 135.163C290.54 135.147 290.584 135.141 290.626 135.147C290.669 135.154 290.709 135.171 290.745 135.198C290.779 135.225 290.807 135.261 290.826 135.303C290.845 135.344 290.856 135.39 290.856 135.436C290.782 144.618 286.377 147.759 281.28 151.387C279.471 152.629 277.732 153.988 276.072 155.458C276.018 155.499 275.952 155.519 275.886 155.516ZM290.319 135.861C284.031 138.617 278.317 150.445 276.631 154.202C278.083 152.969 279.551 151.922 280.982 150.905C285.877 147.415 290.112 144.403 290.319 135.861Z" fill="#EBEBEB"/>
<path d="M272.683 187.708C272.683 187.708 270.023 162.412 261.948 155.725C257.904 169.873 266.879 177.624 272.683 187.708Z" fill="#EBEBEB"/>
<path d="M272.683 188.063C272.628 188.065 272.574 188.05 272.526 188.022C272.477 187.993 272.436 187.951 272.407 187.901C271.167 185.743 269.747 183.667 268.401 181.661C263.262 174.066 258.41 166.902 261.634 155.627C261.649 155.572 261.677 155.522 261.714 155.482C261.751 155.441 261.797 155.411 261.847 155.394C261.897 155.377 261.95 155.374 262.002 155.384C262.054 155.394 262.103 155.417 262.145 155.452C270.231 162.145 272.896 186.627 273.008 187.668C273.016 187.749 272.999 187.83 272.959 187.898C272.919 187.967 272.86 188.019 272.79 188.046C272.755 188.057 272.72 188.063 272.683 188.063ZM262.118 156.342C259.277 166.983 263.964 173.909 268.922 181.236C269.986 182.841 271.125 184.487 272.167 186.191C271.444 180.696 268.576 162.256 262.118 156.342Z" fill="#EBEBEB"/>
<path d="M273.615 174.073C273.615 174.073 282.611 156.046 292.107 152.219C292.229 167.03 281.845 166.263 273.615 174.073Z" fill="#EBEBEB"/>
<path d="M273.614 174.427C273.538 174.428 273.465 174.399 273.407 174.345C273.347 174.293 273.307 174.219 273.292 174.137C273.278 174.055 273.29 173.97 273.327 173.897C273.694 173.159 282.493 155.719 291.995 151.887C292.044 151.868 292.097 151.861 292.149 151.869C292.201 151.876 292.25 151.897 292.293 151.929C292.337 151.961 292.372 152.005 292.397 152.055C292.422 152.105 292.435 152.161 292.436 152.219C292.522 162.622 287.515 165.506 281.722 168.844C279.089 170.362 276.37 171.926 273.827 174.339C273.768 174.395 273.692 174.426 273.614 174.427ZM291.782 152.742C284.361 156.091 277.221 168.135 274.758 172.577C276.857 170.926 279.078 169.467 281.397 168.216C286.925 165.041 291.692 162.29 291.782 152.742Z" fill="#EBEBEB"/>
<path d="M277.849 143.723C277.849 143.723 276.626 131.04 272.088 127.15C269.656 135.157 274.636 137.92 277.849 143.723Z" fill="#EBEBEB"/>
<path d="M277.849 143.927C277.818 143.926 277.787 143.917 277.76 143.899C277.733 143.882 277.711 143.857 277.695 143.828C276.873 142.407 275.967 141.047 274.982 139.757C272.354 136.181 270.087 133.093 271.912 127.08C271.922 127.049 271.938 127.021 271.959 126.998C271.98 126.974 272.006 126.957 272.034 126.946C272.063 126.938 272.094 126.936 272.123 126.942C272.153 126.948 272.181 126.962 272.205 126.981C276.748 130.883 277.987 143.176 278.057 143.7C278.061 143.745 278.052 143.79 278.029 143.828C278.007 143.866 277.973 143.895 277.934 143.909C277.908 143.925 277.878 143.931 277.849 143.927ZM272.183 127.493C270.587 133.116 272.753 136.082 275.269 139.507C276.04 140.554 276.828 141.635 277.562 142.845C277.184 139.943 275.753 130.854 272.183 127.493Z" fill="#EBEBEB"/>
<path d="M279.961 135.181C279.961 135.181 284.749 123.457 290.218 121.375C290.148 129.813 284.722 130.854 279.961 135.181Z" fill="#EBEBEB"/>
<path d="M279.961 135.384C279.921 135.385 279.881 135.371 279.85 135.343C279.817 135.315 279.793 135.276 279.783 135.232C279.772 135.188 279.775 135.141 279.791 135.099C279.993 134.616 284.701 123.271 290.154 121.183C290.181 121.169 290.21 121.162 290.24 121.162C290.269 121.162 290.298 121.169 290.325 121.183C290.35 121.202 290.371 121.227 290.385 121.256C290.399 121.286 290.406 121.319 290.404 121.352C290.351 127.749 287.276 129.941 283.717 132.476C282.454 133.339 281.241 134.284 280.084 135.308C280.069 135.329 280.051 135.347 280.029 135.36C280.008 135.373 279.985 135.381 279.961 135.384ZM290.027 121.672C285.643 123.597 281.653 131.848 280.477 134.465C281.493 133.605 282.52 132.878 283.515 132.139C286.931 129.738 289.888 127.632 290.027 121.672Z" fill="#EBEBEB"/>
<path d="M140.992 127.76C135.933 127.371 133.746 128.016 131.56 123.044C129.373 118.072 121.744 115.403 119.265 119.741C116.786 124.079 115.892 127.091 110.157 124.521C104.422 121.951 102.534 123.818 101.704 127.243C100.874 130.668 87.7547 129.016 91.5958 133.913H140.189C140.189 133.913 146.073 128.15 140.992 127.76Z" fill="#F5F5F5"/>
<path d="M291.441 101.197C288.579 100.976 287.345 101.342 286.121 98.5278C284.898 95.7132 280.567 94.2013 279.163 96.6553C277.758 99.1093 277.258 100.819 274.013 99.3593C270.768 97.8997 269.699 98.9639 269.225 100.9C268.752 102.837 261.33 101.906 263.506 104.674H291.016C291.016 104.674 294.304 101.395 291.441 101.197Z" fill="#F5F5F5"/>
<path d="M257.192 32.9969C255.771 30.4732 251.712 29.6358 248.084 31.5955C244.455 33.5552 246.924 21.2736 240.136 23.3322C230.443 26.2746 233.14 35.0613 229.102 34.2588C225.064 33.4563 213.222 35.6079 219.483 39.9984H255.314C255.314 39.9984 258.607 35.5149 257.192 32.9969Z" fill="#F5F5F5"/>
<path d="M102.257 14.5513H101.337V87.543H102.257V14.5513Z" fill="#407BFF"/>
<path d="M156.319 14.5513H155.399V87.543H156.319V14.5513Z" fill="#407BFF"/>
<path d="M166.783 60.3687H90.8774V79.2446H166.783V60.3687Z" fill="#407BFF"/>
<path opacity="0.3" d="M166.783 60.3687H90.8774V79.2446H166.783V60.3687Z" fill="white"/>
<path d="M100.182 68.3814L98.3043 66.3286H95.7028L97.9638 68.8001H93.4045V70.8121H97.9691L95.7028 73.2835H98.3043L100.182 71.225L101.48 69.8003L100.182 68.3814Z" fill="white"/>
<path opacity="0.7" d="M162.432 67.0503H135.146V72.5631H162.432V67.0503Z" fill="#407BFF"/>
<path opacity="0.7" d="M131.022 67.0503H119.334V72.5631H131.022V67.0503Z" fill="#407BFF"/>
<path d="M115.041 64.1831H104.747V75.4354H115.041V64.1831Z" fill="white"/>
<path d="M113.86 67.0503H113.498C113.286 67.0677 113.08 67.1309 112.891 67.2364L111.295 68.1086L108.306 67.562C108.052 67.5269 107.795 67.5733 107.566 67.6958L107.279 67.8412L109.231 69.3356L107.417 70.2661L106.215 69.8881L105.683 70.1672L107.087 71.3302L110.056 69.795L111.732 68.8879L113.418 68.004C113.542 67.9364 113.658 67.8524 113.764 67.7539C113.861 67.6654 113.945 67.5615 114.014 67.4457C114.041 67.4119 114.059 67.3705 114.065 67.3261C114.072 67.2818 114.067 67.2363 114.051 67.1949C114.035 67.1536 114.008 67.1181 113.974 67.0925C113.94 67.0669 113.901 67.0523 113.86 67.0503Z" fill="#263238"/>
<path d="M114.333 73.144H105.449V74.0861H114.333V73.144Z" fill="#263238"/>
<path d="M166.783 84.8564H90.8774V103.732H166.783V84.8564Z" fill="#407BFF"/>
<path opacity="0.3" d="M166.783 84.8564H90.8774V103.732H166.783V84.8564Z" fill="white"/>
<path d="M94.7026 92.8692L96.5859 90.8164H99.1874L96.9211 93.2878H101.48V95.2941H96.9211L99.1874 97.7713H96.5859L94.7026 95.7128L93.4045 94.288L94.7026 92.8692Z" fill="white"/>
<path opacity="0.7" d="M162.432 91.5376H135.146V97.0504H162.432V91.5376Z" fill="#407BFF"/>
<path opacity="0.7" d="M131.022 91.5376H119.334V97.0504H131.022V91.5376Z" fill="#407BFF"/>
<path d="M115.041 88.6655H104.747V99.9178H115.041V88.6655Z" fill="white"/>
<path d="M113.86 91.5376H113.498C113.287 91.5532 113.081 91.6144 112.891 91.7179L111.295 92.5901L108.306 92.0493C108.053 92.015 107.797 92.0593 107.566 92.1773L107.279 92.3285L109.231 93.8171L107.417 94.7534L106.215 94.3754L105.683 94.6545L107.087 95.8175L110.045 94.2649L111.737 93.3752L113.434 92.4738C113.56 92.4063 113.676 92.3202 113.78 92.218C113.876 92.128 113.96 92.0244 114.03 91.9098C114.052 91.8747 114.065 91.8339 114.067 91.7916C114.07 91.7493 114.062 91.707 114.045 91.6691C114.027 91.6312 114.001 91.599 113.969 91.5759C113.936 91.5528 113.898 91.5396 113.86 91.5376Z" fill="#263238"/>
<path d="M114.333 97.6265H105.449V98.5685H114.333V97.6265Z" fill="#263238"/>
<path d="M231.985 78.826L227.66 75.9998L230.176 75.459L236.879 76.9128L231.985 78.826Z" fill="#407BFF"/>
<path opacity="0.3" d="M231.985 78.826L227.66 75.9998L230.176 75.459L236.879 76.9128L231.985 78.826Z" fill="#263238"/>
<path d="M261.905 70.1612L256.644 62.9388L258.591 62.5259C260.17 62.189 261.804 62.3566 263.299 63.0086L273.46 67.4688L261.905 70.1612Z" fill="#407BFF"/>
<path opacity="0.3" d="M261.905 70.1612L256.644 62.9388L258.591 62.5259C260.17 62.189 261.804 62.3566 263.299 63.0086L273.46 67.4688L261.905 70.1612Z" fill="#263238"/>
<path d="M289.495 64.9861L287.931 64.5616C286.416 64.1259 284.829 64.0841 283.297 64.4395L231.773 77.2328L231.289 79.6577L233.3 81.2278L285.436 70.0685C287.144 69.7029 288.735 68.8571 290.053 67.6145C290.255 67.4385 290.408 67.2036 290.493 66.9369C290.577 66.6702 290.591 66.3826 290.533 66.1076C290.475 65.8325 290.346 65.5812 290.162 65.3827C289.978 65.1842 289.747 65.0467 289.495 64.9861Z" fill="#407BFF"/>
<path d="M257.987 82.6548L235.429 87.896L235.487 88.1975L258.046 82.9563L257.987 82.6548Z" fill="#407BFF"/>
<path d="M255.069 66.811L240.369 70.2266L240.428 70.528L255.128 67.1125L255.069 66.811Z" fill="#407BFF"/>
<path d="M231.216 88.8785L225.174 90.2822L225.233 90.5837L231.274 89.18L231.216 88.8785Z" fill="#407BFF"/>
<path opacity="0.3" d="M284.132 69.068L233.214 80.9251C232.979 80.9752 232.754 81.0697 232.549 81.2042C232.799 81.2409 233.053 81.231 233.299 81.1752L285.435 70.0217C286.287 69.8378 287.113 69.5349 287.893 69.1204L288.085 69.0215C286.778 68.7475 285.433 68.7634 284.132 69.068Z" fill="#263238"/>
<path d="M231.288 79.6113L229.98 85.6532L232.496 85.1124L237.077 78.5762L231.288 79.6113Z" fill="#407BFF"/>
<path d="M231.773 77.186L228.719 71.1441L231.065 70.6382L237.837 75.8893L231.773 77.186Z" fill="#407BFF"/>
<path d="M262.362 72.7024L261.517 90.1478C262.71 89.8927 263.837 89.3556 264.821 88.5741C265.804 87.7926 266.619 86.7856 267.209 85.6237L275.162 69.9751L262.362 72.7024Z" fill="#407BFF"/>
<g opacity="0.5">
<path d="M249.128 74.8236L248.487 74.9673L248.727 76.249L249.368 76.1053L249.128 74.8236Z" fill="white"/>
<path d="M250.423 74.5542L249.782 74.6978L250.023 75.9795L250.664 75.8359L250.423 74.5542Z" fill="white"/>
<path d="M251.721 74.2632L251.08 74.4067L251.321 75.6885L251.962 75.5449L251.721 74.2632Z" fill="white"/>
<path d="M253.02 73.9721L252.379 74.1157L252.619 75.3975L253.26 75.2539L253.02 73.9721Z" fill="white"/>
<path d="M254.318 73.6816L253.677 73.8252L253.917 75.107L254.558 74.9634L254.318 73.6816Z" fill="white"/>
<path d="M255.616 73.3911L254.975 73.5347L255.215 74.8164L255.856 74.6729L255.616 73.3911Z" fill="white"/>
<path d="M256.919 73.0996L256.278 73.2432L256.518 74.5249L257.159 74.3814L256.919 73.0996Z" fill="white"/>
<path d="M258.219 72.787L257.578 72.9307L257.819 74.2124L258.46 74.0687L258.219 72.787Z" fill="white"/>
<path d="M259.515 72.519L258.874 72.6626L259.114 73.9444L259.755 73.8008L259.515 72.519Z" fill="white"/>
<path d="M260.812 72.2221L260.171 72.3657L260.411 73.6475L261.052 73.5039L260.812 72.2221Z" fill="white"/>
<path d="M262.115 71.9251L261.469 72.0698L261.709 73.3516L262.356 73.2069L262.115 71.9251Z" fill="white"/>
<path d="M263.408 71.6411L262.767 71.7847L263.007 73.0664L263.648 72.9229L263.408 71.6411Z" fill="white"/>
<path d="M264.708 71.3275L264.067 71.4712L264.307 72.7529L264.948 72.6092L264.708 71.3275Z" fill="white"/>
<path d="M266.015 71.0515L265.368 71.1963L265.609 72.4781L266.255 72.3333L266.015 71.0515Z" fill="white"/>
<path d="M267.313 70.7674L266.667 70.9121L266.907 72.1939L267.553 72.0491L267.313 70.7674Z" fill="white"/>
<path d="M268.606 70.4785L267.965 70.6221L268.205 71.9038L268.846 71.7603L268.606 70.4785Z" fill="white"/>
<path d="M269.909 70.18L269.262 70.3247L269.503 71.6065L270.149 71.4617L269.909 70.18Z" fill="white"/>
<path d="M271.207 69.8963L270.561 70.041L270.801 71.3228L271.447 71.178L271.207 69.8963Z" fill="white"/>
<path d="M272.499 69.6069L271.858 69.7505L272.099 71.0323L272.74 70.8887L272.499 69.6069Z" fill="white"/>
<path d="M273.804 69.2899L273.163 69.4336L273.403 70.7153L274.044 70.5716L273.804 69.2899Z" fill="white"/>
<path d="M275.106 69.0227L274.46 69.1675L274.7 70.4493L275.346 70.3045L275.106 69.0227Z" fill="white"/>
<path d="M276.404 68.7334L275.763 68.877L276.004 70.1587L276.645 70.0152L276.404 68.7334Z" fill="white"/>
</g>
<path opacity="0.5" d="M289.495 64.9853L287.93 64.5608C287.723 64.5027 287.51 64.4445 287.292 64.4038L284.988 64.8923C284.833 64.9254 284.696 65.0246 284.608 65.168C284.52 65.3114 284.487 65.4873 284.518 65.657C284.548 65.8266 284.639 65.9762 284.77 66.0727C284.901 66.1692 285.062 66.2048 285.217 66.1716L289.856 65.1423C289.743 65.0713 289.621 65.0185 289.495 64.9853Z" fill="white"/>
<path d="M205.923 92.9906C212.429 108.36 228.378 116.722 211.775 125.218C195.171 133.714 193.506 110.448 193.99 103.359C194.474 96.2704 202.406 84.6866 205.923 92.9906Z" fill="#263238"/>
<path d="M218.313 114.839H218.281C218.246 114.829 218.216 114.805 218.197 114.771C218.178 114.738 218.172 114.697 218.18 114.659C219.037 110.239 216.052 106.971 212.535 103.179C209.934 100.359 206.981 97.1608 205.428 93.0495C204.667 91.0316 203.635 90.1419 202.369 90.4443C198.969 91.2119 195.144 99.7485 195.219 104.732C195.219 104.772 195.204 104.811 195.178 104.839C195.152 104.867 195.117 104.883 195.081 104.883C195.045 104.883 195.011 104.868 194.987 104.841C194.962 104.813 194.948 104.776 194.948 104.738C194.873 99.6497 198.815 90.9444 202.316 90.1535C203.284 89.9326 204.657 90.2408 205.678 92.9332C207.215 97.0038 210.141 100.167 212.727 102.97C216.27 106.82 219.334 110.146 218.441 114.723C218.435 114.755 218.419 114.784 218.396 114.805C218.372 114.826 218.343 114.838 218.313 114.839Z" fill="#263238"/>
<path d="M193.309 98.3234C194.947 99.5388 197.756 94.8634 199.107 88.7459C195.729 85.7046 193.676 86.1756 192.324 88.8389C190.75 91.9442 191.441 96.9336 193.309 98.3234Z" fill="#263238"/>
<path d="M187.718 194.646C187.718 194.646 210.546 189.586 227.176 193.814C222.298 185.824 201.608 150.427 201.608 150.427L191.777 163.221L187.718 194.646Z" fill="#407BFF"/>
<path opacity="0.2" d="M187.718 194.646C187.718 194.646 210.546 189.586 227.176 193.814C222.298 185.824 201.608 150.427 201.608 150.427L191.777 163.221L187.718 194.646Z" fill="black"/>
<path d="M194.825 117.671C194.469 119.38 194.07 120.927 193.618 122.532C193.165 124.137 192.671 125.701 192.117 127.271C191.564 128.842 190.963 130.406 190.255 131.964C189.542 133.588 188.705 135.144 187.755 136.616C187.633 136.808 187.5 137.006 187.356 137.198C187.212 137.39 187.106 137.564 186.882 137.838C186.694 138.084 186.491 138.317 186.276 138.535C186.083 138.741 185.881 138.935 185.67 139.117C184.93 139.758 184.131 140.313 183.286 140.774C181.815 141.577 180.275 142.222 178.69 142.699C177.199 143.157 175.686 143.522 174.157 143.792C172.645 144.081 171.119 144.276 169.587 144.374L168.874 140.338C171.534 139.227 174.194 138.093 176.663 136.791C177.835 136.194 178.965 135.5 180.041 134.715C180.473 134.391 180.876 134.023 181.243 133.616C181.313 133.542 181.377 133.463 181.435 133.377C181.486 133.317 181.529 133.248 181.562 133.174L181.743 132.86C181.818 132.738 181.892 132.598 181.967 132.459C182.588 131.238 183.137 129.976 183.611 128.679C184.111 127.318 184.59 125.905 185.026 124.469C185.462 123.032 185.888 121.561 186.292 120.096C186.696 118.63 187.09 117.107 187.452 115.711L194.825 117.671Z" fill="#407BFF"/>
<path d="M169.72 140.902L165.427 141.146L167.858 145.973C167.858 145.973 170.608 144.903 171.279 141.954L169.72 140.902Z" fill="#FFC3BD"/>
<path d="M162.256 144.222L165.73 147.211L167.858 145.961L165.422 141.146L162.256 144.222Z" fill="#FFC3BD"/>
<path d="M205.22 252.21L200.406 252.704L199.416 240.603L204.225 240.109L205.22 252.21Z" fill="#FFC3BD"/>
<path d="M242.918 234.316L239.423 237.904L231.879 228.838L235.374 225.256L242.918 234.316Z" fill="#FFC3BD"/>
<path d="M238.465 236.968L241.093 231.799C241.137 231.709 241.209 231.641 241.297 231.605C241.384 231.57 241.48 231.57 241.566 231.607L245.609 233.287C245.709 233.334 245.799 233.403 245.873 233.49C245.946 233.577 246.003 233.681 246.038 233.793C246.073 233.905 246.086 234.024 246.076 234.143C246.067 234.261 246.035 234.376 245.982 234.479C245.035 236.265 244.498 237.079 243.322 239.352C242.614 240.748 241.231 243.958 240.247 245.889C239.263 247.819 237.47 246.866 237.72 245.964C238.842 241.929 238.63 239.678 238.31 237.899C238.263 237.578 238.318 237.25 238.465 236.968Z" fill="#263238"/>
<path d="M199.767 251.134H205.481C205.584 251.135 205.684 251.173 205.766 251.243C205.848 251.312 205.906 251.408 205.933 251.518L207.173 256.461C207.204 256.577 207.209 256.7 207.188 256.82C207.168 256.939 207.121 257.052 207.054 257.148C206.986 257.244 206.898 257.322 206.798 257.374C206.697 257.426 206.587 257.452 206.476 257.449C204.465 257.449 203.512 257.449 200.996 257.449H193.319C191.234 257.449 190.798 255.123 191.66 254.931C195.532 253.995 197.767 252.704 198.959 251.471C199.18 251.251 199.468 251.131 199.767 251.134Z" fill="#263238"/>
<path opacity="0.2" d="M199.416 240.609L199.927 246.843H204.779L204.231 240.109L199.416 240.609Z" fill="black"/>
<path opacity="0.2" d="M235.38 225.256L231.884 228.844L235.773 233.514L239.268 229.926L235.38 225.256Z" fill="black"/>
<path d="M187.351 117.874C187.67 121.828 188.872 129.673 192.468 145.205L211.956 143.362C211.019 135.377 210.578 130.208 212.397 115.141C212.46 114.629 212.426 114.109 212.297 113.612C212.168 113.115 211.947 112.653 211.648 112.254C211.349 111.854 210.977 111.527 210.557 111.291C210.137 111.056 209.677 110.917 209.205 110.884C207.822 110.803 206.183 110.75 204.54 110.82C201.571 110.871 198.609 111.153 195.676 111.663C193.91 112.012 192.016 112.512 190.5 112.954C189.528 113.236 188.678 113.884 188.102 114.784C187.525 115.685 187.259 116.779 187.351 117.874Z" fill="#263238"/>
<path d="M202.784 100.033C202.47 103.197 202.369 108.954 204.524 110.838C204.524 110.838 204.694 114.106 198.618 115.176C194.362 114.78 195.676 111.687 195.676 111.687C198.783 110.559 198.496 107.994 197.751 105.627L202.784 100.033Z" fill="#FFC3BD"/>
<path opacity="0.2" d="M200.736 102.307L197.756 105.61C197.934 106.161 198.071 106.727 198.166 107.302C199.363 106.994 201.097 105.633 201.113 104.237C201.092 103.574 200.964 102.921 200.736 102.307Z" fill="black"/>
<path d="M205.332 95.0845C204.124 100.144 203.709 102.307 200.874 104.429C196.618 107.616 191.191 104.889 190.995 99.5389C190.814 94.7239 192.819 87.2689 197.767 86.2164C198.857 85.9777 199.985 86.0478 201.043 86.4201C202.101 86.7923 203.055 87.4543 203.813 88.3431C204.571 89.2319 205.109 90.3179 205.375 91.4979C205.641 92.6778 205.626 93.9125 205.332 95.0845Z" fill="#FFC3BD"/>
<path d="M195.214 85.8156C193.25 87.9672 197.342 93.416 204.162 98.2251C209.434 94.736 207.625 90.0839 205.226 87.4089C202.826 84.734 197.464 83.3442 195.214 85.8156Z" fill="#263238"/>
<path d="M197.054 91.4149C197.036 91.4146 197.019 91.4104 197.002 91.4024C196.986 91.3944 196.971 91.3828 196.959 91.3684C194.788 89.0016 193.942 87.2047 194.442 86.0301C195.182 84.2855 198.523 84.617 198.661 84.6286C198.692 84.6354 198.721 84.6539 198.741 84.681C198.761 84.708 198.772 84.7419 198.772 84.7769C198.772 84.8119 198.761 84.8458 198.741 84.8728C198.721 84.8998 198.692 84.9184 198.661 84.9252C198.624 84.9252 195.368 84.617 194.708 86.158C194.267 87.1931 195.118 88.9202 197.171 91.159C197.184 91.1726 197.194 91.1888 197.201 91.2068C197.208 91.2248 197.212 91.2441 197.212 91.2637C197.212 91.2832 197.208 91.3026 197.201 91.3206C197.194 91.3385 197.184 91.3548 197.171 91.3684C197.156 91.3852 197.138 91.3982 197.118 91.4062C197.097 91.4143 197.076 91.4172 197.054 91.4149Z" fill="#263238"/>
<path d="M205.715 99.6494C205.283 100.542 204.544 101.211 203.662 101.51C202.486 101.9 201.874 100.76 202.183 99.5331C202.459 98.434 203.401 96.9046 204.587 97.0558C204.842 97.1009 205.084 97.213 205.29 97.3826C205.497 97.5521 205.663 97.7739 205.774 98.029C205.885 98.2841 205.937 98.5649 205.927 98.8471C205.917 99.1294 205.844 99.4047 205.715 99.6494Z" fill="#FFC3BD"/>
<path d="M192.468 145.223C192.468 145.223 186.839 177.078 191.239 199.554C194.192 214.592 197.969 245.04 197.969 245.04L206.279 244.801C206.279 244.801 204.119 212.893 202.454 200.344C199.607 178.875 206.736 143.874 206.736 143.874L192.468 145.223Z" fill="#263238"/>
<path opacity="0.2" d="M200.071 151.66L204.226 158.824C202.973 167.32 202.179 175.889 201.847 184.487C196.006 173.048 198.773 157.714 200.071 151.66Z" fill="black"/>
<path d="M197.235 245.389L207.029 245.36L206.997 241.778L196.629 241.626L197.235 245.389Z" fill="#407BFF"/>
<path d="M196.73 144.885C196.73 144.885 200.597 178.689 208.966 197.146C215.738 212.056 233.805 233.281 233.805 233.281L238.428 228.077C238.428 228.077 226.219 205.014 221.186 195.111C208.849 170.827 218.93 152.294 211.94 143.356L196.73 144.885Z" fill="#263238"/>
<path d="M233.353 233.973L239.316 227.623L237.337 224.681L231.017 231.577L233.353 233.973Z" fill="#407BFF"/>
<path d="M212.147 142.1L213.179 143.926C213.259 144.065 213.11 144.234 212.881 144.257L192.447 146.188C192.272 146.188 192.117 146.124 192.096 146.002L191.771 144.112C191.771 143.984 191.894 143.856 192.085 143.838L211.817 141.972C211.878 141.962 211.939 141.968 211.997 141.991C212.054 142.013 212.106 142.05 212.147 142.1Z" fill="white"/>
<path d="M209.689 144.764L210.221 144.717C210.328 144.717 210.402 144.636 210.391 144.566L209.944 142.112C209.944 142.042 209.838 141.99 209.732 142.002L209.2 142.048C209.099 142.048 209.019 142.13 209.035 142.199L209.476 144.653C209.487 144.723 209.583 144.775 209.689 144.764Z" fill="#263238"/>
<path d="M193.947 146.252L194.479 146.206C194.58 146.206 194.66 146.124 194.644 146.054L194.203 143.6C194.203 143.531 194.091 143.478 193.985 143.49L193.453 143.536C193.346 143.536 193.272 143.612 193.282 143.688L193.729 146.142C193.745 146.211 193.846 146.264 193.947 146.252Z" fill="#263238"/>
<path d="M201.821 145.507L202.353 145.461C202.459 145.461 202.533 145.38 202.518 145.31L202.076 142.856C202.076 142.786 201.964 142.734 201.863 142.745L201.331 142.792C201.225 142.792 201.15 142.873 201.166 142.943L201.608 145.397C201.64 145.467 201.714 145.519 201.821 145.507Z" fill="#263238"/>
<path d="M197.501 94.9161C197.427 95.329 197.166 95.6255 196.916 95.5732C196.666 95.5209 196.527 95.1371 196.602 94.7184C196.676 94.2997 196.937 94.0089 197.187 94.0613C197.437 94.1136 197.575 94.4974 197.501 94.9161Z" fill="#263238"/>
<path d="M193.197 93.9855C193.117 94.4042 192.857 94.7007 192.606 94.6426C192.356 94.5844 192.218 94.2123 192.293 93.7936C192.367 93.3749 192.628 93.0841 192.878 93.1365C193.128 93.1888 193.271 93.5726 193.197 93.9855Z" fill="#263238"/>
<path d="M192.984 93.1829L192.123 92.7002C192.123 92.7002 192.452 93.5783 192.984 93.1829Z" fill="#263238"/>
<path d="M194.676 95.0264C194.167 95.9041 193.55 96.7006 192.841 97.3931C193.007 97.589 193.21 97.7426 193.436 97.8431C193.662 97.9436 193.906 97.9885 194.15 97.9747L194.676 95.0264Z" fill="#ED847E"/>
<path d="M195.911 99.9514C196.714 99.9655 197.491 99.6406 198.081 99.0443C198.094 99.0241 198.099 98.9999 198.097 98.9756C198.095 98.9514 198.085 98.9287 198.07 98.9115C198.054 98.8943 198.033 98.8836 198.011 98.8813C197.989 98.879 197.966 98.8852 197.948 98.8989C197.583 99.251 197.147 99.5041 196.675 99.6375C196.204 99.7708 195.71 99.7808 195.235 99.6665C195.21 99.6613 195.185 99.667 195.164 99.6822C195.143 99.6974 195.128 99.721 195.123 99.7479C195.12 99.7613 195.12 99.7753 195.122 99.7889C195.124 99.8026 195.129 99.8156 195.136 99.8271C195.143 99.8386 195.152 99.8483 195.162 99.8557C195.173 99.8631 195.185 99.868 195.198 99.87C195.432 99.9244 195.671 99.9517 195.911 99.9514Z" fill="#263238"/>
<path d="M200.092 93.2987C200.123 93.3065 200.156 93.3065 200.187 93.2987C200.23 93.2699 200.261 93.2238 200.273 93.1705C200.285 93.1172 200.277 93.061 200.251 93.0138C200.076 92.6746 199.828 92.387 199.529 92.1753C199.229 91.9637 198.888 91.8343 198.533 91.7984C198.508 91.7977 198.484 91.8022 198.461 91.8117C198.438 91.8212 198.417 91.8355 198.4 91.8539C198.382 91.8723 198.368 91.8943 198.358 91.9187C198.348 91.9431 198.342 91.9694 198.341 91.9961C198.34 92.0233 198.344 92.0506 198.352 92.0763C198.36 92.1019 198.373 92.1255 198.39 92.1456C198.407 92.1656 198.427 92.1818 198.45 92.1931C198.473 92.2044 198.497 92.2106 198.522 92.2113C198.814 92.2465 199.093 92.3571 199.337 92.5341C199.582 92.7112 199.784 92.9494 199.927 93.229C199.947 93.2538 199.973 93.2731 200.002 93.2852C200.03 93.2973 200.061 93.302 200.092 93.2987Z" fill="#263238"/>
<path d="M192 91.6299C192.032 91.6291 192.063 91.619 192.091 91.6008C192.342 91.437 192.626 91.341 192.918 91.3208C193.211 91.3006 193.503 91.3567 193.772 91.4845C193.816 91.5092 193.868 91.514 193.916 91.4977C193.963 91.4814 194.003 91.4453 194.027 91.3972C194.039 91.3728 194.047 91.3461 194.049 91.3185C194.052 91.2909 194.049 91.2631 194.042 91.2365C194.034 91.21 194.022 91.1854 194.006 91.1641C193.99 91.1427 193.97 91.1252 193.947 91.1123C193.622 90.9547 193.267 90.8841 192.912 90.9064C192.557 90.9286 192.211 91.0431 191.904 91.2402C191.861 91.2682 191.829 91.3138 191.816 91.3671C191.803 91.4205 191.81 91.4773 191.835 91.5252C191.852 91.5573 191.876 91.5839 191.905 91.6023C191.934 91.6208 191.967 91.6303 192 91.6299Z" fill="#263238"/>
<path d="M204.226 110.244C203.651 115.149 203.408 120.094 203.497 125.038C203.545 131.091 202.135 158.184 209.705 189.958C221.808 190.034 227.171 193.843 227.171 193.843C227.171 193.843 215.435 142.088 213.951 115.338C213.881 114.05 213.382 112.834 212.548 111.921C211.714 111.008 210.602 110.461 209.423 110.384C207.019 110.157 204.226 110.244 204.226 110.244Z" fill="#407BFF"/>
<path d="M216.461 154.347C216.429 154.346 216.398 154.336 216.371 154.318C212.966 152.102 209.487 145.88 209.343 145.595C209.331 145.573 209.322 145.548 209.318 145.522C209.314 145.497 209.315 145.47 209.32 145.445C209.326 145.419 209.336 145.396 209.35 145.374C209.364 145.353 209.381 145.335 209.402 145.322C209.443 145.293 209.494 145.284 209.541 145.296C209.589 145.308 209.631 145.34 209.657 145.386C209.694 145.45 213.237 151.782 216.573 153.951C216.595 153.964 216.613 153.982 216.628 154.004C216.643 154.025 216.654 154.05 216.66 154.076C216.666 154.102 216.667 154.129 216.663 154.156C216.659 154.182 216.65 154.208 216.637 154.23C216.622 154.267 216.597 154.298 216.566 154.318C216.534 154.339 216.498 154.349 216.461 154.347Z" fill="white"/>
<path opacity="0.2" d="M214.616 123.323L210.684 119.555C210.684 119.555 212.402 127.696 215.871 133.569C215.382 130.016 214.94 126.574 214.616 123.323Z" fill="black"/>
<path d="M195.08 111.274C195.08 111.274 194.644 116.88 194.644 131.295C194.644 145.205 196.24 165.238 193.798 190.47C191.421 191.131 189.294 192.592 187.717 194.646C187.717 194.646 190.984 148.846 187.228 117.81C187.109 116.506 187.447 115.2 188.175 114.159C188.903 113.117 189.966 112.416 191.149 112.199C193.511 111.716 195.08 111.274 195.08 111.274Z" fill="#407BFF"/>
<path d="M231.864 152.835L220.141 156.171L221.225 160.724L232.948 157.388L231.864 152.835Z" fill="#407BFF"/>
<path opacity="0.8" d="M232.55 155.721L220.827 159.057L221.023 159.878L232.746 156.543L232.55 155.721Z" fill="white"/>
<path d="M231.351 152.174L221.291 154.475L222.328 159.894L232.388 157.592L231.351 152.174Z" fill="#263238"/>
<path d="M222.612 151.12L221.782 155.737L225.766 154.638C225.766 154.638 226.032 151.463 224.399 150.207L222.612 151.12Z" fill="#FFC3BD"/>
<path d="M222.793 158.138L226.799 157.713L225.766 154.637L221.782 155.736L222.793 158.138Z" fill="#FFC3BD"/>
<path d="M212.487 111.861C213.653 113.181 214.69 114.478 215.743 115.839C216.797 117.2 217.797 118.572 218.76 120.014C219.723 121.456 220.68 122.922 221.569 124.503C222.01 125.3 222.452 126.091 222.856 126.963L223.159 127.609L223.452 128.295L223.739 128.993C223.835 129.22 223.936 129.516 224.026 129.772C224.339 130.73 224.588 131.712 224.771 132.709C224.947 133.645 225.085 134.558 225.202 135.459C225.431 137.262 225.564 139.036 225.66 140.803C225.838 144.312 225.817 147.829 225.596 151.335L221.84 151.556C221.234 148.235 220.664 144.874 220.031 141.606C219.717 139.966 219.382 138.349 219.004 136.791C218.824 136.012 218.621 135.25 218.403 134.523C218.207 133.856 217.978 133.202 217.717 132.563C217.648 132.43 217.611 132.325 217.525 132.168L217.286 131.714L217.041 131.261L216.759 130.79C216.398 130.167 215.972 129.522 215.562 128.882C214.717 127.603 213.775 126.329 212.833 125.05C210.939 122.52 208.891 119.968 206.933 117.49L212.487 111.861Z" fill="#407BFF"/>
<path d="M237.545 239.754C237.608 239.754 237.671 239.742 237.731 239.719C238.3 239.504 238.678 238.353 238.848 237.678C238.854 237.659 238.854 237.639 238.848 237.62C238.842 237.601 238.831 237.585 238.816 237.574C238.801 237.563 238.784 237.557 238.766 237.557C238.748 237.557 238.73 237.563 238.715 237.574C238.539 237.672 237.013 238.562 236.965 239.225C236.959 239.296 236.971 239.367 236.999 239.432C237.027 239.496 237.07 239.551 237.124 239.591C237.244 239.695 237.392 239.752 237.545 239.754ZM238.609 237.864C238.343 238.789 238.002 239.399 237.678 239.522C237.603 239.547 237.524 239.55 237.448 239.531C237.373 239.511 237.303 239.47 237.247 239.411C237.219 239.392 237.196 239.366 237.18 239.334C237.164 239.302 237.156 239.267 237.156 239.231C237.183 238.824 238.077 238.19 238.603 237.853L238.609 237.864Z" fill="#407BFF"/>
<path d="M237.311 238.126C237.829 238.122 238.34 237.991 238.806 237.742C238.821 237.733 238.834 237.72 238.842 237.703C238.851 237.687 238.855 237.668 238.854 237.649C238.853 237.631 238.848 237.614 238.839 237.599C238.831 237.584 238.82 237.571 238.806 237.562C238.753 237.533 237.545 236.806 236.896 237.056C236.815 237.085 236.741 237.133 236.679 237.197C236.617 237.262 236.57 237.341 236.539 237.428C236.497 237.511 236.482 237.607 236.497 237.701C236.513 237.794 236.558 237.879 236.625 237.94C236.828 238.082 237.07 238.148 237.311 238.126ZM238.55 237.649C238.018 237.893 237.029 238.038 236.747 237.777C236.699 237.736 236.651 237.666 236.715 237.503C236.735 237.445 236.767 237.392 236.808 237.348C236.85 237.305 236.9 237.272 236.954 237.253C237.401 237.079 238.205 237.469 238.55 237.649Z" fill="#407BFF"/>
<path d="M197.235 252.146C197.76 252.133 198.282 252.06 198.794 251.931C198.813 251.925 198.831 251.914 198.844 251.897C198.857 251.88 198.866 251.86 198.868 251.838C198.871 251.817 198.867 251.795 198.858 251.776C198.848 251.757 198.833 251.742 198.815 251.733C198.581 251.611 196.506 250.57 195.985 250.954C195.937 250.989 195.899 251.037 195.875 251.093C195.851 251.149 195.841 251.212 195.847 251.274C195.851 251.388 195.879 251.499 195.928 251.599C195.976 251.7 196.045 251.787 196.129 251.855C196.461 252.074 196.848 252.176 197.235 252.146ZM198.448 251.809C197.831 251.937 196.692 252.1 196.224 251.71C196.163 251.659 196.113 251.594 196.077 251.52C196.042 251.446 196.021 251.364 196.017 251.28C196.012 251.253 196.015 251.226 196.025 251.201C196.034 251.177 196.05 251.155 196.07 251.14C196.384 250.908 197.607 251.379 198.448 251.809Z" fill="#407BFF"/>
<path d="M198.773 251.931C198.793 251.938 198.816 251.938 198.836 251.931C198.845 251.915 198.85 251.897 198.85 251.878C198.85 251.86 198.845 251.842 198.836 251.826C198.836 251.733 198.347 249.5 197.24 249.64C196.958 249.68 196.879 249.831 196.868 249.954C196.794 250.535 198.102 251.698 198.725 251.948L198.773 251.931ZM197.352 249.82C198.07 249.82 198.491 251.117 198.629 251.64C197.953 251.25 197.033 250.32 197.065 249.959C197.065 249.93 197.065 249.849 197.272 249.826L197.352 249.82Z" fill="#407BFF"/>
<path d="M197.294 94.1077L196.432 93.625C196.432 93.625 196.756 94.5089 197.294 94.1077Z" fill="#263238"/>
<path d="M205.646 110.105L204.167 110.146C204.126 110.147 204.087 110.163 204.056 110.191C204.025 110.22 204.004 110.259 203.997 110.303C203.811 111.321 202.816 117.444 203.465 128.446C204.098 125.236 205.646 118.444 206.3 116.961C205.736 116.496 204.832 115.734 204.832 115.734L206.492 114.571L205.827 110.297C205.828 110.271 205.823 110.245 205.815 110.221C205.806 110.197 205.792 110.176 205.775 110.158C205.758 110.139 205.738 110.125 205.716 110.116C205.693 110.108 205.67 110.104 205.646 110.105Z" fill="#407BFF"/>
<path opacity="0.2" d="M205.646 110.105L204.167 110.146C204.126 110.147 204.087 110.163 204.056 110.191C204.025 110.22 204.004 110.259 203.997 110.303C203.811 111.321 202.816 117.444 203.465 128.446C204.098 125.236 205.646 118.444 206.3 116.961C205.736 116.496 204.832 115.734 204.832 115.734L206.492 114.571L205.827 110.297C205.828 110.271 205.823 110.245 205.815 110.221C205.806 110.197 205.792 110.176 205.775 110.158C205.758 110.139 205.738 110.125 205.716 110.116C205.693 110.108 205.67 110.104 205.646 110.105Z" fill="white"/>
<path d="M193.458 111.443L195.208 111.112C195.208 111.112 195.363 116.578 194.65 128.674C194.017 125.464 192.703 118.817 192.628 116.962C193.192 116.497 194.096 115.706 194.096 115.706L192.437 114.543L193.458 111.443Z" fill="#407BFF"/>
<path opacity="0.2" d="M193.458 111.443L195.208 111.112C195.208 111.112 195.363 116.578 194.65 128.674C194.017 125.464 192.703 118.817 192.628 116.962C193.192 116.497 194.096 115.706 194.096 115.706L192.437 114.543L193.458 111.443Z" fill="white"/>
<path d="M170.864 186.406H150.802C145.966 186.406 142.045 190.691 142.045 195.977V242.161C142.045 247.448 145.966 251.733 150.802 251.733H170.864C175.7 251.733 179.62 247.448 179.62 242.161V195.977C179.62 190.691 175.7 186.406 170.864 186.406Z" fill="#263238"/>
<path d="M163.48 144.001C164.794 144.003 166.055 144.574 166.984 145.59C167.914 146.607 168.436 147.984 168.438 149.421V211.847C168.436 213.284 167.914 214.661 166.984 215.677C166.055 216.693 164.794 217.265 163.48 217.266H158.192C156.877 217.265 155.617 216.693 154.687 215.677C153.758 214.661 153.235 213.284 153.233 211.847V149.421C153.235 147.984 153.758 146.607 154.687 145.59C155.617 144.574 156.877 144.003 158.192 144.001H163.48ZM163.48 142.96H158.192C156.625 142.965 155.124 143.647 154.017 144.858C152.909 146.068 152.285 147.709 152.281 149.421V211.847C152.285 213.559 152.909 215.199 154.017 216.41C155.124 217.621 156.625 218.303 158.192 218.307H163.48C165.046 218.303 166.547 217.621 167.654 216.41C168.762 215.199 169.386 213.559 169.39 211.847V149.421C169.386 147.709 168.762 146.068 167.654 144.858C166.547 143.647 165.046 142.965 163.48 142.96Z" fill="#263238"/>
<path d="M172.263 254.908C173.494 254.908 174.492 253.817 174.492 252.471C174.492 251.126 173.494 250.035 172.263 250.035C171.032 250.035 170.034 251.126 170.034 252.471C170.034 253.817 171.032 254.908 172.263 254.908Z" fill="#263238"/>
<path d="M166.65 252.472C166.657 252.955 166.531 253.43 166.29 253.836C166.049 254.242 165.704 254.56 165.297 254.751C164.89 254.942 164.441 254.996 164.006 254.907C163.571 254.818 163.169 254.59 162.853 254.252C162.537 253.913 162.32 253.48 162.229 253.006C162.138 252.533 162.178 252.041 162.344 251.592C162.51 251.143 162.794 250.759 163.16 250.487C163.526 250.215 163.957 250.068 164.4 250.064C164.99 250.059 165.557 250.31 165.979 250.761C166.4 251.212 166.642 251.827 166.65 252.472Z" fill="#263238"/>
<path d="M153.819 252.471C153.819 252.953 153.688 253.424 153.443 253.825C153.198 254.226 152.85 254.538 152.442 254.722C152.035 254.907 151.587 254.955 151.155 254.861C150.722 254.767 150.325 254.535 150.013 254.194C149.701 253.853 149.489 253.419 149.403 252.947C149.317 252.474 149.361 251.984 149.53 251.539C149.699 251.094 149.984 250.713 150.351 250.445C150.718 250.178 151.149 250.035 151.589 250.035C152.18 250.036 152.746 250.293 153.164 250.75C153.582 251.207 153.817 251.825 153.819 252.471Z" fill="#263238"/>
<path d="M143.742 254.908C144.973 254.908 145.971 253.817 145.971 252.471C145.971 251.126 144.973 250.035 143.742 250.035C142.511 250.035 141.513 251.126 141.513 252.471C141.513 253.817 142.511 254.908 143.742 254.908Z" fill="#263238"/>
<path d="M165.203 186.406H145.141C140.305 186.406 136.385 190.691 136.385 195.977V242.161C136.385 247.448 140.305 251.733 145.141 251.733H165.203C170.039 251.733 173.96 247.448 173.96 242.161V195.977C173.96 190.691 170.039 186.406 165.203 186.406Z" fill="#407BFF"/>
<path opacity="0.2" d="M165.203 186.406H145.141C140.305 186.406 136.385 190.691 136.385 195.977V242.161C136.385 247.448 140.305 251.733 145.141 251.733H165.203C170.039 251.733 173.96 247.448 173.96 242.161V195.977C173.96 190.691 170.039 186.406 165.203 186.406Z" fill="white"/>
<path d="M161.245 192.488H144.918C140.984 192.488 137.794 195.974 137.794 200.275V237.858C137.794 242.158 140.984 245.645 144.918 245.645H161.245C165.179 245.645 168.368 242.158 168.368 237.858V200.275C168.368 195.974 165.179 192.488 161.245 192.488Z" fill="#407BFF"/>
<path d="M142.976 241.801C142.438 241.8 141.922 241.565 141.541 241.149C141.16 240.732 140.945 240.168 140.944 239.58V198.56C140.93 198.259 140.972 197.958 141.068 197.675C141.163 197.393 141.31 197.134 141.5 196.916C141.69 196.698 141.919 196.524 142.172 196.405C142.425 196.286 142.698 196.225 142.974 196.225C143.249 196.225 143.522 196.286 143.775 196.405C144.029 196.524 144.257 196.698 144.447 196.916C144.637 197.134 144.784 197.393 144.88 197.675C144.975 197.958 145.017 198.259 145.003 198.56V239.597C144.999 240.182 144.784 240.742 144.404 241.155C144.025 241.567 143.512 241.8 142.976 241.801ZM142.976 196.862C142.564 196.862 142.169 197.04 141.878 197.359C141.587 197.677 141.423 198.109 141.423 198.56V239.597C141.41 239.828 141.441 240.059 141.514 240.277C141.586 240.494 141.698 240.693 141.844 240.861C141.989 241.03 142.164 241.164 142.358 241.256C142.553 241.347 142.762 241.394 142.974 241.394C143.185 241.394 143.395 241.347 143.589 241.256C143.783 241.164 143.959 241.03 144.104 240.861C144.249 240.693 144.361 240.494 144.434 240.277C144.506 240.059 144.537 239.828 144.524 239.597V198.56C144.525 198.337 144.486 198.116 144.408 197.91C144.331 197.704 144.217 197.517 144.073 197.359C143.929 197.202 143.758 197.076 143.57 196.991C143.382 196.906 143.18 196.862 142.976 196.862Z" fill="white"/>
<path d="M163.261 241.801C162.722 241.806 162.203 241.576 161.818 241.163C161.433 240.75 161.213 240.187 161.208 239.597V198.56C161.208 197.971 161.422 197.406 161.803 196.989C162.184 196.572 162.701 196.338 163.24 196.338C163.779 196.338 164.296 196.572 164.677 196.989C165.058 197.406 165.272 197.971 165.272 198.56V239.597C165.267 240.179 165.053 240.735 164.677 241.147C164.302 241.559 163.793 241.794 163.261 241.801ZM163.261 196.862C162.849 196.862 162.454 197.041 162.163 197.359C161.872 197.678 161.708 198.109 161.708 198.56V239.597C161.708 240.048 161.872 240.48 162.163 240.798C162.454 241.116 162.849 241.295 163.261 241.295C163.673 241.295 164.068 241.116 164.36 240.798C164.651 240.48 164.815 240.048 164.815 239.597V198.56C164.815 198.109 164.651 197.678 164.36 197.359C164.068 197.041 163.673 196.862 163.261 196.862Z" fill="white"/>
<path d="M156.5 241.801C155.961 241.8 155.445 241.565 155.065 241.149C154.684 240.733 154.469 240.168 154.468 239.58V198.56C154.468 197.971 154.682 197.406 155.063 196.989C155.444 196.572 155.961 196.338 156.5 196.338C157.039 196.338 157.556 196.572 157.937 196.989C158.318 197.406 158.532 197.971 158.532 198.56V239.597C158.527 240.183 158.31 240.743 157.93 241.155C157.55 241.568 157.036 241.8 156.5 241.801ZM156.5 196.862C156.088 196.862 155.693 197.041 155.402 197.359C155.11 197.678 154.947 198.109 154.947 198.56V239.597C154.947 239.82 154.987 240.041 155.065 240.247C155.143 240.453 155.257 240.64 155.402 240.798C155.546 240.956 155.717 241.081 155.906 241.166C156.094 241.251 156.296 241.295 156.5 241.295C156.704 241.295 156.906 241.251 157.094 241.166C157.283 241.081 157.454 240.956 157.598 240.798C157.743 240.64 157.857 240.453 157.935 240.247C158.013 240.041 158.053 239.82 158.053 239.597V198.56C158.053 198.337 158.013 198.116 157.935 197.91C157.857 197.704 157.743 197.517 157.598 197.359C157.454 197.201 157.283 197.076 157.094 196.991C156.906 196.906 156.704 196.862 156.5 196.862Z" fill="white"/>
<path d="M149.738 241.801C149.199 241.8 148.683 241.565 148.303 241.149C147.922 240.732 147.707 240.168 147.706 239.58V198.56C147.692 198.259 147.734 197.958 147.829 197.675C147.925 197.393 148.072 197.134 148.262 196.916C148.452 196.698 148.68 196.524 148.934 196.405C149.187 196.286 149.46 196.225 149.735 196.225C150.011 196.225 150.284 196.286 150.537 196.405C150.79 196.524 151.019 196.698 151.209 196.916C151.399 197.134 151.546 197.393 151.641 197.675C151.737 197.958 151.779 198.259 151.765 198.56V239.597C151.761 240.182 151.546 240.742 151.166 241.155C150.786 241.567 150.273 241.8 149.738 241.801ZM149.738 196.862C149.326 196.862 148.931 197.04 148.64 197.359C148.348 197.677 148.185 198.109 148.185 198.56V239.597C148.172 239.828 148.203 240.059 148.275 240.277C148.348 240.494 148.46 240.693 148.605 240.861C148.75 241.03 148.926 241.164 149.12 241.256C149.314 241.347 149.524 241.394 149.735 241.394C149.947 241.394 150.156 241.347 150.351 241.256C150.545 241.164 150.72 241.03 150.865 240.861C151.011 240.693 151.123 240.494 151.195 240.277C151.268 240.059 151.299 239.828 151.286 239.597V198.56C151.287 198.337 151.247 198.116 151.17 197.91C151.092 197.704 150.978 197.517 150.835 197.359C150.691 197.202 150.52 197.076 150.332 196.991C150.144 196.906 149.942 196.862 149.738 196.862Z" fill="white"/>
</svg>
