<svg width="382" height="272" viewBox="0 0 382 272" fill="none" xmlns="http://www.w3.org/2000/svg">
<rect width="382" height="272" fill="white"/>
<path d="M330.345 177.85H246.042C245.317 177.848 244.623 177.56 244.111 177.048C243.598 176.535 243.31 175.841 243.309 175.116V52.3072C243.31 51.5826 243.598 50.8881 244.111 50.3757C244.623 49.8633 245.317 49.575 246.042 49.5737H330.345C331.07 49.5737 331.766 49.8616 332.279 50.3741C332.793 50.8865 333.082 51.5818 333.083 52.3072V175.116C333.082 175.842 332.793 176.537 332.279 177.049C331.766 177.562 331.07 177.85 330.345 177.85ZM246.042 49.6903C245.348 49.6903 244.682 49.966 244.192 50.4568C243.701 50.9475 243.425 51.6131 243.425 52.3072V175.116C243.425 175.81 243.701 176.476 244.192 176.967C244.682 177.457 245.348 177.733 246.042 177.733H330.345C331.039 177.733 331.705 177.457 332.197 176.967C332.688 176.476 332.965 175.811 332.966 175.116V52.3072C332.965 51.6127 332.688 50.9471 332.197 50.4565C331.705 49.9659 331.039 49.6903 330.345 49.6903H246.042Z" fill="#E0E0E0"/>
<path d="M233.126 177.85H148.814C148.089 177.848 147.394 177.56 146.882 177.048C146.37 176.535 146.081 175.841 146.08 175.116V52.3072C146.081 51.5826 146.37 50.8881 146.882 50.3757C147.394 49.8633 148.089 49.575 148.814 49.5737H233.126C233.85 49.575 234.545 49.8633 235.057 50.3757C235.57 50.8881 235.858 51.5826 235.859 52.3072V175.116C235.858 175.841 235.57 176.535 235.057 177.048C234.545 177.56 233.85 177.848 233.126 177.85ZM148.814 49.6903C148.124 49.6977 147.465 49.9765 146.98 50.4663C146.494 50.9562 146.221 51.6175 146.22 52.3072V175.116C146.221 175.81 146.497 176.475 146.988 176.965C147.478 177.456 148.143 177.732 148.837 177.733H233.126C233.819 177.732 234.484 177.456 234.975 176.965C235.465 176.475 235.741 175.81 235.743 175.116V52.3072C235.741 51.6135 235.465 50.9486 234.975 50.4582C234.484 49.9677 233.819 49.6916 233.126 49.6903H148.814Z" fill="#E0E0E0"/>
<path d="M135.958 177.85H51.6551C50.9297 177.85 50.234 177.562 49.7206 177.049C49.2073 176.537 48.9182 175.842 48.917 175.116V52.3072C48.9182 51.5818 49.2073 50.8865 49.7206 50.3741C50.234 49.8616 50.9297 49.5737 51.6551 49.5737H135.958C136.683 49.575 137.377 49.8633 137.889 50.3757C138.402 50.8881 138.69 51.5826 138.691 52.3072V175.116C138.69 175.841 138.402 176.535 137.889 177.048C137.377 177.56 136.683 177.848 135.958 177.85ZM51.6551 49.6903C50.9606 49.6903 50.2946 49.9659 49.8031 50.4565C49.3116 50.9471 49.0348 51.6127 49.0336 52.3072V175.116C49.0348 175.811 49.3116 176.476 49.8031 176.967C50.2946 177.457 50.9606 177.733 51.6551 177.733H135.958C136.652 177.733 137.318 177.457 137.808 176.967C138.299 176.476 138.575 175.81 138.575 175.116V52.3072C138.575 51.6131 138.299 50.9475 137.808 50.4568C137.318 49.966 136.652 49.6903 135.958 49.6903H51.6551Z" fill="#E0E0E0"/>
<path d="M365.922 206.336H16.0784V206.392H365.922V206.336Z" fill="#E0E0E0"/>
<path d="M346.965 220.041H320.969V220.236H346.965V220.041Z" fill="#EBEBEB"/>
<path d="M253.818 222.167H246.994V222.363H253.818V222.167Z" fill="#EBEBEB"/>
<path d="M68.9326 214.07H35.0352V214.266H68.9326V214.07Z" fill="#EBEBEB"/>
<path d="M80.8972 214.07H75.9248V214.266H80.8972V214.07Z" fill="#EBEBEB"/>
<path d="M170.569 217.382H97.0508V217.578H170.569V217.382Z" fill="#EBEBEB"/>
<path d="M158.959 103.286C158.193 102.824 157.306 102.601 156.412 102.647C155.866 101.98 156.31 100.982 156.837 100.315C157.364 99.6479 158.017 98.8689 157.816 98.0293C157.504 96.7699 155.736 96.7186 154.462 96.9658C153.996 96.2055 153.996 95.2632 153.772 94.3816C153.548 93.5 152.797 92.5811 151.962 92.707C151.127 92.833 150.614 93.7519 149.793 93.9478C148.837 94.1717 148.007 93.3274 147.26 92.693C147.166 92.6148 147.068 92.5416 146.966 92.4738C147.125 89.8523 149.621 90.2721 151.743 89.9129C153.403 89.6377 149.005 85.4396 152.359 84.0869C153.01 83.9081 153.58 83.5133 153.977 82.9674C154.147 82.5539 154.166 82.0939 154.032 81.6676C153.897 81.2413 153.617 80.8759 153.24 80.6351C152.476 80.1758 151.593 79.9549 150.703 80.0007C150.157 79.3337 150.595 78.3308 151.127 77.6684C151.659 77.0061 152.303 76.2224 152.107 75.3828C151.79 74.1234 150.026 74.072 148.753 74.3193C148.286 73.5589 148.286 72.612 148.063 71.7351C147.839 70.8582 147.092 69.9346 146.253 70.0558C145.413 70.1771 144.905 71.1054 144.079 71.3013C143.123 71.5252 142.297 70.6762 141.546 70.0465C140.795 69.4168 139.489 69.0156 138.976 69.8506C138.668 70.345 138.85 71.0354 138.509 71.5299C137.954 72.3695 136.644 71.8517 135.813 71.25C134.983 70.6482 133.677 70.0978 133.117 70.9375C132.972 71.2125 132.866 71.5059 132.8 71.8097C132.719 72.0249 132.607 72.2275 132.469 72.4115C132.306 71.8284 132.254 71.1987 132.105 70.6109C131.876 69.7387 131.13 68.8104 130.291 68.9317C129.451 69.053 128.942 69.9859 128.121 70.1771C127.165 70.4057 126.34 69.5521 125.589 68.9223C124.838 68.2926 123.532 67.8915 123.014 68.7311C122.706 69.2255 122.892 69.9159 122.547 70.4104C122.481 70.5214 122.39 70.6156 122.281 70.6856C122.003 70.6392 121.72 70.6205 121.437 70.6296C120.887 69.9672 121.33 68.9737 121.862 68.2973C122.393 67.6209 123.042 66.8466 122.841 66.0117C122.529 64.7476 120.761 64.7009 119.483 64.9481C119.016 64.1831 119.016 63.2362 118.797 62.364C118.578 61.4917 117.822 60.5588 116.982 60.6894C116.143 60.82 115.634 61.7389 114.813 61.9348C113.857 62.1587 113.032 61.3191 112.281 60.68C111.53 60.041 110.224 59.6538 109.706 60.4841C109.403 60.9506 109.584 61.6736 109.239 62.1634C108.684 62.9983 107.373 62.4806 106.548 61.8788C105.722 61.2771 104.407 60.7267 103.847 61.5663C103.698 61.8417 103.59 62.137 103.525 62.4433C103.143 63.5628 101.925 64.1225 100.988 64.8362C100.05 65.5499 99.3037 66.9819 100.097 67.8542C100.489 68.288 101.184 68.4512 101.379 69.011C101.617 69.6687 100.913 70.3124 100.363 70.7882C100.003 71.1875 99.76 71.6783 99.6612 72.2067C99.5624 72.7351 99.6115 73.2805 99.8028 73.7828C99.5231 74.0355 99.1922 74.2248 98.8326 74.3379C97.8997 74.5618 97.0507 73.7175 96.2997 73.0878C95.5487 72.4581 94.2427 72.0569 93.7296 72.8919C93.4217 73.3584 93.6036 74.0767 93.2631 74.5712C92.708 75.4061 91.3973 74.893 90.5716 74.2913C89.746 73.6895 88.4306 73.1391 87.8709 73.9788C87.7251 74.2539 87.6169 74.5472 87.549 74.851C87.1665 75.9659 85.949 76.5256 85.0115 77.244C84.0739 77.9623 83.3276 79.385 84.1205 80.2619C84.4984 80.7004 85.1467 80.8777 85.3706 81.3814C84.7083 81.1202 83.9479 81.1855 83.6401 81.68C83.3322 82.1744 83.5188 82.8648 83.1736 83.3546C82.6232 84.1942 81.3078 83.6811 80.4868 83.0747C79.6659 82.4683 78.3411 81.9225 77.7814 82.7621C77.6373 83.0392 77.5307 83.334 77.4642 83.6391C77.077 84.7586 75.8642 85.309 74.9267 86.0274C73.9891 86.7457 73.2427 88.1777 74.0357 89.05C74.4275 89.4791 75.1226 89.6471 75.3185 90.2068C75.561 90.8692 74.852 91.5129 74.3063 91.984C73.3733 92.7677 73.2101 95.1233 74.4322 95.7717C74.95 96.0422 75.715 96.1821 75.8316 96.7046C75.9482 97.227 75.4258 97.6048 75.0852 97.9967C75.0067 98.0981 74.9365 98.2057 74.8753 98.3185C74.7213 98.5978 74.6238 98.9047 74.5885 99.2216C74.5531 99.5386 74.5807 99.8594 74.6695 100.166C74.7583 100.472 74.9067 100.758 75.1061 101.007C75.3055 101.256 75.552 101.463 75.8316 101.616C76.1254 101.747 76.4846 101.868 76.5966 102.176C76.6399 102.406 76.6139 102.643 76.5219 102.857C76.4063 103.285 76.3669 103.731 76.4053 104.173C76.3959 104.246 76.4039 104.32 76.4288 104.389C76.4537 104.459 76.4946 104.521 76.5483 104.572C76.6021 104.622 76.667 104.66 76.7378 104.68C76.8086 104.701 76.8833 104.704 76.9557 104.69C78.7236 104.77 79.5726 104.145 80.6501 105.679C80.7456 105.835 80.8728 105.968 81.0233 106.071C81.1681 106.144 81.3275 106.184 81.4897 106.188C82.7025 106.29 83.4861 105.535 84.6056 105.39C86.1543 105.194 86.4715 105.987 87.8335 106.626C89.9606 107.634 90.9961 107.013 91.4019 105.558C91.506 105.145 91.5686 104.723 91.5885 104.299C91.5849 103.981 91.6497 103.667 91.7785 103.377C91.9073 103.088 92.0971 102.829 92.3348 102.619H92.3675C93.501 102.717 94.2706 102.069 95.2642 101.868L95.8986 101.798C97.0787 101.798 97.4705 102.498 98.6973 103.058C99.2626 103.348 99.8859 103.507 100.521 103.524C100.698 104.187 100.055 104.779 99.4903 105.236C98.5574 106.024 98.4035 108.38 99.6256 109.024C100.134 109.294 100.908 109.444 101.025 109.957C101.142 110.47 100.619 110.857 100.279 111.244C100.199 111.343 100.129 111.449 100.069 111.561C99.7584 112.127 99.6848 112.792 99.864 113.412C100.043 114.032 100.461 114.556 101.025 114.868C101.314 115.008 101.678 115.12 101.785 115.424C101.833 115.655 101.808 115.896 101.715 116.114C101.595 116.54 101.555 116.984 101.599 117.425C101.589 117.498 101.597 117.572 101.622 117.642C101.647 117.711 101.688 117.773 101.742 117.824C101.795 117.875 101.86 117.912 101.931 117.932C102.002 117.953 102.077 117.956 102.149 117.942C103.917 118.022 104.766 117.397 105.843 118.931C105.935 119.088 106.061 119.222 106.212 119.323C106.365 119.397 106.532 119.44 106.702 119.449C107.915 119.547 108.698 118.787 109.818 118.647C111.362 118.451 111.684 119.244 113.036 119.883C115.173 120.886 116.208 120.27 116.609 118.815C116.717 118.401 116.781 117.977 116.801 117.551C116.959 114.934 119.455 115.349 121.582 114.994C121.656 114.99 121.728 114.965 121.789 114.923C121.851 114.881 121.9 114.824 121.932 114.756H122.067C123.28 114.854 124.063 114.099 125.178 113.954C126.731 113.758 127.044 114.551 128.406 115.19C130.538 116.198 131.573 115.577 131.974 114.122C132.082 113.709 132.146 113.285 132.166 112.858C132.306 110.824 133.845 110.624 135.519 110.465C135.545 110.862 135.672 111.245 135.887 111.579C136.103 111.913 136.4 112.186 136.751 112.373C137.049 112.508 137.409 112.625 137.521 112.933C137.561 113.162 137.536 113.398 137.446 113.614C137.328 114.04 137.288 114.484 137.329 114.924C137.326 115.076 137.381 115.223 137.483 115.335C137.599 115.413 137.736 115.452 137.875 115.447C139.643 115.526 140.492 114.901 141.574 116.44C141.668 116.594 141.794 116.726 141.943 116.828C142.087 116.902 142.247 116.944 142.409 116.949C143.622 117.047 144.406 116.291 145.525 116.147C147.074 115.951 147.391 116.744 148.753 117.383C150.885 118.39 151.92 117.77 152.321 116.314C152.427 115.902 152.491 115.48 152.513 115.055C152.666 112.434 155.167 112.853 157.294 112.494C158.954 112.219 154.546 108.021 157.905 106.668C158.554 106.489 159.123 106.094 159.519 105.549C159.69 105.163 159.728 104.731 159.627 104.321C159.525 103.912 159.29 103.548 158.959 103.286Z" fill="#E0E0E0"/>
<path d="M97.1813 118.918C96.5455 118.53 95.807 118.344 95.0636 118.386C94.5971 117.826 94.9796 116.986 95.4181 116.431C95.8565 115.876 96.4023 115.246 96.2297 114.523C95.9778 113.469 94.5085 113.437 93.431 113.642C93.0345 113.003 93.0485 112.21 92.8432 111.487C92.638 110.764 92.0736 110.008 91.3319 110.087C90.5902 110.167 90.2077 110.964 89.522 111.123C88.7291 111.314 88.034 110.61 87.4137 110.083C86.7933 109.556 85.6971 109.225 85.2633 109.915C85.0114 110.33 85.1653 110.918 84.8995 111.314C84.433 112.028 83.3368 111.585 82.6511 111.081C81.9654 110.577 80.8739 110.12 80.3981 110.82C80.2813 111.051 80.1921 111.295 80.1323 111.547C79.8151 112.48 78.8075 112.947 78.0192 113.539C77.2309 114.132 76.6198 115.316 77.2822 116.058C77.6087 116.417 78.1825 116.567 78.3457 117.024C78.5463 117.611 77.9632 118.111 77.5014 118.502C76.7318 119.16 76.5685 121.124 77.6087 121.656C78.0379 121.88 78.6676 121.954 78.7889 122.425C78.9101 122.896 78.4577 123.176 78.1965 123.503C77.8685 123.928 77.7222 124.465 77.7895 124.997C77.8568 125.53 78.1323 126.014 78.5556 126.344C78.6395 126.408 78.7284 126.466 78.8215 126.516C79.0641 126.633 79.3626 126.731 79.4512 126.983C79.4977 127.181 79.4781 127.389 79.3953 127.575C79.2952 127.93 79.262 128.3 79.2973 128.666C79.2972 128.792 79.3438 128.914 79.4279 129.007C79.5226 129.076 79.6376 129.11 79.7544 129.105C81.2238 129.17 81.9328 128.638 82.833 129.926C82.9117 130.055 83.0166 130.166 83.1409 130.252C83.267 130.315 83.4058 130.349 83.5467 130.35C84.5589 130.434 85.2167 129.809 86.1449 129.688C87.4277 129.525 87.6982 130.187 88.827 130.719C90.6042 131.554 91.4718 131.041 91.789 129.823C91.877 129.481 91.9301 129.131 91.9476 128.778C92.0782 126.595 94.1586 126.913 95.9312 126.642C97.3306 126.409 93.6502 122.91 96.4396 121.786C96.9836 121.641 97.4602 121.311 97.7877 120.853C97.9306 120.511 97.9481 120.129 97.8372 119.775C97.7262 119.421 97.494 119.117 97.1813 118.918Z" fill="#E0E0E0"/>
<path d="M124.245 106.85L126.526 99.615L130.967 93.9056L130.207 93.2712L126.008 97.8378L125.267 90.6031H124.054C124.054 90.6031 125.048 99.1999 123.616 102.344C123.616 102.344 118.41 115.591 115.219 118.455C115.041 118.624 114.885 118.813 114.753 119.02C113.805 116.58 112.569 114.263 111.072 112.116C112.327 108.916 115.009 101.877 115.924 98.1224C116.637 95.2032 117.173 92.2436 117.528 89.2597L116.493 89.1431C116.493 89.1431 113.545 103.053 108.675 109.387C107.234 108.059 105.6 106.958 103.828 106.122C103.432 104.168 103.264 100.767 104.556 95.4542L103.53 95.193C102.28 98.3373 101.67 101.699 101.734 105.082C101.002 104.713 100.296 104.293 99.621 103.827C94.961 100.506 91.6445 94.5353 91.6445 94.5353L90.7116 95.4682C90.7116 95.4682 94.7185 104.261 100.297 107.2C105.876 110.138 109.496 117.294 109.785 119.169C109.864 119.705 110.508 123.955 109.612 131.399C103.674 128.867 91.8871 121.893 91.1268 121.249L89.7554 123.115L108.796 136.736C109.095 154.89 107.723 173.777 107.77 177.863H118.858C118.587 172.229 116.25 151.028 117.286 128.885C117.374 128.34 117.468 127.714 117.556 126.987C118.424 120.195 123.578 110.908 126.032 108.268C127.756 106.445 129.611 104.75 131.583 103.197L130.911 101.751L124.245 106.85Z" fill="#E6E6E6"/>
<path d="M211.991 50.7349C211.989 50.0387 211.712 49.3715 211.22 48.8793C210.728 48.387 210.061 48.1099 209.364 48.1087C209.11 48.1083 208.857 48.146 208.613 48.2207C208.651 47.9533 208.67 47.6836 208.669 47.4137C208.669 45.9423 208.086 44.5308 207.047 43.4886C206.009 42.4464 204.599 41.8584 203.128 41.8535C202.785 41.854 202.443 41.8853 202.106 41.9468C201.558 41.0461 200.732 40.348 199.752 39.958C198.773 39.568 197.693 39.5071 196.675 39.7846C195.658 40.0621 194.759 40.6629 194.113 41.4963C193.467 42.3298 193.109 43.3507 193.094 44.405H193.01C191.847 44.4426 190.744 44.9311 189.935 45.7672C189.125 46.6033 188.672 47.7215 188.672 48.8854C188.672 50.0492 189.125 51.1674 189.935 52.0035C190.744 52.8397 191.847 53.3281 193.01 53.3657H209.458C210.139 53.3426 210.785 53.055 211.258 52.5639C211.731 52.0727 211.993 51.4167 211.991 50.7349Z" fill="#F0F0F0"/>
<path d="M254.242 76.8101C254.242 76.1644 253.986 75.545 253.529 75.0884C253.073 74.6318 252.453 74.3752 251.808 74.3752C251.572 74.3717 251.337 74.4064 251.112 74.4779C251.146 74.2289 251.163 73.978 251.164 73.7269C251.156 72.3635 250.61 71.0584 249.643 70.097C248.676 69.1355 247.368 68.5958 246.005 68.5958C245.692 68.5966 245.38 68.6247 245.072 68.6798C244.563 67.8466 243.797 67.201 242.89 66.8402C241.982 66.4794 240.982 66.4228 240.04 66.6789C239.098 66.935 238.264 67.4899 237.664 68.2604C237.064 69.0308 236.73 69.9751 236.713 70.9514H236.638C235.536 70.9514 234.479 71.3893 233.699 72.1687C232.92 72.9482 232.482 74.0053 232.482 75.1076C232.482 76.2099 232.92 77.267 233.699 78.0464C234.479 78.8258 235.536 79.2637 236.638 79.2637H251.896C252.53 79.2418 253.13 78.973 253.569 78.5145C254.007 78.0561 254.249 77.4444 254.242 76.8101Z" fill="#E0E0E0"/>
<path d="M114.319 42.4415C114.319 42.053 114.165 41.6805 113.89 41.4058C113.615 41.1311 113.243 40.9768 112.854 40.9768C112.712 40.9734 112.57 40.9939 112.435 41.0374C112.454 40.8827 112.463 40.7269 112.462 40.571C112.459 39.7528 112.131 38.9693 111.552 38.3916C110.973 37.8139 110.188 37.4889 109.37 37.4877C109.177 37.4862 108.985 37.5034 108.796 37.539C108.49 37.0373 108.029 36.6485 107.483 36.4315C106.937 36.2144 106.335 36.1807 105.769 36.3354C105.202 36.4902 104.7 36.825 104.34 37.2895C103.98 37.7539 103.781 38.3228 103.772 38.9104H103.726C103.082 38.9382 102.474 39.2135 102.028 39.6789C101.582 40.1443 101.333 40.7639 101.333 41.4083C101.333 42.0527 101.582 42.6722 102.028 43.1376C102.474 43.603 103.082 43.8783 103.726 43.9062H112.896C113.277 43.8952 113.639 43.7361 113.905 43.4626C114.171 43.1891 114.319 42.8228 114.319 42.4415Z" fill="#F0F0F0"/>
<path d="M327.206 50.6183C327.206 50.2828 327.139 49.9506 327.011 49.6408C326.882 49.3309 326.694 49.0494 326.457 48.8124C326.219 48.5754 325.937 48.3876 325.627 48.2596C325.317 48.1317 324.985 48.0661 324.649 48.0667C324.403 48.0651 324.157 48.1013 323.922 48.174C323.959 47.9145 323.978 47.6526 323.978 47.3904C323.975 46.597 323.798 45.8139 323.46 45.0962C323.122 44.3786 322.63 43.7439 322.02 43.2368C321.41 42.7298 320.696 42.3628 319.928 42.1616C319.161 41.9605 318.358 41.9302 317.578 42.0728C317.043 41.1985 316.24 40.5215 315.287 40.1436C314.335 39.7656 313.285 39.7072 312.297 39.9771C311.308 40.2469 310.434 40.8305 309.806 41.64C309.178 42.4495 308.829 43.4411 308.813 44.4657H308.734C307.578 44.4657 306.47 44.9247 305.653 45.7417C304.836 46.5588 304.377 47.6669 304.377 48.8224C304.377 49.9779 304.836 51.086 305.653 51.9031C306.47 52.7201 307.578 53.1791 308.734 53.1791H324.724C325.39 53.1608 326.023 52.8827 326.486 52.4042C326.95 51.9256 327.208 51.2846 327.206 50.6183Z" fill="#F0F0F0"/>
<path d="M189.899 81.6471C189.899 80.8813 189.595 80.1469 189.053 79.6054C188.512 79.0639 187.778 78.7597 187.012 78.7597C186.732 78.7605 186.454 78.8013 186.186 78.881C186.23 78.5876 186.25 78.2913 186.247 77.9947C186.245 77.0974 186.047 76.2114 185.665 75.3994C185.283 74.5874 184.727 73.8694 184.037 73.2961C183.346 72.7228 182.538 72.3084 181.67 72.0821C180.802 71.8558 179.894 71.8233 179.012 71.9867C178.41 70.9969 177.502 70.2299 176.425 69.8012C175.349 69.3726 174.162 69.3057 173.044 69.6106C171.926 69.9154 170.938 70.5756 170.228 71.4914C169.518 72.4072 169.126 73.529 169.109 74.6875H169.016C167.747 74.7428 166.548 75.2859 165.669 76.2036C164.79 77.1213 164.3 78.3428 164.3 79.6133C164.3 80.8838 164.79 82.1053 165.669 83.023C166.548 83.9408 167.747 84.4839 169.016 84.5391H187.096C187.848 84.5184 188.562 84.2043 189.086 83.6639C189.61 83.1235 189.902 82.3997 189.899 81.6471Z" fill="#E0E0E0"/>
<path d="M301.98 177.695H304.988V70.3073C304.988 67.7094 303.956 65.2178 302.119 63.3808C300.282 61.5438 297.791 60.5117 295.193 60.5117H292.534V63.5204H295.193C296.986 63.5228 298.705 64.2362 299.973 65.5041C301.241 66.772 301.954 68.4909 301.956 70.284L301.98 177.695Z" fill="#E0E0E0"/>
<path d="M273.297 64.2155H294.959L294.465 60.9503C294.384 60.4161 294.133 59.9221 293.751 59.5409C293.368 59.1596 292.872 58.9114 292.338 58.8326C290.911 58.6227 289.045 58.3662 288.168 58.3662C285.607 58.3102 279.305 58.9679 276.199 59.2991C275.684 59.3549 275.2 59.5681 274.812 59.9096C274.424 60.2511 274.15 60.7042 274.029 61.2069L273.297 64.2155Z" fill="#EBEBEB"/>
<path d="M275.587 66.5059H292.688C293.294 66.5059 293.876 66.2652 294.306 65.8367C294.735 65.4082 294.977 64.8268 294.978 64.2202H273.297C273.297 64.5208 273.356 64.8184 273.472 65.096C273.587 65.3736 273.755 65.6258 273.968 65.8381C274.181 66.0504 274.433 66.2186 274.711 66.3332C274.989 66.4478 275.287 66.5065 275.587 66.5059Z" fill="#F5F5F5"/>
<path d="M291.685 80.9615C291.662 80.9607 291.639 80.9531 291.62 80.9399C291.601 80.9267 291.586 80.9083 291.578 80.8869L287.515 71.3059C287.509 71.2915 287.506 71.2761 287.506 71.2605C287.506 71.2449 287.509 71.2295 287.515 71.2151C287.521 71.2008 287.53 71.1878 287.541 71.1769C287.552 71.1661 287.566 71.1576 287.58 71.1519C287.594 71.1451 287.609 71.1413 287.624 71.1407C287.639 71.1401 287.654 71.1428 287.668 71.1485C287.683 71.1543 287.695 71.1629 287.706 71.174C287.716 71.185 287.724 71.1982 287.729 71.2126L291.792 80.7983C291.798 80.8124 291.802 80.8275 291.802 80.8429C291.802 80.8583 291.8 80.8736 291.794 80.8879C291.788 80.9022 291.78 80.9152 291.769 80.9263C291.758 80.9373 291.746 80.9461 291.732 80.9522L291.685 80.9615Z" fill="#E0E0E0"/>
<path d="M283.303 87.0441C283.272 87.0441 283.242 87.0318 283.22 87.01C283.198 86.9881 283.186 86.9584 283.186 86.9275C283.186 84.1614 283.275 81.5819 283.359 79.091C283.443 76.6001 283.527 74.0253 283.527 71.2592C283.527 71.2283 283.539 71.1986 283.561 71.1767C283.583 71.1549 283.612 71.1426 283.643 71.1426C283.674 71.1426 283.704 71.1549 283.726 71.1767C283.748 71.1986 283.76 71.2283 283.76 71.2592C283.76 74.0253 283.671 76.6048 283.592 79.0957C283.513 81.5866 283.419 84.1614 283.419 86.9275C283.419 86.9584 283.407 86.9881 283.385 87.01C283.363 87.0318 283.334 87.0441 283.303 87.0441Z" fill="#E0E0E0"/>
<path d="M274.328 78.7456C274.301 78.7451 274.276 78.737 274.253 78.7223C274.242 78.7118 274.233 78.6992 274.227 78.6851C274.221 78.6711 274.218 78.656 274.218 78.6407C274.218 78.6254 274.221 78.6102 274.227 78.5962C274.233 78.5821 274.242 78.5695 274.253 78.559L280.163 70.7459C280.173 70.7336 280.184 70.7233 280.197 70.7155C280.21 70.7077 280.225 70.7026 280.24 70.7004C280.255 70.6982 280.271 70.6991 280.286 70.7029C280.3 70.7067 280.314 70.7134 280.327 70.7225C280.338 70.733 280.347 70.7457 280.353 70.7597C280.359 70.7737 280.362 70.7889 280.362 70.8042C280.362 70.8195 280.359 70.8346 280.353 70.8486C280.347 70.8627 280.338 70.8753 280.327 70.8858L274.398 78.6803C274.392 78.6957 274.382 78.7095 274.37 78.7208C274.358 78.7321 274.344 78.7406 274.328 78.7456Z" fill="#E0E0E0"/>
<path d="M313.492 232.901C313.492 234.482 258.65 235.76 191 235.76C123.35 235.76 68.5083 234.473 68.5083 232.901C68.5083 231.329 123.364 230.042 191 230.042C258.636 230.042 313.492 231.324 313.492 232.901Z" fill="#F5F5F5"/>
<path d="M44.9427 56.6543H90.9494C92.575 56.6543 94.134 57.3001 95.2834 58.4495C96.4329 59.599 97.0786 61.158 97.0786 62.7836V161.327C97.0786 163.431 96.2432 165.447 94.7561 166.935C93.2689 168.422 91.252 169.257 89.1488 169.257H46.7572C44.6541 169.257 42.6371 168.422 41.15 166.935C39.6628 165.447 38.8274 163.431 38.8274 161.327V62.7836C38.8274 61.1604 39.4712 59.6035 40.6177 58.4545C41.7641 57.3054 43.3195 56.658 44.9427 56.6543Z" fill="#263238"/>
<path d="M80.0249 59.1827L79.0919 61.0485H56.2915L54.9388 59.1827H44.1589C43.7516 59.1802 43.3477 59.258 42.9704 59.4116C42.5932 59.5653 42.2498 59.7917 41.96 60.078C41.6703 60.3643 41.4397 60.7049 41.2816 61.0803C41.1234 61.4557 41.0408 61.8586 41.0383 62.266V161.621C41.0457 162.865 41.5466 164.055 42.4309 164.93C43.3151 165.804 44.5105 166.292 45.7542 166.286H90.1377C90.7537 166.29 91.3644 166.172 91.9349 165.939C92.5053 165.707 93.0244 165.364 93.4624 164.931C93.9004 164.498 94.2487 163.983 94.4874 163.415C94.7261 162.847 94.8505 162.237 94.8536 161.621V62.266C94.8511 61.8586 94.7685 61.4557 94.6103 61.0803C94.4522 60.7049 94.2216 60.3643 93.9318 60.078C93.6421 59.7917 93.2987 59.5653 92.9214 59.4116C92.5442 59.258 92.1403 59.1802 91.733 59.1827H80.0249Z" fill="#407BFF"/>
<path d="M66.9827 59.943C67.5006 59.943 67.9203 59.5233 67.9203 59.0055C67.9203 58.4876 67.5006 58.0679 66.9827 58.0679C66.4649 58.0679 66.0452 58.4876 66.0452 59.0055C66.0452 59.5233 66.4649 59.943 66.9827 59.943Z" fill="white"/>
<path d="M69.3057 59.005C69.3057 59.0973 69.2784 59.1875 69.2271 59.2642C69.1759 59.3409 69.103 59.4007 69.0178 59.436C68.9325 59.4713 68.8387 59.4805 68.7483 59.4625C68.6578 59.4445 68.5747 59.4001 68.5094 59.3349C68.4442 59.2696 68.3998 59.1865 68.3818 59.096C68.3638 59.0055 68.373 58.9118 68.4083 58.8265C68.4436 58.7413 68.5034 58.6684 68.5801 58.6172C68.6568 58.5659 68.747 58.5386 68.8393 58.5386C68.963 58.5386 69.0816 58.5877 69.1691 58.6752C69.2566 58.7627 69.3057 58.8813 69.3057 59.005Z" fill="white"/>
<path d="M91.733 59.1827H80.0249L79.0919 61.0485H56.2915L54.9388 59.1827H44.1589C43.7516 59.1802 43.3477 59.258 42.9704 59.4116C42.5932 59.5653 42.2498 59.7917 41.96 60.078C41.6703 60.3643 41.4397 60.7049 41.2816 61.0803C41.1234 61.4557 41.0408 61.8586 41.0383 62.266V87.6832H94.8536V62.266C94.8511 61.8586 94.7685 61.4557 94.6103 61.0803C94.4522 60.7049 94.2216 60.3643 93.9318 60.078C93.6421 59.7917 93.2987 59.5653 92.9214 59.4116C92.5442 59.258 92.1403 59.1802 91.733 59.1827Z" fill="#407BFF"/>
<path opacity="0.6" d="M87.88 61.1372H87.4602V62.0841H87.88V61.1372Z" fill="white"/>
<path opacity="0.6" d="M91.5277 60.792H88.1692V62.4339H91.5277V60.792Z" fill="white"/>
<path opacity="0.4" d="M94.8348 83.4292H41.0989V162.998H94.8348V83.4292Z" fill="white"/>
<path opacity="0.2" d="M94.8349 95.6688V91.6853L82.1939 103.347L68.8439 98.9014L77.2075 83.4336H73.8443L70.2806 90.0107L44.4155 83.4243H41.1083V85.5654L50.8433 88.0329L42.9415 101.947L61.4739 106.304L59.2722 110.395L41.0803 105.838V108.818L57.8308 113.016L52.4292 123.027L43.8651 120.62L41.099 122.364V125.821L44.3642 123.764L51.0299 125.629L41.099 143.98V150.207L47.5874 138.21L56.4128 140.715V151.662L74.3854 162.997H80.2628L59.3981 149.843V141.55L94.8489 151.592V148.588L84.2743 145.58L87.5069 128.391L94.8676 130.257V127.281L74.9918 122.252L83.8032 105.861L94.8349 95.6688ZM47.4288 100.03L53.8286 88.8026L68.8765 92.6369L62.9059 103.673L47.4288 100.03ZM84.5775 127.654L81.3823 144.773L48.9961 135.584L58.064 118.791L61.5345 122.523L72.4403 124.58L84.5775 127.654ZM71.9831 121.562L63.1204 119.878L59.566 116.076L67.4632 101.467L80.4494 105.8L71.9831 121.562Z" fill="black"/>
<path opacity="0.6" d="M85.5058 78.9839H54.3278C53.7962 78.9839 53.2863 78.7734 52.9095 78.3984C52.5327 78.0234 52.3198 77.5144 52.3174 76.9828C52.3186 76.4512 52.5303 75.9418 52.9062 75.5659C53.2821 75.19 53.7916 74.9783 54.3231 74.9771H85.5058C85.7692 74.9783 86.0298 75.0314 86.2727 75.1333C86.5156 75.2352 86.736 75.384 86.9214 75.5711C87.1068 75.7582 87.2535 75.98 87.3532 76.2239C87.4529 76.4677 87.5035 76.7287 87.5023 76.9921C87.4986 77.5201 87.2869 78.0253 86.9132 78.3981C86.5395 78.771 86.0338 78.9815 85.5058 78.9839Z" fill="white"/>
<path d="M49.8823 75.5601C49.7397 75.4171 49.5703 75.3036 49.3838 75.2262C49.1973 75.1487 48.9974 75.1089 48.7954 75.1089C48.5935 75.1089 48.3935 75.1487 48.207 75.2262C48.0205 75.3036 47.8511 75.4171 47.7086 75.5601C47.4265 75.8478 47.2686 76.2347 47.2686 76.6376C47.2686 77.0405 47.4265 77.4274 47.7086 77.7151L48.7861 78.7926L49.8636 77.7151C50.1482 77.4298 50.3095 77.0443 50.313 76.6414C50.3165 76.2385 50.1618 75.8502 49.8823 75.5601ZM49.2805 77.132C49.1846 77.2278 49.0624 77.2931 48.9294 77.3195C48.7965 77.3459 48.6586 77.3323 48.5334 77.2803C48.4081 77.2284 48.3011 77.1405 48.2258 77.0278C48.1504 76.915 48.1102 76.7825 48.1102 76.6469C48.1102 76.5113 48.1504 76.3788 48.2258 76.266C48.3011 76.1533 48.4081 76.0654 48.5334 76.0135C48.6586 75.9616 48.7965 75.9479 48.9294 75.9743C49.0624 76.0007 49.1846 76.066 49.2805 76.1618C49.3449 76.2252 49.3959 76.3007 49.4308 76.384C49.4656 76.4672 49.4836 76.5566 49.4836 76.6469C49.4836 76.7372 49.4656 76.8266 49.4308 76.9099C49.3959 76.9931 49.3449 77.0687 49.2805 77.132Z" fill="white"/>
<path d="M82.4878 144.181C82.1045 144.194 81.7337 144.32 81.4216 144.543C81.1096 144.766 80.87 145.076 80.7327 145.434C80.5955 145.792 80.5666 146.183 80.6497 146.557C80.7329 146.932 80.9243 147.273 81.2002 147.54C81.4761 147.806 81.8243 147.986 82.2014 148.055C82.5785 148.125 82.9679 148.083 83.3209 147.933C83.674 147.783 83.9752 147.533 84.187 147.213C84.3989 146.893 84.5119 146.519 84.5122 146.135C84.5079 145.874 84.4522 145.616 84.3481 145.376C84.244 145.136 84.0936 144.919 83.9055 144.738C83.7175 144.556 83.4954 144.413 83.2522 144.318C83.0089 144.222 82.7491 144.176 82.4878 144.181ZM82.4878 147.404C82.2377 147.396 81.9955 147.314 81.7916 147.169C81.5877 147.024 81.431 146.822 81.3412 146.588C81.2514 146.355 81.2323 146.1 81.2865 145.855C81.3406 145.611 81.4656 145.388 81.6457 145.214C81.8258 145.041 82.0531 144.924 82.2992 144.879C82.5453 144.833 82.7993 144.862 83.0295 144.96C83.2597 145.058 83.4558 145.222 83.5934 145.431C83.731 145.64 83.804 145.885 83.8032 146.135C83.8001 146.305 83.7637 146.472 83.6959 146.628C83.6282 146.783 83.5304 146.924 83.4083 147.042C83.2861 147.16 83.142 147.252 82.984 147.314C82.8261 147.376 82.6574 147.407 82.4878 147.404Z" fill="white"/>
<path d="M83.2902 146.135C83.2957 146.295 83.2535 146.453 83.1688 146.588C83.0841 146.724 82.9608 146.831 82.8148 146.896C82.6687 146.961 82.5066 146.981 82.3492 146.953C82.1918 146.926 82.0462 146.852 81.9312 146.741C81.8162 146.63 81.7369 146.487 81.7036 146.33C81.6703 146.174 81.6845 146.011 81.7443 145.863C81.8041 145.715 81.9069 145.588 82.0393 145.498C82.1718 145.409 82.328 145.361 82.4879 145.361C82.6966 145.358 82.8979 145.438 83.0481 145.583C83.1983 145.728 83.2853 145.927 83.2902 146.135Z" fill="white"/>
<path opacity="0.4" d="M75.5515 90.2861L71.2834 98.2392L82.1986 101.472L88.2252 95.4685C83.902 93.9929 79.67 92.2625 75.5515 90.2861Z" fill="white"/>
<path opacity="0.4" d="M94.8348 83.4243V88.8539L89.4939 94.2088C85.9021 92.9727 82.3571 91.6386 78.9053 90.09C78.033 89.7028 77.1654 89.297 76.3118 88.8772L79.2178 83.4243H94.8348Z" fill="white"/>
<path opacity="0.4" d="M67.967 103.23L78.1031 106.528L73.0327 116.762L62.7473 113.572L67.967 103.23Z" fill="white"/>
<path opacity="0.4" d="M78.1169 120.848C78.2056 120.573 83.0987 110.801 83.0987 110.801L90.3475 112.979L91.6256 124.03L78.1169 120.848Z" fill="white"/>
<path opacity="0.4" d="M84.8621 108.842L92.456 110.801L93.067 102.479L86.2101 106.099L84.8621 108.842Z" fill="white"/>
<path opacity="0.4" d="M63.2651 136.004C63.4191 135.883 66.7869 125.868 66.7869 125.868L82.4879 128.536L79.871 141.904L63.2651 136.004Z" fill="white"/>
<path opacity="0.4" d="M54.8175 130.28L59.5521 131.787L57.1825 135.985C57.1825 135.985 52.196 134.88 52.196 134.558C52.196 134.236 54.8175 130.28 54.8175 130.28Z" fill="white"/>
<path opacity="0.4" d="M55.0786 142.959C54.962 143.234 52.084 163.016 52.084 163.016H41.0989L41.4254 156.285L48.0771 141.499L55.0786 142.959Z" fill="white"/>
<path opacity="0.4" d="M94.8349 152.717V161.062L82.8236 161.528L72.3843 154.023C72.3843 154.023 74.1801 149.032 74.7166 147.446L94.8349 152.717Z" fill="white"/>
<path opacity="0.4" d="M73.1119 146.998L64.0953 144.628L62.8125 148.906L70.9755 153.165C70.9755 153.165 73.1119 147.404 73.1119 146.998Z" fill="white"/>
<path opacity="0.4" d="M94.8349 135.593V144.708L86.5366 142.958L88.2252 134.333L94.8349 135.593Z" fill="white"/>
<path opacity="0.4" d="M45.1851 118.125L47.8159 112.322L55.1439 114.407L52.1959 120.471L45.1851 118.125Z" fill="white"/>
<path opacity="0.4" d="M51.8601 97.936L55.4752 91.6201L65.2754 94.3629L61.9869 101.108L51.8601 97.936Z" fill="white"/>
<path opacity="0.4" d="M71.4468 83.4243C70.5139 85.1969 69.3664 87.4498 69.1798 87.5944C68.9932 87.7391 56.8747 84.7724 51.5291 83.4243H71.4468Z" fill="white"/>
<path opacity="0.4" d="M47.8112 89.7684L41.0989 103.305V88.0845L47.8112 89.7684Z" fill="white"/>
<path d="M83.2902 143.784H83.2155C83.109 143.766 83.0137 143.707 82.9494 143.62C82.8851 143.533 82.8568 143.425 82.8704 143.318L85.7857 127.066C78.196 124.833 70.4855 123.032 62.6914 121.674C62.5992 121.659 62.5142 121.615 62.4489 121.548L57.5277 116.417C57.469 116.356 57.4311 116.278 57.4194 116.194C57.4077 116.111 57.4227 116.025 57.4624 115.95L63.1905 105.32L45.1339 101.378C45.0799 101.368 45.0285 101.347 44.9829 101.316C44.9372 101.285 44.8983 101.245 44.8682 101.199C44.8382 101.153 44.8178 101.102 44.8081 101.047C44.7985 100.993 44.7998 100.938 44.8121 100.884C44.8212 100.846 44.8353 100.81 44.8541 100.777L50.918 90.0761C50.9808 89.9836 51.0746 89.9168 51.1824 89.8877C51.2903 89.8586 51.405 89.8692 51.5058 89.9175C51.5546 89.9433 51.5978 89.9787 51.6327 90.0217C51.6675 90.0646 51.6934 90.1141 51.7086 90.1673C51.7238 90.2204 51.7282 90.2761 51.7214 90.3309C51.7146 90.3858 51.6968 90.4388 51.669 90.4866L45.8336 100.711L63.8809 104.653C63.9346 104.664 63.9856 104.686 64.0309 104.717C64.0762 104.747 64.115 104.787 64.1449 104.833C64.1748 104.879 64.1954 104.93 64.2053 104.984C64.2152 105.038 64.2143 105.094 64.2027 105.147C64.1966 105.182 64.1839 105.215 64.1654 105.245L58.3394 116.062L62.9573 120.881C70.8651 122.264 78.6866 124.102 86.3828 126.385C86.4809 126.413 86.5654 126.475 86.6197 126.562C86.674 126.648 86.6943 126.751 86.6767 126.852L83.7147 143.439C83.696 143.537 83.6431 143.626 83.5655 143.689C83.4878 143.752 83.3903 143.786 83.2902 143.784Z" fill="white"/>
<path d="M53.2129 84.7399C52.7769 84.3126 52.1908 84.0732 51.5803 84.0732C50.9698 84.0732 50.3837 84.3126 49.9477 84.7399C49.5204 85.1759 49.281 85.7621 49.281 86.3725C49.281 86.983 49.5204 87.5692 49.9477 88.0051L51.5803 89.6378L53.2129 88.0051C53.6402 87.5692 53.8796 86.983 53.8796 86.3725C53.8796 85.7621 53.6402 85.1759 53.2129 84.7399ZM52.28 87.1096C52.1346 87.2553 51.9493 87.3546 51.7474 87.3949C51.5456 87.4353 51.3363 87.4148 51.1461 87.3361C50.9559 87.2575 50.7933 87.1241 50.6789 86.953C50.5645 86.7819 50.5034 86.5807 50.5034 86.3749C50.5034 86.169 50.5645 85.9678 50.6789 85.7967C50.7933 85.6256 50.9559 85.4923 51.1461 85.4136C51.3363 85.335 51.5456 85.3145 51.7474 85.3548C51.9493 85.3952 52.1346 85.4945 52.28 85.6402C52.3797 85.7358 52.4593 85.8502 52.5143 85.9769C52.5693 86.1036 52.5985 86.2399 52.6002 86.378C52.6019 86.516 52.5762 86.6531 52.5244 86.7811C52.4726 86.9091 52.3959 87.0255 52.2987 87.1235L52.28 87.1096Z" fill="white"/>
<path d="M79.218 85.5093H59.6221C58.6509 85.5093 57.8635 86.2966 57.8635 87.2678V93.9335C57.8635 94.9047 58.6509 95.692 59.6221 95.692H79.218C80.1892 95.692 80.9765 94.9047 80.9765 93.9335V87.2678C80.9765 86.2966 80.1892 85.5093 79.218 85.5093Z" fill="white"/>
<path d="M63.279 90.4399C64.0545 90.4399 64.6831 89.8113 64.6831 89.0359C64.6831 88.2604 64.0545 87.6318 63.279 87.6318C62.5036 87.6318 61.875 88.2604 61.875 89.0359C61.875 89.8113 62.5036 90.4399 63.279 90.4399Z" fill="#407BFF"/>
<path d="M63.279 90.603C62.6848 90.6043 62.1153 90.8412 61.6955 91.2618C61.2758 91.6825 61.04 92.2524 61.04 92.8467H65.5227C65.5227 92.552 65.4647 92.2603 65.3519 91.9881C65.2392 91.7159 65.0739 91.4685 64.8655 91.2602C64.6572 91.0518 64.4099 90.8866 64.1376 90.7738C63.8654 90.6611 63.5737 90.603 63.279 90.603Z" fill="#407BFF"/>
<path d="M69.5529 90.4399C69.8297 90.4399 70.1003 90.3578 70.3304 90.204C70.5605 90.0503 70.7399 89.8317 70.8458 89.576C70.9517 89.3203 70.9794 89.0389 70.9254 88.7675C70.8714 88.496 70.7382 88.2467 70.5424 88.051C70.3467 87.8553 70.0974 87.722 69.8259 87.668C69.5545 87.614 69.2731 87.6417 69.0174 87.7476C68.7617 87.8535 68.5432 88.0329 68.3894 88.263C68.2356 88.4932 68.1536 88.7637 68.1536 89.0405C68.1536 89.4116 68.301 89.7676 68.5634 90.03C68.8259 90.2924 69.1818 90.4399 69.5529 90.4399Z" fill="#407BFF"/>
<path d="M69.553 90.603C68.9583 90.6043 68.3883 90.841 67.9678 91.2615C67.5473 91.682 67.3106 92.252 67.3093 92.8467H71.7966C71.7966 92.2516 71.5603 91.6809 71.1395 91.2602C70.7187 90.8394 70.148 90.603 69.553 90.603Z" fill="#407BFF"/>
<path d="M75.8268 90.5564C75.526 90.5564 75.232 90.4673 74.982 90.3002C74.7319 90.1331 74.537 89.8956 74.4219 89.6177C74.3068 89.3399 74.2767 89.0341 74.3354 88.7391C74.394 88.4441 74.5389 88.1732 74.7515 87.9605C74.9642 87.7479 75.2352 87.603 75.5301 87.5444C75.8251 87.4857 76.1309 87.5158 76.4087 87.6309C76.6866 87.746 76.9241 87.9409 77.0912 88.191C77.2583 88.441 77.3475 88.735 77.3475 89.0358C77.3475 89.4391 77.1872 89.8259 76.9021 90.1111C76.6169 90.3962 76.2301 90.5564 75.8268 90.5564ZM75.8268 87.7577C75.5722 87.7577 75.3233 87.8332 75.1116 87.9747C74.8998 88.1161 74.7348 88.3172 74.6374 88.5524C74.5399 88.7877 74.5144 89.0465 74.5641 89.2963C74.6138 89.546 74.7364 89.7754 74.9165 89.9555C75.0965 90.1355 75.3259 90.2581 75.5756 90.3078C75.8254 90.3575 76.0842 90.332 76.3195 90.2345C76.5547 90.1371 76.7558 89.9721 76.8973 89.7604C77.0387 89.5487 77.1142 89.2997 77.1142 89.0451C77.1148 88.8754 77.082 88.7073 77.0177 88.5503C76.9533 88.3933 76.8586 88.2505 76.7391 88.1301C76.6195 88.0097 76.4774 87.914 76.3209 87.8485C76.1644 87.783 75.9965 87.749 75.8268 87.7484V87.7577Z" fill="#407BFF"/>
<path d="M78.1872 92.9632H73.4526V92.8466C73.4526 92.2206 73.7013 91.6203 74.1439 91.1776C74.5866 90.735 75.1869 90.4863 75.8129 90.4863C76.4389 90.4863 77.0392 90.735 77.4819 91.1776C77.9245 91.6203 78.1732 92.2206 78.1732 92.8466L78.1872 92.9632ZM73.7045 92.73H77.9493C77.9136 92.1914 77.6744 91.6866 77.2803 91.3177C76.8862 90.9489 76.3667 90.7437 75.8269 90.7437C75.2871 90.7437 74.7676 90.9489 74.3735 91.3177C73.9794 91.6866 73.7403 92.1914 73.7045 92.73Z" fill="#407BFF"/>
<path d="M58.9364 85.5093H54.9155C54.9155 85.5093 58.2834 88.2147 58.3626 88.2147C58.4419 88.2147 58.9364 85.5093 58.9364 85.5093Z" fill="white"/>
<path opacity="0.4" d="M55.0788 162.997C54.7337 162.997 57.803 156.406 57.7843 156.28C57.7003 155.753 69.1239 162.997 69.1239 162.997H55.0788Z" fill="white"/>
<path d="M189.908 71.0026C193.207 67.8035 197.631 66.03 202.226 66.065C206.821 66.0999 211.218 67.9405 214.467 71.1894C217.717 74.4382 219.558 78.8347 219.594 83.4295C219.63 88.0244 217.857 92.449 214.659 95.7481L204.774 105.637C204.115 106.296 203.221 106.666 202.288 106.666C201.356 106.666 200.462 106.296 199.802 105.637L189.908 95.7435C186.629 92.4617 184.787 88.0123 184.787 83.373C184.787 78.7338 186.629 74.2843 189.908 71.0026ZM202.284 91.5267C203.891 91.5267 205.462 91.0501 206.798 90.1573C208.134 89.2644 209.176 87.9953 209.791 86.5106C210.406 85.0258 210.567 83.392 210.253 81.8158C209.94 80.2395 209.166 78.7917 208.029 77.6553C206.893 76.5189 205.445 75.745 203.869 75.4314C202.293 75.1179 200.659 75.2788 199.174 75.8938C197.689 76.5089 196.42 77.5503 195.527 78.8866C194.634 80.2229 194.158 81.7939 194.158 83.401C194.163 85.5533 195.021 87.6158 196.544 89.1363C198.067 90.6569 200.131 91.5115 202.284 91.5127V91.5267Z" fill="#407BFF"/>
<path d="M294.353 104.433H293.887V87.487H219.361V87.0205H294.353V104.433Z" fill="#407BFF"/>
<path d="M294.12 105.339C295.148 105.339 295.981 104.505 295.981 103.477C295.981 102.449 295.148 101.616 294.12 101.616C293.092 101.616 292.259 102.449 292.259 103.477C292.259 104.505 293.092 105.339 294.12 105.339Z" fill="#407BFF"/>
<path d="M347.626 94.3027C352.117 91.7291 353.67 86.0026 351.097 81.5124C348.523 77.0221 342.796 75.4684 338.306 78.0421C333.816 80.6158 332.262 86.3422 334.836 90.8325C337.41 95.3227 343.136 96.8764 347.626 94.3027Z" fill="#407BFF"/>
<path d="M336.693 90.0576L334.296 89.7871L333.312 92.6698L336.297 92.5159L336.693 90.0576Z" fill="#407BFF"/>
<path d="M354.363 85.8316C354.333 85.8292 354.305 85.8152 354.285 85.7926C354.265 85.77 354.254 85.7405 354.256 85.7103C354.319 84.2035 354.013 82.704 353.362 81.3434C352.711 79.9828 351.737 78.8027 350.524 77.9065C350.509 77.8988 350.496 77.888 350.485 77.8747C350.475 77.8615 350.468 77.8462 350.464 77.8298C350.46 77.8135 350.459 77.7964 350.463 77.7799C350.466 77.7634 350.473 77.7478 350.483 77.7342C350.493 77.7206 350.505 77.7093 350.52 77.701C350.535 77.6928 350.551 77.6878 350.568 77.6864C350.584 77.6851 350.601 77.6873 350.617 77.6931C350.633 77.6989 350.647 77.708 350.659 77.7199C351.905 78.6376 352.907 79.8476 353.576 81.2434C354.244 82.6392 354.559 84.178 354.493 85.7243C354.492 85.7401 354.488 85.7554 354.481 85.7695C354.473 85.7835 354.463 85.7959 354.451 85.8059C354.439 85.816 354.425 85.8234 354.41 85.8278C354.394 85.8322 354.379 85.8335 354.363 85.8316Z" fill="#407BFF"/>
<path d="M353.98 88.5836C353.965 88.5886 353.949 88.5886 353.934 88.5836C353.919 88.5786 353.906 88.5706 353.895 88.5601C353.884 88.5496 353.875 88.5368 353.87 88.5227C353.864 88.5086 353.861 88.4934 353.862 88.4782C353.862 88.4629 353.866 88.448 353.873 88.4344C354.043 88.017 354.127 87.5696 354.12 87.119C354.119 87.1037 354.121 87.0883 354.126 87.0739C354.131 87.0594 354.139 87.0463 354.15 87.0352C354.16 87.0242 354.173 87.0155 354.187 87.0098C354.202 87.0042 354.217 87.0016 354.232 87.0023C354.248 87.001 354.263 87.003 354.278 87.008C354.293 87.0131 354.306 87.0211 354.317 87.0316C354.329 87.0422 354.338 87.0549 354.344 87.0692C354.35 87.0834 354.354 87.0988 354.353 87.1143C354.36 87.5939 354.27 88.0699 354.088 88.5137C354.078 88.5345 354.063 88.5523 354.044 88.5647C354.025 88.5771 354.003 88.5837 353.98 88.5836Z" fill="#407BFF"/>
<path d="M343.196 86.2048C343.565 86.2048 343.926 86.0954 344.232 85.8904C344.539 85.6853 344.778 85.3939 344.92 85.053C345.061 84.7121 345.098 84.3369 345.026 83.975C344.954 83.613 344.776 83.2806 344.515 83.0196C344.254 82.7587 343.922 82.581 343.56 82.509C343.198 82.437 342.823 82.474 342.482 82.6152C342.141 82.7564 341.85 82.9955 341.645 83.3024C341.439 83.6092 341.33 83.9699 341.33 84.339C341.33 84.8338 341.527 85.3084 341.877 85.6583C342.226 86.0082 342.701 86.2048 343.196 86.2048Z" fill="white"/>
<path d="M343.196 86.4238C342.802 86.4238 342.411 86.5016 342.047 86.6526C341.683 86.8036 341.352 87.025 341.073 87.304C340.795 87.583 340.574 87.9142 340.424 88.2786C340.273 88.643 340.196 89.0335 340.197 89.4278H346.2C346.2 88.6311 345.883 87.867 345.32 87.3037C344.757 86.7403 343.993 86.4238 343.196 86.4238Z" fill="white"/>
<path d="M154.636 106.928C156.547 102.118 154.196 96.67 149.386 94.7597C144.576 92.8494 139.128 95.2002 137.217 100.01C135.307 104.82 137.658 110.268 142.468 112.179C147.278 114.089 152.726 111.738 154.636 106.928Z" fill="#407BFF"/>
<path d="M149.611 109.831L148.963 112.158L151.65 113.586L151.976 110.614L149.611 109.831Z" fill="#407BFF"/>
<path d="M157.331 103.146C157.3 103.144 157.271 103.129 157.25 103.106C157.229 103.082 157.218 103.052 157.219 103.02C157.284 101.514 156.977 100.015 156.327 98.6549C155.676 97.2949 154.701 96.1157 153.487 95.2211C153.462 95.2031 153.445 95.1758 153.44 95.1452C153.434 95.1146 153.442 95.0831 153.459 95.0578C153.477 95.0324 153.505 95.0152 153.535 95.01C153.566 95.0047 153.597 95.0119 153.623 95.0298C154.869 95.9472 155.871 97.1572 156.54 98.5531C157.208 99.949 157.523 101.488 157.457 103.034C157.455 103.066 157.44 103.095 157.417 103.116C157.393 103.137 157.363 103.147 157.331 103.146Z" fill="#407BFF"/>
<path d="M156.948 105.898H156.902C156.874 105.885 156.852 105.862 156.841 105.833C156.83 105.805 156.83 105.773 156.841 105.744C157.013 105.329 157.097 104.883 157.088 104.434C157.088 104.403 157.101 104.373 157.123 104.351C157.144 104.329 157.174 104.317 157.205 104.317C157.236 104.317 157.266 104.329 157.288 104.351C157.309 104.373 157.322 104.403 157.322 104.434C157.329 104.913 157.239 105.389 157.056 105.833C157.046 105.853 157.031 105.87 157.012 105.881C156.993 105.893 156.971 105.899 156.948 105.898Z" fill="#407BFF"/>
<path d="M145.931 103.748C146.969 103.748 147.811 102.906 147.811 101.868C147.811 100.83 146.969 99.9883 145.931 99.9883C144.893 99.9883 144.051 100.83 144.051 101.868C144.051 102.906 144.893 103.748 145.931 103.748Z" fill="white"/>
<path d="M145.931 103.967C145.135 103.967 144.373 104.283 143.81 104.846C143.248 105.408 142.932 106.171 142.932 106.967H148.935C148.935 106.572 148.857 106.182 148.706 105.818C148.555 105.454 148.334 105.123 148.055 104.844C147.776 104.566 147.445 104.345 147.08 104.194C146.716 104.044 146.325 103.967 145.931 103.967Z" fill="white"/>
<path d="M345.304 205.721L349.894 202.105C352.824 205.441 355.188 208.762 356.97 210.744L355.865 213.342L352.861 212.745C350.482 210.257 347.959 207.911 345.304 205.721Z" fill="#B97964"/>
<path d="M349.703 210.511L351.489 209.373C353.318 210.306 353.682 209.56 353.906 207.918C354.372 207.526 354.904 208.034 355.048 208.165L358.272 211.08C358.402 211.197 358.482 211.36 358.492 211.535C358.503 211.71 358.444 211.882 358.328 212.013C358.284 212.061 358.233 212.104 358.178 212.139L353.892 214.882L347.884 218.707C346.246 219.752 344.856 218.32 345.435 217.737C348.042 215.134 349.633 212.876 349.997 211.393C350.062 211.113 349.819 211.108 349.703 210.511Z" fill="#407BFF"/>
<path d="M350.995 212.214C350.978 212.218 350.961 212.218 350.944 212.214C350.715 212.109 350.467 212.055 350.216 212.055C349.965 212.055 349.717 212.109 349.488 212.214C349.474 212.22 349.459 212.223 349.444 212.223C349.428 212.224 349.413 212.221 349.399 212.215C349.384 212.21 349.371 212.201 349.36 212.191C349.349 212.18 349.34 212.167 349.334 212.153C349.327 212.139 349.323 212.124 349.322 212.109C349.321 212.094 349.324 212.078 349.329 212.064C349.334 212.049 349.342 212.036 349.353 212.025C349.363 212.014 349.376 212.005 349.39 211.999C349.65 211.88 349.933 211.819 350.218 211.819C350.504 211.819 350.786 211.88 351.046 211.999C351.074 212.012 351.095 212.036 351.106 212.065C351.116 212.093 351.115 212.125 351.102 212.153C351.091 212.171 351.075 212.186 351.056 212.197C351.037 212.207 351.016 212.213 350.995 212.214Z" fill="#263238"/>
<path d="M350.575 213.333H350.524C350.296 213.228 350.047 213.174 349.796 213.174C349.545 213.174 349.297 213.228 349.069 213.333C349.055 213.34 349.04 213.344 349.025 213.345C349.009 213.346 348.994 213.344 348.979 213.338C348.965 213.333 348.952 213.325 348.941 213.314C348.929 213.304 348.921 213.291 348.915 213.277C348.908 213.263 348.904 213.248 348.903 213.233C348.902 213.218 348.904 213.202 348.909 213.188C348.914 213.173 348.923 213.16 348.933 213.149C348.944 213.138 348.956 213.129 348.971 213.123C349.23 213.003 349.513 212.941 349.799 212.941C350.084 212.941 350.367 213.003 350.626 213.123C350.654 213.136 350.676 213.16 350.686 213.189C350.697 213.217 350.695 213.249 350.682 213.277C350.671 213.295 350.655 213.309 350.636 213.319C350.617 213.328 350.596 213.333 350.575 213.333Z" fill="#263238"/>
<path d="M349.894 214.485C349.879 214.489 349.863 214.489 349.848 214.485C349.618 214.381 349.369 214.328 349.117 214.328C348.866 214.328 348.617 214.381 348.387 214.485C348.373 214.492 348.358 214.495 348.343 214.496C348.327 214.496 348.312 214.494 348.297 214.488C348.283 214.483 348.269 214.475 348.258 214.464C348.247 214.454 348.238 214.441 348.231 214.427C348.225 214.413 348.221 214.398 348.221 214.382C348.22 214.367 348.223 214.351 348.228 214.337C348.233 214.322 348.242 214.309 348.252 214.297C348.263 214.286 348.275 214.277 348.29 214.271C348.549 214.152 348.832 214.09 349.117 214.09C349.403 214.09 349.686 214.152 349.945 214.271C349.96 214.277 349.972 214.285 349.983 214.297C349.994 214.308 350.002 214.321 350.007 214.335C350.012 214.35 350.014 214.365 350.013 214.381C350.013 214.396 350.008 214.411 350.001 214.425C349.991 214.444 349.976 214.46 349.957 214.471C349.938 214.482 349.916 214.487 349.894 214.485Z" fill="#263238"/>
<path opacity="0.7" d="M358.328 212.008C358.284 212.056 358.233 212.099 358.178 212.134L353.892 214.882L347.884 218.707C347.573 218.938 347.197 219.067 346.809 219.076C346.421 219.084 346.04 218.971 345.719 218.753C345.971 218.595 357.964 211.085 358.085 210.931L358.318 211.155C358.423 211.272 358.482 211.423 358.483 211.58C358.485 211.737 358.43 211.889 358.328 212.008Z" fill="white"/>
<path d="M318.217 205.59L325.34 209.979C324.808 215.32 323.474 220.171 323.992 222.793L321.697 224.439L318.567 221.174C318.567 221.174 318.833 211.616 318.217 205.59Z" fill="#B97964"/>
<path d="M318.282 218.818L320.4 218.776C321.482 220.512 322.177 220.073 323.199 218.776C323.815 218.693 323.992 219.392 324.048 219.583L325.289 223.744C325.34 223.911 325.323 224.092 325.242 224.246C325.16 224.401 325.021 224.517 324.855 224.57C324.793 224.588 324.728 224.598 324.663 224.598L319.579 224.705L312.461 224.859C310.52 224.896 310.077 222.951 310.875 222.755C314.453 221.883 316.972 220.773 318.063 219.7C318.282 219.546 318.068 219.392 318.282 218.818Z" fill="#407BFF"/>
<path d="M318.562 220.946C318.543 220.947 318.524 220.942 318.506 220.933C318.489 220.924 318.475 220.911 318.464 220.895C318.325 220.685 318.142 220.509 317.928 220.378C317.713 220.246 317.473 220.163 317.223 220.134C317.208 220.133 317.193 220.128 317.18 220.12C317.166 220.113 317.154 220.103 317.145 220.09C317.135 220.078 317.128 220.064 317.124 220.049C317.12 220.035 317.119 220.019 317.121 220.004C317.122 219.988 317.126 219.973 317.134 219.959C317.141 219.945 317.151 219.933 317.163 219.923C317.176 219.914 317.19 219.907 317.205 219.903C317.22 219.899 317.236 219.898 317.251 219.901C317.533 219.937 317.804 220.033 318.046 220.182C318.287 220.332 318.494 220.532 318.651 220.769C318.667 220.794 318.673 220.825 318.666 220.855C318.66 220.884 318.643 220.91 318.618 220.927C318.602 220.939 318.582 220.945 318.562 220.946Z" fill="#263238"/>
<path d="M317.62 221.701C317.601 221.701 317.582 221.696 317.565 221.687C317.548 221.679 317.533 221.666 317.522 221.65C317.382 221.441 317.199 221.264 316.985 221.132C316.771 221 316.531 220.916 316.281 220.885C316.251 220.881 316.224 220.866 316.204 220.843C316.185 220.819 316.176 220.789 316.179 220.759C316.18 220.743 316.184 220.728 316.191 220.714C316.199 220.701 316.209 220.688 316.221 220.679C316.234 220.669 316.248 220.662 316.263 220.658C316.278 220.654 316.294 220.654 316.309 220.656C316.591 220.692 316.861 220.788 317.102 220.936C317.344 221.085 317.55 221.284 317.709 221.519C317.725 221.546 317.731 221.577 317.725 221.607C317.719 221.638 317.701 221.665 317.676 221.683C317.659 221.694 317.64 221.7 317.62 221.701Z" fill="#263238"/>
<path d="M316.444 222.345C316.424 222.346 316.405 222.342 316.387 222.332C316.37 222.322 316.356 222.307 316.347 222.289C316.207 222.08 316.024 221.904 315.809 221.773C315.595 221.642 315.355 221.558 315.106 221.529C315.09 221.527 315.076 221.522 315.062 221.515C315.049 221.507 315.037 221.497 315.027 221.485C315.018 221.473 315.011 221.459 315.006 221.444C315.002 221.429 315.001 221.414 315.003 221.398C315.004 221.383 315.007 221.368 315.014 221.354C315.021 221.34 315.031 221.328 315.043 221.318C315.055 221.308 315.068 221.301 315.083 221.297C315.098 221.294 315.114 221.293 315.129 221.296C315.411 221.331 315.682 221.427 315.923 221.577C316.165 221.727 316.371 221.927 316.528 222.163C316.539 222.181 316.544 222.201 316.545 222.221C316.546 222.241 316.541 222.262 316.532 222.28C316.522 222.298 316.509 222.313 316.492 222.325C316.475 222.336 316.455 222.343 316.435 222.345H316.444Z" fill="#263238"/>
<path opacity="0.7" d="M324.873 224.579C324.811 224.598 324.747 224.607 324.682 224.607L319.598 224.714L312.48 224.868C312.094 224.903 311.707 224.816 311.373 224.62C311.038 224.425 310.773 224.13 310.614 223.777C310.908 223.777 325.074 223.586 325.242 223.516L325.326 223.828C325.355 223.987 325.325 224.151 325.242 224.289C325.158 224.428 325.027 224.531 324.873 224.579Z" fill="white"/>
<path d="M327.835 103.618C327.835 103.618 327.038 100.987 327.877 96.0796L327.611 95.9863C327.728 95.3006 327.859 94.6616 327.989 94.1205C327.99 94.1127 327.99 94.1049 327.989 94.0972L321.925 98.8504C322.252 100.352 322.037 103.352 321.855 104.63C321.855 104.63 321.286 106.962 324.286 106.729C326.497 106.542 327.835 103.618 327.835 103.618Z" fill="#B97964"/>
<path opacity="0.2" d="M322.075 100.991L325.722 99.7227C325.512 100.926 324.64 102.423 322.051 102.829C322.109 102.218 322.116 101.604 322.075 100.991Z" fill="black"/>
<path d="M327.672 90.9253C327.7 95.0954 327.798 97.4557 325.839 99.704C322.896 103.095 317.755 101.57 316.477 97.493C315.33 93.808 315.474 87.6088 319.439 85.715C320.318 85.2962 321.288 85.107 322.259 85.165C323.231 85.2231 324.172 85.5265 324.994 86.047C325.817 86.5674 326.494 87.2879 326.962 88.141C327.43 88.9941 327.675 89.9521 327.672 90.9253Z" fill="#B97964"/>
<path d="M327.873 85.8924C327.145 83.6441 321.408 84.0266 319.887 85.286C319.658 85.4773 323.152 86.9559 322.961 86.8953L324.598 87.3384C324.841 87.2685 325.345 87.5204 325.648 88.2714C325.648 88.2714 325.9 94.6525 327.831 96.3737C329.23 95.5668 329.146 93.0339 329.501 91.5039C330.028 89.2136 330.625 85.8784 327.873 85.8924Z" fill="#263238"/>
<path d="M329.561 94.2746C329.438 94.7777 329.215 95.2513 328.907 95.6677C328.599 96.0841 328.211 96.4351 327.765 96.7002C326.567 97.3999 326.012 96.0751 326.04 94.7597C326.068 93.5749 326.315 92.1149 327.663 91.961C329.011 91.807 329.86 93.0245 329.561 94.2746Z" fill="#B97964"/>
<path d="M321.823 92.5297C321.851 92.9542 321.65 93.3087 321.356 93.3273C321.062 93.346 320.829 93.0101 320.801 92.5857C320.773 92.1612 320.974 91.802 321.268 91.788C321.562 91.774 321.795 92.1052 321.823 92.5297Z" fill="#263238"/>
<path d="M317.657 92.8937C317.685 93.3182 317.485 93.6773 317.191 93.696C316.897 93.7147 316.664 93.3788 316.636 92.9543C316.608 92.5299 316.808 92.1707 317.102 92.1567C317.396 92.1427 317.629 92.4692 317.657 92.8937Z" fill="#263238"/>
<path d="M319.001 92.5674C319.001 92.5674 317.797 94.7691 317.424 95.66C318.054 96.1544 319.057 95.8372 319.057 95.8372L319.001 92.5674Z" fill="#A24E3F"/>
<path d="M322.723 90.454C322.693 90.472 322.658 90.4816 322.623 90.4816C322.587 90.4816 322.553 90.472 322.522 90.454C322.319 90.3073 322.083 90.2106 321.835 90.1717C321.587 90.1328 321.334 90.1528 321.095 90.2301C321.046 90.2502 320.991 90.2503 320.942 90.2302C320.893 90.2101 320.854 90.1715 320.834 90.1228C320.823 90.0989 320.817 90.0732 320.816 90.047C320.816 90.0209 320.82 89.9949 320.83 89.9705C320.84 89.9462 320.854 89.924 320.872 89.9053C320.89 89.8866 320.912 89.8717 320.936 89.8615C321.238 89.7596 321.559 89.7305 321.873 89.7767C322.188 89.8229 322.487 89.9431 322.746 90.1274C322.768 90.1416 322.787 90.16 322.802 90.1816C322.817 90.2032 322.827 90.2276 322.832 90.2532C322.838 90.2789 322.838 90.3053 322.832 90.331C322.827 90.3566 322.817 90.381 322.802 90.4026C322.78 90.4254 322.753 90.443 322.723 90.454Z" fill="#263238"/>
<path d="M320.54 97.2739C320.498 97.2671 320.461 97.2458 320.434 97.2137C320.406 97.1817 320.391 97.141 320.391 97.0989C320.391 97.0569 320.406 97.0162 320.434 96.9842C320.461 96.9521 320.498 96.9308 320.54 96.924C320.853 96.8852 321.156 96.7823 321.428 96.6219C321.7 96.4614 321.936 96.2467 322.121 95.9911C322.137 95.9746 322.157 95.9615 322.178 95.9525C322.199 95.9436 322.222 95.939 322.245 95.939C322.268 95.939 322.291 95.9436 322.312 95.9525C322.333 95.9615 322.352 95.9746 322.368 95.9911C322.401 96.0242 322.419 96.0685 322.419 96.1147C322.419 96.1609 322.401 96.2052 322.368 96.2383C322.15 96.5236 321.876 96.7619 321.564 96.939C321.251 97.1162 320.906 97.2285 320.549 97.2692L320.54 97.2739Z" fill="#263238"/>
<path opacity="0.2" d="M326.739 94.6803C326.724 94.6803 326.708 94.6772 326.694 94.671C326.68 94.6648 326.667 94.6557 326.656 94.6443C326.646 94.6329 326.638 94.6194 326.633 94.6047C326.628 94.59 326.626 94.5745 326.627 94.559C326.641 94.1778 326.757 93.8074 326.963 93.4861C327.131 93.2019 327.391 92.9832 327.7 92.8658C327.863 92.8117 328.038 92.8068 328.204 92.8516C328.37 92.8964 328.519 92.9889 328.633 93.1176C328.654 93.1394 328.666 93.1687 328.666 93.1993C328.666 93.2298 328.654 93.2591 328.633 93.2809C328.622 93.2921 328.61 93.301 328.596 93.307C328.582 93.3131 328.567 93.3162 328.551 93.3162C328.536 93.3162 328.521 93.3131 328.507 93.307C328.493 93.301 328.48 93.2921 328.47 93.2809C328.385 93.1869 328.274 93.1204 328.151 93.0896C328.028 93.0589 327.898 93.0654 327.779 93.1083C327.524 93.206 327.309 93.3889 327.173 93.6261C326.988 93.9135 326.883 94.2453 326.87 94.587C326.864 94.6163 326.847 94.6423 326.823 94.6597C326.799 94.677 326.769 94.6844 326.739 94.6803Z" fill="black"/>
<path d="M315.698 91.2287C315.659 91.2204 315.622 91.2028 315.591 91.1774C315.554 91.1399 315.534 91.0897 315.534 91.0374C315.534 90.9851 315.554 90.9349 315.591 90.8975C315.794 90.657 316.053 90.4691 316.344 90.3497C316.636 90.2304 316.952 90.183 317.265 90.2118C317.292 90.2152 317.317 90.2239 317.34 90.2373C317.363 90.2508 317.383 90.2687 317.398 90.2901C317.414 90.3115 317.425 90.3358 317.431 90.3616C317.437 90.3875 317.438 90.4142 317.433 90.4404C317.43 90.4661 317.421 90.4908 317.408 90.5131C317.395 90.5354 317.377 90.5547 317.356 90.57C317.335 90.5853 317.312 90.5961 317.286 90.6019C317.261 90.6077 317.235 90.6083 317.209 90.6036C316.96 90.5828 316.71 90.6229 316.48 90.7204C316.25 90.8179 316.047 90.97 315.889 91.1634C315.866 91.1898 315.836 91.2097 315.802 91.2212C315.769 91.2326 315.733 91.2352 315.698 91.2287Z" fill="#263238"/>
<path d="M328.605 84.031C328.218 83.1261 326.996 83.0235 326.1 83.2894C326.044 82.1512 324.51 81.6194 323.581 81.7314C323.103 81.7382 322.645 81.9286 322.303 82.2632C322.378 82.2632 321.958 81.7267 321.711 81.5168C321.261 81.1364 320.706 80.8997 320.12 80.8373C319.534 80.775 318.943 80.8898 318.422 81.167C317.906 81.4789 317.487 81.9301 317.215 82.4688C316.943 83.0075 316.828 83.6119 316.883 84.2129C316.721 84.0797 316.533 83.9802 316.332 83.9202C316.13 83.8602 315.919 83.8409 315.71 83.8635C315.501 83.8861 315.299 83.9501 315.115 84.0517C314.931 84.1534 314.77 84.2906 314.639 84.4555C314.395 84.8181 314.292 85.257 314.347 85.6904C314.403 86.1238 314.615 86.5221 314.943 86.8111C314.581 86.8864 314.263 87.1018 314.06 87.4103C313.856 87.7188 313.783 88.0954 313.856 88.4577C313.933 88.8159 314.148 89.1295 314.454 89.331C314.76 89.5325 315.133 89.6058 315.493 89.5352C315.61 90.3702 315.787 91.4011 315.903 92.25L316.757 89.0641C317.317 88.8122 317.405 88.537 317.466 87.898C317.961 88.6536 318.623 88.5323 319.477 88.4251C319.913 88.3589 320.323 88.1737 320.661 87.8898C320.999 87.6059 321.253 87.2343 321.394 86.8158C321.632 87.2164 321.975 87.5445 322.386 87.7647C322.797 87.985 323.26 88.0891 323.726 88.0659C324.187 88.0035 324.607 87.7715 324.906 87.4151C325.204 87.0588 325.359 86.6039 325.34 86.1394C325.637 86.5112 326.058 86.7631 326.526 86.8488C326.994 86.9345 327.477 86.8483 327.887 86.6059C328.278 86.3191 328.561 85.9095 328.691 85.4426C328.821 84.9757 328.791 84.4787 328.605 84.031Z" fill="#263238"/>
<path d="M334.916 103.352C334.916 103.352 338.648 103.454 340.117 107.592C341.517 111.403 344.987 119.808 344.987 119.808L336.633 122.252L333.307 112.303L334.916 103.352Z" fill="#407BFF"/>
<path d="M321.277 143.047L326.31 153.776C326.31 153.776 318.315 177.84 317.834 180.364C317.354 182.887 317.13 214.471 317.13 214.471H326.025L329.538 183.629C329.538 183.629 340.336 157.451 341.129 155.324C342.613 151.341 341.059 145.995 341.059 145.995L338.307 142.03L321.277 143.047Z" fill="#263238"/>
<path d="M316.389 148.425C316.389 149.4 319.859 182.733 320.428 182.855C320.997 182.976 346.139 210.469 346.139 210.469L353.276 204.2L334.832 179.188L332.803 156.714L332.071 142.581L316.011 143.779L316.389 148.425Z" fill="#263238"/>
<path opacity="0.4" d="M328.591 191.549L329.034 183.718L334.203 172.266L330.322 184.375L329.953 192.664L328.591 191.549Z" fill="black"/>
<path opacity="0.4" d="M319.271 175.252L326.31 153.781L323.857 151.542L324.635 154.62L318.963 172.705L319.271 175.252Z" fill="black"/>
<path d="M294.941 113.791L305.832 123.787L310.907 114.337C310.907 114.337 316.449 119.808 316.258 119.888C316.067 119.967 309.727 133.83 305.17 131.344C300.613 128.858 292.884 116.347 292.884 116.347L294.941 113.791Z" fill="#B97964"/>
<path opacity="0.2" d="M305.833 123.787C305.833 123.787 306.765 125.298 306.658 126.726C306.942 126.159 307.045 125.519 306.952 124.893C306.876 124.208 306.643 123.55 306.271 122.971L305.833 123.787Z" fill="black"/>
<path d="M315.857 105.833C318.833 107.359 320.027 112.779 313.636 125.849L306.005 119.958C307.227 116.692 308.468 115.004 310.427 111.044C313.529 104.9 315.857 105.833 315.857 105.833Z" fill="#407BFF"/>
<path d="M315.763 105.637C317.862 105.171 326.203 102.988 335.121 103.361L339.837 136.591C339.837 136.591 340.77 140.948 342.006 145.263C333.507 150.184 321.715 150.977 315.39 148.295C315.474 148.426 315.274 144.745 315.003 139.353C314.537 129.851 313.818 115.027 314.037 106.374C314.047 106.164 315.544 105.684 315.763 105.637Z" fill="#407BFF"/>
<path opacity="0.2" d="M314.327 124.403L314.028 113.656L312.671 125.103L313.636 125.849L314.327 124.403Z" fill="black"/>
<path opacity="0.2" d="M337.099 122.117L336.633 122.253L333.591 114.104L335.872 123.428L337.426 123.437L337.099 122.117Z" fill="black"/>
<path d="M295.99 115.526C295.99 115.526 296.825 114.206 296.527 112.951C296.228 111.697 296.326 110.619 296.06 109.686C295.794 108.753 295.253 109.957 295.127 110.647C295.001 111.338 294.805 112.117 294.302 111.925C293.798 111.734 290.906 108.138 290.183 107.946C289.46 107.755 289.744 108.483 289.744 108.483C289.744 108.483 289.017 107.629 288.602 107.825C288.494 107.876 288.326 108.17 288.602 108.609C289.208 109.602 290.593 111.617 290.593 111.617C290.514 111.501 288.63 109.136 288.298 108.819C287.869 108.404 287.459 108.427 287.226 108.683C286.894 109.047 289.133 112.061 289.138 112.256C289.138 112.256 287.907 110.475 287.272 110.545C286.638 110.615 287.356 111.771 288.177 112.676C288.933 113.507 290.197 115.33 291.046 116.095C292.095 117.028 293.01 117.443 294.222 116.916C294.921 116.613 295.53 116.134 295.99 115.526Z" fill="#B97964"/>
<path opacity="0.3" d="M291.424 110.805C291.414 110.806 291.404 110.803 291.396 110.798C291.388 110.793 291.381 110.786 291.377 110.777C290.878 110.031 290.341 109.303 289.782 108.613C289.776 108.608 289.771 108.601 289.768 108.594C289.764 108.587 289.763 108.579 289.763 108.571C289.763 108.563 289.764 108.555 289.768 108.548C289.771 108.541 289.776 108.534 289.782 108.529C289.787 108.524 289.793 108.52 289.8 108.517C289.807 108.514 289.814 108.513 289.821 108.513C289.829 108.513 289.836 108.514 289.843 108.517C289.85 108.52 289.856 108.524 289.861 108.529C290.425 109.224 290.962 109.957 291.466 110.703C291.475 110.715 291.481 110.729 291.481 110.745C291.481 110.76 291.475 110.775 291.466 110.787L291.424 110.805Z" fill="black"/>
<path opacity="0.3" d="M289.548 113.021C289.538 113.025 289.526 113.025 289.516 113.021C289.511 113.016 289.506 113.01 289.504 113.003C289.501 112.996 289.499 112.989 289.499 112.982C289.499 112.974 289.501 112.967 289.504 112.96C289.506 112.954 289.511 112.947 289.516 112.942C290.21 111.986 291.168 111.253 292.272 110.834C292.286 110.833 292.3 110.836 292.311 110.843C292.323 110.851 292.331 110.862 292.335 110.875C292.34 110.888 292.34 110.902 292.335 110.915C292.33 110.928 292.321 110.938 292.31 110.946C291.228 111.356 290.29 112.073 289.609 113.007C289.602 113.016 289.592 113.022 289.581 113.025C289.57 113.027 289.559 113.026 289.548 113.021Z" fill="black"/>
<path opacity="0.3" d="M293.989 115.158C293.98 115.157 293.972 115.155 293.964 115.151C293.955 115.147 293.948 115.141 293.943 115.134C293.648 114.741 293.499 114.257 293.523 113.765C293.547 113.274 293.742 112.806 294.073 112.443C294.085 112.433 294.1 112.428 294.115 112.428C294.131 112.428 294.145 112.433 294.157 112.443C294.168 112.454 294.174 112.469 294.174 112.485C294.174 112.501 294.168 112.516 294.157 112.527C293.843 112.869 293.658 113.311 293.635 113.775C293.612 114.24 293.752 114.697 294.031 115.069C294.036 115.074 294.041 115.081 294.043 115.087C294.046 115.094 294.048 115.101 294.048 115.109C294.048 115.116 294.046 115.123 294.043 115.13C294.041 115.137 294.036 115.143 294.031 115.148C294.019 115.157 294.004 115.16 293.989 115.158Z" fill="black"/>
<path d="M344.357 119.99C344.357 119.99 346.871 125.942 347.935 131.283C348.401 133.709 346.48 135.267 344.497 135.743C338.247 137.254 324.16 137.258 324.16 137.258L323.791 132.962L340.014 129.455L337.099 122.117L344.357 119.99Z" fill="#B97964"/>
<path d="M324.127 138.177L318.809 138.774C318.719 138.784 318.628 138.774 318.543 138.744C318.457 138.714 318.38 138.665 318.315 138.602L310.222 130.602C310.146 130.527 310.091 130.433 310.063 130.33C310.035 130.227 310.035 130.118 310.063 130.015C310.09 129.912 310.144 129.818 310.22 129.742C310.295 129.667 310.389 129.613 310.493 129.585L315.157 128.382C315.258 128.355 315.364 128.355 315.465 128.382C315.565 128.409 315.657 128.462 315.731 128.536L324.468 137.142C324.549 137.221 324.607 137.322 324.634 137.432C324.661 137.542 324.656 137.658 324.621 137.766C324.585 137.874 324.52 137.97 324.433 138.042C324.346 138.115 324.24 138.162 324.127 138.177Z" fill="#263238"/>
<path d="M324.621 132.986C324.621 132.986 324.472 132.361 322.121 131.643C320.335 131.097 318.557 129.427 318.268 129.483C317.979 129.539 317.666 130.453 318.408 131.255C319.15 132.058 319.919 132.515 319.724 132.823C319.257 133.564 313.436 132.958 313.333 133.592C313.23 134.227 314.345 136.046 317.457 137.259C320.568 138.471 324.841 137.259 324.841 137.259L324.621 132.986Z" fill="#B97964"/>
<path d="M295.272 203.714L49.9854 209.461V167.508H297.632L295.272 203.714Z" fill="#263238"/>
<path opacity="0.5" d="M295.272 203.714L49.9854 209.461V167.508H297.632L295.272 203.714Z" fill="black"/>
<path d="M40.5488 178.274V199.549C40.5492 201.769 41.2603 203.931 42.5781 205.718C43.8959 207.505 45.7511 208.823 47.8722 209.48L49.6074 210.007C50.674 210.341 51.7879 210.498 52.9053 210.473L64.3615 210.203C63.1424 205.939 62.9165 201.453 63.7012 197.088C64.4859 192.724 66.2603 188.597 68.8881 185.025C71.516 181.453 74.9274 178.531 78.8605 176.483C82.7935 174.434 87.1437 173.315 91.5769 173.209C96.0102 173.104 100.409 174.016 104.434 175.875C108.46 177.734 112.007 180.491 114.801 183.934C117.596 187.378 119.564 191.415 120.555 195.738C121.546 200.06 121.534 204.552 120.518 208.869L237.086 206.098C236.899 204.736 236.807 203.363 236.811 201.988C236.782 198.148 237.515 194.34 238.969 190.785C240.422 187.231 242.566 184 245.278 181.28C247.989 178.56 251.213 176.405 254.763 174.94C258.313 173.475 262.119 172.729 265.959 172.746C269.799 172.763 273.598 173.541 277.136 175.037C280.673 176.533 283.878 178.715 286.566 181.459C289.253 184.202 291.369 187.452 292.792 191.019C294.214 194.586 294.915 198.4 294.852 202.24C294.852 202.805 294.81 203.36 294.81 203.92C294.969 203.861 295.125 203.794 295.277 203.719L299.265 201.942C301.19 201.072 302.824 199.666 303.97 197.891C305.115 196.116 305.725 194.049 305.725 191.936V148.602C305.726 146.603 305.18 144.641 304.147 142.929C303.114 141.218 301.632 139.821 299.862 138.891L269.901 123.134C269.633 122.99 269.411 122.772 269.263 122.506C269.115 122.239 269.048 121.935 269.068 121.631C269.089 121.327 269.197 121.036 269.38 120.792C269.562 120.548 269.811 120.362 270.097 120.256L273.764 118.94C273.947 118.879 274.104 118.756 274.208 118.594C274.313 118.431 274.359 118.238 274.34 118.045C274.32 117.853 274.236 117.673 274.101 117.535C273.966 117.396 273.788 117.308 273.596 117.284C259.355 115.288 203.986 108.063 174.879 111.608C141.294 115.717 109.132 144.852 109.132 144.852C84.4098 143.919 61.3622 152.525 51.4313 156.84C49.8467 157.533 48.4244 158.549 47.2557 159.824C46.0869 161.099 45.1975 162.604 44.6443 164.243L41.2672 174.3C40.8155 175.577 40.5729 176.919 40.5488 178.274Z" fill="#407BFF"/>
<path d="M237.119 206.088C236.946 204.81 236.862 203.521 236.867 202.231C236.867 201.573 236.867 200.925 236.927 200.276L215.848 191.652C214.614 191.151 213.283 190.934 211.953 191.017L138.636 195.831C137.437 195.901 136.267 196.219 135.198 196.764L121.269 203.929C121.171 205.589 120.935 207.238 120.565 208.859L237.119 206.088Z" fill="#263238"/>
<path d="M305.749 191.927V190.821L293.826 194.469C294.522 196.997 294.874 199.608 294.871 202.231C294.871 202.795 294.829 203.35 294.829 203.91C294.988 203.851 295.143 203.784 295.295 203.71L299.293 201.932C301.217 201.062 302.85 199.655 303.995 197.881C305.14 196.106 305.749 194.039 305.749 191.927Z" fill="#263238"/>
<path d="M43.9353 207.185C45.0725 208.239 46.4324 209.023 47.9142 209.48L49.6634 210.007C50.7314 210.341 51.847 210.499 52.9659 210.473L64.4035 210.217C63.9888 208.77 63.6894 207.293 63.5079 205.799L43.9353 207.185Z" fill="#263238"/>
<path d="M265.909 170.484C261.407 170.479 256.956 171.433 252.851 173.282C248.746 175.13 245.082 177.831 242.102 181.205C239.122 184.579 236.894 188.549 235.567 192.851C234.24 197.152 233.843 201.687 234.404 206.154L237.156 206.089C236.604 202.139 236.872 198.119 237.943 194.277C239.014 190.436 240.864 186.857 243.38 183.762C245.896 180.668 249.022 178.126 252.564 176.293C256.106 174.461 259.987 173.378 263.966 173.112C267.945 172.847 271.936 173.404 275.69 174.749C279.444 176.094 282.88 178.198 285.785 180.931C288.69 183.663 291 186.964 292.572 190.629C294.144 194.294 294.944 198.243 294.922 202.231C294.922 202.795 294.876 203.351 294.876 203.91C295.034 203.851 295.19 203.784 295.342 203.71L297.632 202.674V202.231C297.624 193.813 294.276 185.742 288.323 179.79C282.37 173.838 274.299 170.491 265.881 170.484H265.909Z" fill="#263238"/>
<path d="M92.3069 170.484C87.4529 170.482 82.6632 171.594 78.306 173.733C73.9488 175.872 70.1401 178.982 67.1727 182.823C64.2054 186.664 62.1583 191.135 61.189 195.891C60.2197 200.647 60.3539 205.563 61.5813 210.259L64.38 210.193C63.1737 205.933 62.9582 201.454 63.7501 197.098C64.5419 192.741 66.32 188.624 68.9483 185.061C71.5766 181.498 74.9854 178.584 78.9136 176.541C82.8419 174.499 87.1854 173.382 91.6117 173.277C96.038 173.172 100.43 174.081 104.45 175.935C108.471 177.789 112.014 180.538 114.809 183.972C117.603 187.407 119.575 191.435 120.573 195.748C121.57 200.062 121.568 204.547 120.565 208.859L123.364 208.789C124.341 204.166 124.273 199.382 123.166 194.788C122.058 190.193 119.939 185.904 116.962 182.234C113.986 178.563 110.227 175.603 105.961 173.57C101.694 171.538 97.0281 170.483 92.3022 170.484H92.3069Z" fill="#263238"/>
<path d="M119.935 146.07C119.658 146.317 119.448 146.632 119.326 146.983C119.203 147.335 119.173 147.712 119.237 148.078C119.301 148.445 119.457 148.789 119.691 149.078C119.925 149.367 120.229 149.592 120.574 149.731L132.702 153.127C133.771 153.43 134.889 153.514 135.991 153.374L225.831 142.245C228.078 141.927 230.127 140.787 231.582 139.045L243.379 125.322C243.779 124.848 244.025 124.264 244.083 123.647C244.246 122.084 243.262 120.676 241.895 120.498C220.387 117.639 193.179 115.059 176.004 117.14C153.492 119.887 130.827 136.81 119.935 146.07Z" fill="#407BFF"/>
<path opacity="0.8" d="M120.341 146.069C120.063 146.317 119.854 146.631 119.731 146.983C119.609 147.334 119.578 147.711 119.642 148.078C119.706 148.444 119.863 148.789 120.097 149.078C120.331 149.367 120.635 149.592 120.98 149.731L133.108 153.127C134.176 153.43 135.295 153.514 136.397 153.374L224.231 147.357C226.418 147.077 229.795 143.061 232.184 139.795L243.78 125.321C244.184 124.85 244.431 124.265 244.489 123.647C244.647 122.084 243.668 120.675 242.301 120.498C220.783 117.648 193.584 115.055 176.409 117.149C153.893 119.887 131.233 136.81 120.341 146.069Z" fill="white"/>
<g opacity="0.3">
<path d="M179.031 154.634C178.76 154.532 178.539 154.33 178.414 154.069C178.29 153.808 178.272 153.508 178.364 153.234C178.489 152.886 178.715 152.583 179.014 152.364C179.312 152.144 179.668 152.019 180.038 152.003L190.729 151.536C190.874 151.528 191.018 151.549 191.154 151.597C191.432 151.698 191.658 151.905 191.785 152.172C191.912 152.439 191.928 152.745 191.83 153.024C191.703 153.373 191.475 153.676 191.176 153.895C190.876 154.113 190.517 154.237 190.146 154.251L179.455 154.718C179.309 154.718 179.165 154.69 179.031 154.634Z" fill="black"/>
</g>
<path d="M258.543 123.997C258.091 124.402 257.817 124.97 257.782 125.577C257.747 126.183 257.954 126.779 258.357 127.234L260.889 129.991C261.183 130.299 261.553 130.523 261.962 130.639L293.019 139.255C293.561 139.4 294.119 139.473 294.68 139.474H300.851C300.529 139.259 300.198 139.063 299.857 138.881L269.897 123.11C269.534 122.931 269.258 122.615 269.129 122.232C268.999 121.849 269.027 121.43 269.206 121.067L259.476 123.502C259.131 123.594 258.812 123.763 258.543 123.997Z" fill="#407BFF"/>
<path d="M65.1312 160.898L54.5333 159.741L48.4693 162.232C47.8375 162.489 47.2749 162.891 46.8268 163.406C46.3788 163.92 46.0578 164.533 45.8898 165.194C45.6888 165.97 45.801 166.795 46.2023 167.489L46.3096 167.671C46.6422 168.244 47.1378 168.706 47.7334 168.996C48.329 169.287 48.9976 169.394 49.6541 169.304L55.7647 168.464C56.3538 168.371 56.9103 168.132 57.3833 167.769L64.4315 162.419L65.1312 160.898Z" fill="white"/>
<path d="M109.156 144.838L110.844 145.305C111.49 145.489 112.171 145.511 112.828 145.369C113.484 145.228 114.096 144.927 114.608 144.493C124.432 136.185 141.509 123.437 159.934 117.499C159.998 117.478 160.054 117.439 160.096 117.387C160.138 117.334 160.164 117.271 160.17 117.204C160.177 117.137 160.164 117.07 160.132 117.01C160.101 116.951 160.053 116.902 159.995 116.869L157.704 115.694C131.121 124.925 109.156 144.838 109.156 144.838Z" fill="#407BFF"/>
<path opacity="0.8" d="M109.156 144.838L110.844 145.305C111.49 145.489 112.171 145.511 112.828 145.369C113.484 145.228 114.096 144.927 114.608 144.493C124.432 136.185 141.509 123.437 159.934 117.499C159.998 117.478 160.054 117.439 160.096 117.387C160.138 117.334 160.164 117.271 160.17 117.204C160.177 117.137 160.164 117.07 160.132 117.01C160.101 116.951 160.053 116.902 159.995 116.869L157.704 115.694C131.121 124.925 109.156 144.838 109.156 144.838Z" fill="white"/>
<path opacity="0.2" d="M209.873 156.056L120.565 162.442L122.249 173.46C122.763 176.834 124.013 180.054 125.911 182.891L133.374 194.049L209.602 183.74L245.646 156.056H209.873Z" fill="white"/>
<path d="M265.881 226.408C279.236 226.408 290.062 215.581 290.062 202.227C290.062 188.872 279.236 178.045 265.881 178.045C252.526 178.045 241.699 188.872 241.699 202.227C241.699 215.581 252.526 226.408 265.881 226.408Z" fill="#263238"/>
<path opacity="0.4" d="M265.881 217.05C274.068 217.05 280.705 210.413 280.705 202.226C280.705 194.039 274.068 187.402 265.881 187.402C257.694 187.402 251.057 194.039 251.057 202.226C251.057 210.413 257.694 217.05 265.881 217.05Z" fill="white"/>
<g opacity="0.3">
<path d="M265.885 188.895H265.881C265.226 188.895 264.696 189.425 264.696 190.08V197.678C264.696 198.333 265.226 198.863 265.881 198.863H265.885C266.54 198.863 267.07 198.333 267.07 197.678V190.08C267.07 189.425 266.54 188.895 265.885 188.895Z" fill="white"/>
</g>
<g opacity="0.3">
<path d="M265.885 205.599H265.881C265.226 205.599 264.696 206.129 264.696 206.783V214.382C264.696 215.036 265.226 215.567 265.881 215.567H265.885C266.54 215.567 267.07 215.036 267.07 214.382V206.783C267.07 206.129 266.54 205.599 265.885 205.599Z" fill="white"/>
</g>
<g opacity="0.3">
<path d="M270.41 200.986C270.137 201.141 269.814 201.181 269.511 201.098C269.209 201.015 268.951 200.815 268.796 200.543C268.64 200.271 268.598 199.949 268.68 199.646C268.761 199.344 268.959 199.086 269.23 198.929L275.807 195.108C276.081 194.951 276.406 194.909 276.711 194.991C277.016 195.073 277.277 195.273 277.435 195.547C277.589 195.82 277.629 196.143 277.547 196.446C277.465 196.749 277.267 197.007 276.996 197.165L270.424 200.981L270.41 200.986Z" fill="white"/>
</g>
<g opacity="0.3">
<path d="M255.945 209.284C255.673 209.44 255.351 209.482 255.049 209.4C254.746 209.319 254.488 209.121 254.331 208.85C254.253 208.716 254.203 208.567 254.183 208.414C254.162 208.26 254.173 208.103 254.213 207.953C254.253 207.803 254.323 207.663 254.418 207.54C254.512 207.417 254.63 207.314 254.765 207.236L261.342 203.416C261.476 203.337 261.625 203.286 261.779 203.265C261.933 203.244 262.09 203.254 262.241 203.294C262.391 203.334 262.532 203.403 262.656 203.498C262.779 203.592 262.883 203.71 262.961 203.845C263.039 203.98 263.091 204.129 263.112 204.283C263.133 204.438 263.123 204.595 263.083 204.746C263.043 204.897 262.974 205.038 262.879 205.162C262.785 205.286 262.666 205.39 262.531 205.468L255.95 209.284H255.945Z" fill="white"/>
</g>
<g opacity="0.3">
<path d="M275.807 209.33L269.23 205.515C268.957 205.356 268.758 205.095 268.677 204.79C268.595 204.485 268.638 204.16 268.796 203.887C268.956 203.616 269.217 203.419 269.522 203.338C269.826 203.258 270.151 203.301 270.424 203.458L276.996 207.278C277.267 207.436 277.465 207.694 277.547 207.997C277.629 208.3 277.589 208.623 277.435 208.897C277.356 209.032 277.252 209.151 277.128 209.246C277.004 209.341 276.862 209.411 276.711 209.451C276.56 209.492 276.402 209.502 276.247 209.481C276.092 209.46 275.942 209.409 275.807 209.33Z" fill="white"/>
</g>
<g opacity="0.3">
<path d="M262.961 200.547C262.803 200.819 262.543 201.016 262.24 201.097C261.937 201.177 261.614 201.134 261.342 200.976L254.765 197.156C254.63 197.079 254.512 196.976 254.418 196.853C254.323 196.729 254.253 196.589 254.213 196.439C254.173 196.289 254.162 196.133 254.183 195.979C254.203 195.825 254.253 195.676 254.331 195.542C254.489 195.271 254.748 195.073 255.051 194.992C255.354 194.91 255.677 194.952 255.95 195.108L262.531 198.929C262.666 199.007 262.784 199.111 262.878 199.234C262.972 199.358 263.041 199.499 263.08 199.65C263.12 199.8 263.129 199.957 263.108 200.111C263.086 200.265 263.035 200.413 262.956 200.547H262.961Z" fill="white"/>
</g>
<path d="M263.893 202.221C263.893 201.694 264.103 201.189 264.475 200.816C264.848 200.444 265.353 200.234 265.88 200.234C266.276 200.233 266.662 200.35 266.991 200.569C267.32 200.787 267.576 201.099 267.728 201.464C267.88 201.828 267.92 202.23 267.844 202.617C267.767 203.005 267.577 203.361 267.298 203.641C267.019 203.921 266.664 204.111 266.276 204.189C265.889 204.266 265.487 204.227 265.122 204.076C264.757 203.925 264.445 203.669 264.225 203.34C264.006 203.012 263.889 202.626 263.889 202.231L263.893 202.221Z" fill="#263238"/>
<path d="M92.3069 226.412C105.662 226.412 116.488 215.586 116.488 202.231C116.488 188.876 105.662 178.05 92.3069 178.05C78.952 178.05 68.1257 188.876 68.1257 202.231C68.1257 215.586 78.952 226.412 92.3069 226.412Z" fill="#263238"/>
<path opacity="0.4" d="M92.3069 217.055C100.494 217.055 107.131 210.418 107.131 202.231C107.131 194.044 100.494 187.407 92.3069 187.407C84.1199 187.407 77.4829 194.044 77.4829 202.231C77.4829 210.418 84.1199 217.055 92.3069 217.055Z" fill="white"/>
<g opacity="0.3">
<path d="M92.3069 188.895H92.3022C91.6479 188.895 91.1174 189.425 91.1174 190.08V197.678C91.1174 198.333 91.6479 198.863 92.3022 198.863H92.3069C92.9612 198.863 93.4917 198.333 93.4917 197.678V190.08C93.4917 189.425 92.9612 188.895 92.3069 188.895Z" fill="white"/>
</g>
<g opacity="0.3">
<path d="M92.3069 205.599H92.3022C91.6479 205.599 91.1174 206.129 91.1174 206.783V214.382C91.1174 215.036 91.6479 215.567 92.3022 215.567H92.3069C92.9612 215.567 93.4917 215.036 93.4917 214.382V206.783C93.4917 206.129 92.9612 205.599 92.3069 205.599Z" fill="white"/>
</g>
<g opacity="0.3">
<path d="M96.827 200.985C96.6929 201.062 96.5451 201.111 96.392 201.13C96.2389 201.149 96.0836 201.138 95.9349 201.096C95.7862 201.055 95.6471 200.985 95.5257 200.89C95.4042 200.795 95.3027 200.677 95.227 200.542C95.1482 200.408 95.0967 200.26 95.0754 200.106C95.054 199.952 95.0634 199.795 95.1028 199.645C95.1423 199.494 95.211 199.353 95.3052 199.229C95.3994 199.106 95.5171 199.002 95.6515 198.924L102.238 195.103C102.373 195.026 102.522 194.976 102.676 194.956C102.831 194.936 102.988 194.946 103.138 194.987C103.288 195.028 103.429 195.098 103.553 195.193C103.676 195.288 103.779 195.407 103.857 195.542C103.934 195.677 103.984 195.826 104.004 195.98C104.024 196.135 104.014 196.292 103.973 196.442C103.932 196.592 103.862 196.733 103.767 196.857C103.672 196.98 103.553 197.083 103.418 197.16L96.8456 200.976L96.827 200.985Z" fill="white"/>
</g>
<g opacity="0.3">
<path d="M80.7529 208.869C80.6752 208.735 80.6248 208.586 80.6046 208.432C80.5843 208.278 80.5946 208.122 80.6349 207.972C80.6752 207.822 80.7447 207.682 80.8394 207.559C80.9341 207.436 81.0521 207.332 81.1867 207.255L87.7638 203.435C87.8988 203.356 88.0481 203.304 88.203 203.283C88.358 203.262 88.5155 203.272 88.6667 203.312C88.8179 203.352 88.9598 203.421 89.0842 203.516C89.2086 203.61 89.3131 203.729 89.3917 203.864C89.5487 204.137 89.5907 204.462 89.5085 204.766C89.4263 205.071 89.2266 205.33 88.9533 205.487L82.3809 209.284C82.1095 209.443 81.7864 209.489 81.4815 209.411C81.1767 209.334 80.9149 209.139 80.7529 208.869Z" fill="white"/>
</g>
<g opacity="0.3">
<path d="M103.852 208.901C103.774 209.036 103.671 209.154 103.548 209.249C103.425 209.343 103.284 209.412 103.134 209.452C102.984 209.492 102.828 209.502 102.674 209.481C102.52 209.46 102.372 209.409 102.238 209.33L95.6514 205.515C95.3802 205.354 95.1833 205.093 95.1038 204.788C95.0243 204.483 95.0686 204.159 95.2269 203.887C95.3848 203.616 95.644 203.418 95.9474 203.337C96.2509 203.257 96.574 203.3 96.8455 203.458L103.418 207.278C103.689 207.436 103.887 207.695 103.968 207.998C104.05 208.301 104.008 208.624 103.852 208.897V208.901Z" fill="white"/>
</g>
<g opacity="0.3">
<path d="M89.3824 200.556C89.3039 200.69 89.1997 200.808 89.0758 200.901C88.9519 200.995 88.8107 201.063 88.6603 201.102C88.5099 201.141 88.3533 201.15 88.1994 201.129C88.0456 201.107 87.8976 201.055 87.7638 200.976L81.1867 197.156C81.0521 197.079 80.9341 196.975 80.8394 196.852C80.7447 196.729 80.6752 196.589 80.6349 196.439C80.5946 196.289 80.5843 196.133 80.6046 195.979C80.6248 195.825 80.6752 195.676 80.7529 195.542C80.911 195.268 81.1712 195.069 81.4763 194.986C81.7814 194.904 82.1067 194.946 82.3809 195.104L88.9533 198.924C89.2245 199.082 89.4223 199.341 89.5036 199.644C89.5848 199.947 89.543 200.27 89.3871 200.542L89.3824 200.556Z" fill="white"/>
</g>
<path d="M92.307 200.234C92.702 200.233 93.0885 200.35 93.4174 200.569C93.7463 200.787 94.0029 201.099 94.1548 201.464C94.3066 201.828 94.3468 202.23 94.2703 202.617C94.1938 203.005 94.004 203.361 93.725 203.641C93.446 203.921 93.0902 204.111 92.7028 204.189C92.3154 204.266 91.9138 204.227 91.5487 204.076C91.1836 203.925 90.8716 203.669 90.652 203.34C90.4324 203.012 90.3152 202.626 90.3152 202.231C90.3152 201.702 90.5249 201.195 90.8983 200.821C91.2717 200.446 91.7783 200.236 92.307 200.234Z" fill="#263238"/>
<path opacity="0.3" d="M303.192 156.616C303.384 156.557 303.562 156.46 303.716 156.332C303.87 156.203 303.997 156.046 304.091 155.868C304.184 155.69 304.241 155.496 304.259 155.296C304.277 155.097 304.255 154.895 304.195 154.704C303.915 149.61 302.833 145.081 299.713 141.965C299.611 141.632 299.399 141.344 299.111 141.148C298.824 140.953 298.478 140.86 298.131 140.887L279.706 142.627C279.384 142.66 279.082 142.796 278.843 143.014C278.694 143.149 278.573 143.311 278.487 143.492C278.401 143.673 278.351 143.869 278.341 144.07C278.331 144.27 278.361 144.47 278.429 144.659C278.497 144.848 278.601 145.021 278.736 145.169L284.012 150.86C284.195 151.057 284.427 151.201 284.683 151.28L302.325 156.626C302.609 156.704 302.91 156.701 303.192 156.616Z" fill="black"/>
<path d="M119.254 147.245C119.121 147.75 119.183 148.287 119.428 148.748C119.673 149.209 120.082 149.562 120.574 149.736L132.702 153.132C133.796 153.467 134.927 153.661 136.07 153.71L139.886 153.453L136.285 134.016C127.977 139.474 127.422 139.726 119.959 146.079C119.599 146.377 119.351 146.788 119.254 147.245Z" fill="#263238"/>
<path d="M198.188 116.515L190.576 149.708L200.535 148.989L205.078 116.804C202.752 116.686 200.455 116.589 198.188 116.515Z" fill="#263238"/>
<path d="M229.781 142.781L243.775 125.312C244.188 124.836 244.441 124.242 244.498 123.614C244.643 122.056 243.663 120.657 242.311 120.47C239.446 120.083 236.396 119.71 233.35 119.341" fill="#263238"/>
<path d="M130.272 150.603C129.697 150.61 129.126 150.503 128.592 150.29C128.058 150.076 127.571 149.759 127.16 149.357C126.748 148.955 126.42 148.476 126.194 147.947C125.967 147.418 125.847 146.85 125.841 146.275C125.829 145.275 126.159 144.301 126.775 143.514C127.392 142.727 128.258 142.174 129.232 141.946L135.072 140.579L136.56 150.375L130.389 150.613L130.272 150.603Z" fill="#407BFF"/>
<path opacity="0.3" d="M134.848 150.431L136.56 150.365L135.072 140.579L133.406 140.971L134.848 150.431Z" fill="black"/>
<path opacity="0.6" d="M192.721 192.398H192.698C192.683 192.395 192.669 192.39 192.656 192.381C192.644 192.373 192.633 192.362 192.625 192.349C192.616 192.337 192.611 192.323 192.608 192.308C192.606 192.293 192.606 192.278 192.609 192.263C192.67 191.96 199.056 161.994 199.872 157.913C200.185 156.346 200.301 153.351 200.208 148.999C200.208 148.968 200.22 148.938 200.242 148.916C200.264 148.895 200.294 148.882 200.325 148.882C200.355 148.882 200.384 148.894 200.405 148.915C200.427 148.936 200.44 148.964 200.441 148.994C200.534 153.36 200.418 156.378 200.101 157.96C199.284 162.041 192.899 192.011 192.833 192.31C192.828 192.335 192.814 192.358 192.793 192.374C192.773 192.39 192.747 192.399 192.721 192.398Z" fill="black"/>
<path opacity="0.6" d="M135.198 196.895C135.179 196.895 135.16 196.89 135.143 196.881C135.126 196.872 135.111 196.859 135.1 196.844C135.021 196.722 126.783 184.529 123.951 179.431C121.031 174.183 119.166 149.036 119.082 147.968C119.08 147.937 119.091 147.907 119.11 147.884C119.13 147.861 119.158 147.846 119.189 147.842C119.204 147.841 119.22 147.843 119.234 147.847C119.249 147.852 119.263 147.86 119.274 147.87C119.286 147.88 119.296 147.892 119.303 147.906C119.31 147.919 119.314 147.934 119.315 147.949C119.315 148.211 121.274 174.113 124.157 179.319C126.979 184.408 135.212 196.578 135.296 196.713C135.304 196.726 135.311 196.74 135.314 196.755C135.317 196.771 135.317 196.786 135.314 196.801C135.311 196.817 135.305 196.831 135.296 196.844C135.287 196.857 135.276 196.868 135.263 196.876C135.243 196.887 135.221 196.894 135.198 196.895Z" fill="black"/>
<path opacity="0.6" d="M54.5332 159.84C54.5066 159.839 54.4811 159.829 54.4609 159.812C54.4407 159.794 54.4271 159.771 54.4222 159.745C54.4173 159.718 54.4214 159.691 54.434 159.668C54.4466 159.645 54.4667 159.626 54.4912 159.616C60.807 157.032 81.0793 152.152 85.8092 151.401C91.7938 150.44 112.243 145.393 112.449 145.337C112.464 145.334 112.479 145.334 112.494 145.336C112.509 145.339 112.524 145.344 112.537 145.353C112.55 145.361 112.561 145.372 112.57 145.384C112.579 145.397 112.585 145.411 112.589 145.426C112.593 145.441 112.594 145.456 112.592 145.471C112.59 145.486 112.585 145.501 112.577 145.514C112.569 145.527 112.558 145.539 112.546 145.548C112.534 145.556 112.519 145.563 112.505 145.566C112.299 145.617 91.8405 150.664 85.8418 151.63C81.2286 152.372 60.7371 157.311 54.5892 159.83C54.5719 159.839 54.5524 159.842 54.5332 159.84Z" fill="black"/>
<path opacity="0.8" d="M258.543 123.997C258.091 124.402 257.817 124.97 257.782 125.577C257.747 126.183 257.954 126.779 258.357 127.234L260.889 129.991C261.183 130.299 261.553 130.523 261.962 130.639L293.019 139.255C293.561 139.4 294.119 139.473 294.68 139.474H300.851C300.529 139.259 300.198 139.063 299.857 138.881L269.897 123.11C269.534 122.931 269.258 122.615 269.129 122.232C268.999 121.849 269.027 121.43 269.206 121.067L259.476 123.502C259.131 123.594 258.812 123.763 258.543 123.997Z" fill="white"/>
<path d="M141.887 143.849C141.607 144.017 138.309 147.427 138.309 147.427L138.953 151.653L143.1 147.371L141.887 143.849Z" fill="#263238"/>
<path d="M146.855 152.661C146.504 152.834 146.1 152.86 145.73 152.735C145.36 152.61 145.055 152.344 144.881 151.994L138.29 138.662C138.205 138.489 138.154 138.301 138.142 138.109C138.129 137.916 138.154 137.723 138.216 137.54C138.278 137.357 138.375 137.188 138.503 137.043C138.63 136.898 138.784 136.779 138.957 136.694C139.131 136.608 139.319 136.557 139.512 136.543C139.706 136.53 139.899 136.555 140.083 136.617C140.266 136.679 140.435 136.777 140.581 136.905C140.726 137.032 140.845 137.187 140.931 137.361L147.508 150.692C147.681 151.04 147.71 151.442 147.588 151.811C147.465 152.18 147.202 152.486 146.855 152.661Z" fill="#263238"/>
<path d="M154.033 136.614C154.033 136.614 157.298 149.638 159.206 150.142C162.677 151.033 174.599 150.034 174.366 149.652L173.862 143.663C173.862 143.663 161.842 145.65 161.935 145.44L157.415 135.304L154.033 136.614Z" fill="#EBB373"/>
<path d="M157.033 136.092C157.033 136.092 158.106 135.094 158.134 133.881C158.162 132.668 158.511 131.712 158.469 130.812C158.427 129.911 157.676 130.868 157.378 131.455C157.079 132.043 156.734 132.715 156.328 132.416C155.923 132.118 154.15 128.171 153.53 127.826C152.909 127.481 153.007 128.209 153.007 128.209C153.007 128.209 152.541 127.276 152.126 127.341C152.014 127.341 151.79 127.588 151.934 128.05C152.247 129.095 153.021 131.255 153.021 131.255C152.979 131.129 151.832 128.535 151.622 128.167C151.328 127.7 150.95 127.612 150.689 127.789C150.302 128.041 151.622 131.306 151.575 131.483C151.575 131.483 150.88 129.58 150.292 129.487C149.705 129.394 150.073 130.62 150.605 131.637C151.071 132.57 151.804 134.525 152.391 135.425C153.114 136.53 153.847 137.113 155.074 136.927C155.788 136.822 156.462 136.534 157.033 136.092Z" fill="#EBB373"/>
<path opacity="0.3" d="M154.033 130.728C154.021 130.728 154.009 130.725 153.999 130.718C153.989 130.711 153.981 130.702 153.977 130.69C153.702 129.897 153.39 129.109 153.044 128.358C153.041 128.351 153.039 128.343 153.038 128.335C153.038 128.326 153.039 128.318 153.042 128.311C153.045 128.303 153.05 128.296 153.056 128.291C153.062 128.285 153.069 128.281 153.077 128.279C153.084 128.275 153.091 128.274 153.099 128.273C153.106 128.273 153.113 128.274 153.12 128.277C153.127 128.28 153.134 128.284 153.139 128.289C153.144 128.294 153.149 128.3 153.152 128.307C153.497 129.076 153.814 129.865 154.085 130.662C154.088 130.669 154.089 130.677 154.089 130.684C154.089 130.692 154.088 130.7 154.084 130.707C154.081 130.714 154.077 130.72 154.071 130.725C154.066 130.73 154.059 130.734 154.052 130.737L154.033 130.728Z" fill="black"/>
<path opacity="0.3" d="M151.818 132.291C151.81 132.294 151.802 132.295 151.794 132.295C151.786 132.295 151.778 132.294 151.771 132.291C151.761 132.279 151.756 132.264 151.756 132.249C151.756 132.233 151.761 132.218 151.771 132.207C152.628 131.506 153.67 131.07 154.77 130.952C154.778 130.951 154.786 130.952 154.794 130.955C154.801 130.957 154.808 130.961 154.815 130.966C154.821 130.971 154.826 130.978 154.829 130.985C154.833 130.992 154.835 131 154.836 131.008C154.836 131.015 154.835 131.023 154.833 131.03C154.831 131.037 154.827 131.043 154.822 131.049C154.818 131.054 154.812 131.059 154.805 131.062C154.799 131.066 154.792 131.068 154.784 131.068C153.705 131.183 152.684 131.611 151.846 132.3L151.818 132.291Z" fill="black"/>
<path opacity="0.3" d="M155.321 135.29C155.309 135.29 155.297 135.286 155.287 135.279C155.277 135.273 155.269 135.263 155.265 135.252C155.092 134.824 155.074 134.349 155.214 133.909C155.353 133.469 155.642 133.091 156.03 132.841C156.035 132.835 156.041 132.831 156.048 132.829C156.055 132.826 156.062 132.824 156.069 132.824C156.077 132.824 156.084 132.826 156.091 132.829C156.098 132.831 156.104 132.835 156.109 132.841C156.114 132.846 156.118 132.852 156.121 132.859C156.124 132.866 156.126 132.873 156.126 132.88C156.126 132.888 156.124 132.895 156.121 132.902C156.118 132.909 156.114 132.915 156.109 132.92C155.744 133.155 155.473 133.51 155.342 133.924C155.211 134.338 155.228 134.785 155.391 135.187C155.397 135.201 155.398 135.217 155.393 135.232C155.387 135.247 155.377 135.259 155.363 135.266L155.321 135.29Z" fill="black"/>
<path d="M188.08 142.748C185.897 139.865 182.431 140.155 180.178 140.551L175.719 141.283C175.576 141.306 175.436 141.34 175.299 141.386L174.282 141.699L164.734 144.759L167.038 150.869L170.159 150.487L169.636 151.331L172.696 151.135L189.4 150.263V146.876C189.42 145.393 188.957 143.944 188.08 142.748Z" fill="#263238"/>
<path d="M187.175 147.558C187.175 147.558 185.081 161.603 183.597 163.091C180.062 166.645 166.968 156.868 166.968 156.868L167.374 153.094L178.681 157.759L180.799 145.846L187.175 147.558Z" fill="#EBB373"/>
<path d="M188.896 146.601C188.794 146.946 187.894 156.747 187.894 156.747L178.303 155.851C178.303 155.851 178.802 153.131 179.525 148.388C180.286 143.429 180.724 140.924 183.182 140.523C187.833 139.744 188.896 146.601 188.896 146.601Z" fill="#263238"/>
<path d="M185.683 124.412C187.129 126.95 187.632 128.466 187.763 130.901C187.917 133.741 187.786 136.251 187.152 136.965C186.322 137.897 177.328 138.83 172.286 138.611C172.104 138.611 171.955 137.006 171.955 137.006C171.955 137.006 171.241 138.569 171.022 138.555C169.646 138.494 168.764 138.443 168.764 138.443C168.764 138.443 169.907 136.111 171.302 127.631C171.983 123.498 176.144 121.847 178.592 121.534C182.66 121.03 185.683 124.412 185.683 124.412Z" fill="#263238"/>
<path d="M173.699 132.398C172.379 130.117 171.068 123.969 176.568 122.075C183.43 119.705 186.499 124.081 187.091 128.419C187.684 132.757 185.225 136.031 180.701 135.705C176.176 135.378 174.609 133.979 173.699 132.398Z" fill="#263238"/>
<path d="M183.224 132.706L179.171 136.437L178.406 137.268C178.632 137.836 178.788 138.429 178.872 139.035C178.93 139.675 178.749 140.313 178.364 140.827L177.454 142.898C179.483 141.307 184.106 140.453 184.106 140.453C183.335 137.948 183.036 135.32 183.224 132.706Z" fill="#EBB373"/>
<path opacity="0.2" d="M178.872 139.259C179.964 138.676 181.205 137.636 181.102 136.377C181.077 135.915 180.997 135.458 180.864 135.015L178.564 137.776C178.72 138.258 178.823 138.755 178.872 139.259Z" fill="black"/>
<path d="M184.516 128.587C183.966 132.552 183.817 134.236 181.666 136.227C178.434 139.222 173.737 137.944 173.097 133.965C172.524 130.378 173.517 124.501 177.501 123.013C178.345 122.665 179.267 122.55 180.172 122.678C181.076 122.806 181.93 123.173 182.645 123.741C183.36 124.309 183.91 125.057 184.239 125.909C184.568 126.761 184.664 127.686 184.516 128.587Z" fill="#EBB373"/>
<path d="M179.46 129.776C179.418 130.177 179.157 130.495 178.877 130.485C178.597 130.476 178.41 130.149 178.438 129.748C178.466 129.347 178.742 129.03 179.021 129.039C179.301 129.049 179.502 129.375 179.46 129.776Z" fill="#263238"/>
<path d="M175.327 129.52C175.285 129.902 175.029 130.206 174.753 130.201C174.478 130.196 174.287 129.874 174.324 129.497C174.362 129.119 174.623 128.811 174.898 128.815C175.173 128.82 175.364 129.128 175.327 129.52Z" fill="#263238"/>
<path d="M180.09 128.33C180.063 128.336 180.035 128.336 180.008 128.329C179.982 128.323 179.957 128.31 179.936 128.293C179.735 128.137 179.501 128.028 179.252 127.976C179.003 127.925 178.745 127.931 178.499 127.995C178.475 128.004 178.448 128.008 178.422 128.007C178.396 128.006 178.37 128 178.347 127.989C178.323 127.977 178.302 127.961 178.285 127.941C178.268 127.921 178.255 127.898 178.247 127.873C178.236 127.82 178.244 127.765 178.272 127.718C178.3 127.671 178.344 127.637 178.396 127.621C178.707 127.534 179.033 127.521 179.349 127.584C179.665 127.646 179.962 127.782 180.216 127.981C180.235 127.998 180.251 128.019 180.262 128.042C180.273 128.066 180.279 128.092 180.279 128.118C180.279 128.144 180.273 128.17 180.262 128.194C180.251 128.218 180.235 128.239 180.216 128.256C180.183 128.294 180.139 128.321 180.09 128.33Z" fill="#263238"/>
<path d="M174.007 127.514C173.964 127.491 173.933 127.452 173.918 127.406C173.906 127.356 173.913 127.303 173.939 127.259C173.966 127.214 174.008 127.182 174.058 127.168C174.358 127.071 174.677 127.043 174.989 127.089C175.301 127.134 175.599 127.251 175.859 127.43C175.878 127.446 175.893 127.467 175.903 127.49C175.914 127.513 175.919 127.537 175.919 127.563C175.919 127.588 175.914 127.613 175.903 127.636C175.893 127.658 175.878 127.679 175.859 127.696C175.82 127.73 175.769 127.749 175.717 127.749C175.664 127.749 175.614 127.73 175.574 127.696C175.366 127.558 175.13 127.469 174.883 127.436C174.635 127.403 174.384 127.426 174.147 127.504C174.103 127.524 174.053 127.527 174.007 127.514Z" fill="#263238"/>
<path d="M181.354 124.855C180.029 126.124 180.421 131.176 183.947 131.996C188.085 131.241 185.319 121.081 181.354 124.855Z" fill="#263238"/>
<path d="M176.204 133.275C176.454 133.758 176.669 134.258 176.848 134.772L177.132 134.725C178.41 134.487 178.928 133.951 179.11 133.433C179.194 133.178 179.217 132.906 179.175 132.64C179.155 132.489 179.114 132.342 179.054 132.202C178.452 132.733 177.272 133.046 176.638 133.186C176.372 133.251 176.204 133.275 176.204 133.275Z" fill="#263238"/>
<path d="M176.638 133.186L176.839 133.624C178.047 133.396 178.863 133.074 179.171 132.64C179.151 132.489 179.11 132.342 179.05 132.202C178.452 132.733 177.272 133.046 176.638 133.186Z" fill="white"/>
<path d="M177.132 134.725C178.41 134.487 178.928 133.951 179.11 133.433C178.626 133.533 178.163 133.718 177.743 133.979C177.466 134.157 177.252 134.418 177.132 134.725Z" fill="#DC5753"/>
<path d="M176.456 129.282C176.016 130.216 175.459 131.09 174.8 131.885C175.267 132.398 176.199 132.183 176.199 132.183L176.456 129.282Z" fill="#E4873E"/>
<path d="M178.238 128.811L179.143 129.072C178.704 129.52 178.238 128.811 178.238 128.811Z" fill="#263238"/>
<path d="M174.161 128.587L175.061 128.848C174.627 129.287 174.161 128.587 174.161 128.587Z" fill="#263238"/>
<path d="M177.571 122.135C175.971 122.602 174.18 125.237 173.839 126.273C176.055 126.739 182.175 124.925 182.175 124.925C182.175 124.925 186.144 126.222 184.199 124.09C182.254 121.958 177.571 122.135 177.571 122.135Z" fill="#263238"/>
<path d="M185.571 131.852C185.112 132.564 184.392 133.067 183.565 133.251C182.501 133.466 182.035 131.745 182.441 130.709C182.631 130.241 182.983 129.857 183.432 129.626C183.881 129.394 184.398 129.332 184.89 129.45C185.869 129.725 186.149 130.956 185.571 131.852Z" fill="#EBB373"/>
<path d="M167.099 138.065L166.978 137.864C168.47 136.969 169.893 133.484 170.499 131.996C171.107 130.337 171.534 128.616 171.773 126.865L172.006 126.907C171.76 128.668 171.327 130.397 170.714 132.066C170.047 133.718 168.657 137.127 167.099 138.065Z" fill="#263238"/>
<path d="M183.252 133.158C183.245 133.305 183.282 133.45 183.357 133.576C183.433 133.702 183.544 133.803 183.677 133.865C183.809 133.928 183.958 133.95 184.103 133.928C184.248 133.906 184.384 133.842 184.492 133.743C184.601 133.644 184.678 133.516 184.713 133.373C184.748 133.231 184.741 133.081 184.691 132.943C184.641 132.805 184.551 132.684 184.433 132.597C184.315 132.51 184.173 132.46 184.027 132.454C183.929 132.449 183.832 132.463 183.741 132.496C183.649 132.528 183.565 132.579 183.493 132.644C183.421 132.71 183.362 132.789 183.321 132.877C183.28 132.965 183.257 133.061 183.252 133.158Z" fill="#407BFF"/>
<path opacity="0.1" d="M183.201 131.852C183.186 131.851 183.171 131.847 183.157 131.84C183.143 131.833 183.131 131.823 183.121 131.811C183.111 131.8 183.104 131.786 183.099 131.771C183.094 131.757 183.092 131.741 183.094 131.726C183.11 131.526 183.172 131.332 183.275 131.159C183.377 130.987 183.517 130.839 183.684 130.728C183.852 130.617 184.042 130.546 184.241 130.519C184.44 130.492 184.643 130.511 184.834 130.574C184.863 130.584 184.887 130.606 184.901 130.634C184.915 130.661 184.917 130.693 184.908 130.723C184.903 130.738 184.896 130.752 184.886 130.763C184.876 130.775 184.863 130.785 184.849 130.792C184.835 130.799 184.82 130.803 184.805 130.804C184.789 130.805 184.774 130.803 184.759 130.798C184.603 130.746 184.437 130.73 184.275 130.751C184.112 130.771 183.955 130.829 183.818 130.919C183.68 131.008 183.564 131.128 183.479 131.268C183.394 131.409 183.342 131.567 183.327 131.731C183.328 131.747 183.325 131.764 183.319 131.779C183.313 131.794 183.303 131.808 183.291 131.82C183.279 131.831 183.265 131.84 183.25 131.845C183.234 131.851 183.217 131.853 183.201 131.852Z" fill="black"/>
<path d="M171.824 155.706L167.374 153.094L166.161 151.541C166.161 151.541 164.911 150.067 163.904 149.969C163.398 149.953 162.895 150.058 162.439 150.277C162.439 150.277 161.273 151.014 161.972 152.143C161.972 152.143 160.82 152.735 161.604 154.008C161.604 154.008 160.498 154.032 161.445 155.189C161.81 155.626 162.259 155.986 162.765 156.247C163.272 156.509 163.825 156.666 164.393 156.709C165.05 156.771 165.712 156.713 166.348 156.537L171.26 159.765L171.824 155.706Z" fill="#EBB373"/>
<path d="M179.143 150.813L179.945 145.78L177.496 150.869L179.143 150.813Z" fill="black"/>
<path d="M170.159 150.487L172.16 146.424L168.316 150.715L170.159 150.487Z" fill="black"/>
</svg>
